<svg width="4" height="14" viewBox="0 0 4 14" fill="none" xmlns="http://www.w3.org/2000/svg">
	<path d="M0.332682 7.00065C0.332682 7.92113 1.07887 8.66732 1.99935 8.66732C2.91982 8.66732 3.66602 7.92113 3.66602 7.00065C3.66602 6.08018 2.91982 5.33398 1.99935 5.33398C1.07887 5.33398 0.332682 6.08018 0.332682 7.00065Z" fill="#6E7077" />
	<path d="M0.332682 2.00065C0.332682 2.92113 1.07887 3.66732 1.99935 3.66732C2.91982 3.66732 3.66602 2.92113 3.66602 2.00065C3.66602 1.08018 2.91982 0.333984 1.99935 0.333984C1.07887 0.333984 0.332682 1.08018 0.332682 2.00065Z" fill="#6E7077" />
	<path d="M0.332682 12.0007C0.332682 12.9211 1.07887 13.6673 1.99935 13.6673C2.91982 13.6673 3.66602 12.9211 3.66602 12.0007C3.66602 11.0802 2.91982 10.334 1.99935 10.334C1.07887 10.334 0.332682 11.0802 0.332682 12.0007Z" fill="#6E7077" />
</svg>
