<svg width="14" height="14" viewBox="0 0 14 14" fill="none" xmlns="http://www.w3.org/2000/svg">
	<path d="M6.99967 0.333984C7.45991 0.333984 7.83301 0.70708 7.83301 1.16732V6.16732H12.833C13.2932 6.16732 13.6663 6.54042 13.6663 7.00065C13.6663 7.46089 13.2932 7.83399 12.833 7.83399H7.83301V12.834C7.83301 13.2942 7.45991 13.6673 6.99967 13.6673C6.53944 13.6673 6.16634 13.2942 6.16634 12.834V7.83399H1.16634C0.706104 7.83399 0.333008 7.46089 0.333008 7.00065C0.333008 6.54042 0.706104 6.16732 1.16634 6.16732H6.16634V1.16732C6.16634 0.70708 6.53944 0.333984 6.99967 0.333984Z" fill="#000" />
</svg>
