<svg width="14" height="12" viewBox="0 0 14 12" fill="none" xmlns="http://www.w3.org/2000/svg">
	<path d="M6.75593 0.421812C6.43049 0.0963751 5.90285 0.0963751 5.57742 0.421812L0.577418 5.42181C0.421137 5.57809 0.33334 5.79006 0.33334 6.01107C0.33334 6.23208 0.421137 6.44404 0.577418 6.60033L5.57742 11.6003C5.90285 11.9258 6.43049 11.9258 6.75593 11.6003C7.08137 11.2749 7.08136 10.7473 6.75593 10.4218L3.17852 6.8444L12.8333 6.8444C13.2936 6.8444 13.6667 6.47131 13.6667 6.01107C13.6667 5.55083 13.2936 5.17774 12.8333 5.17774L3.17852 5.17774L6.75593 1.60032C7.08137 1.27489 7.08137 0.747249 6.75593 0.421812Z" fill="#E79436" />
</svg>
