<svg width="15" height="12" viewBox="0 0 15 12" fill="none" xmlns="http://www.w3.org/2000/svg">
	<path d="M7.74412 0.41107C8.06955 0.085633 8.59719 0.085633 8.92263 0.41107L13.9226 5.41107C14.0789 5.56735 14.1667 5.77931 14.1667 6.00033C14.1667 6.22134 14.0789 6.4333 13.9226 6.58958L8.92263 11.5896C8.59719 11.915 8.06955 11.915 7.74412 11.5896C7.41868 11.2641 7.41868 10.7365 7.74412 10.4111L11.3215 6.83366L1.66671 6.83366C1.20647 6.83366 0.833374 6.46056 0.833374 6.00033C0.833374 5.54009 1.20647 5.16699 1.66671 5.16699L11.3215 5.16699L7.74412 1.58958C7.41868 1.26414 7.41868 0.736507 7.74412 0.41107Z" fill="#E79436" />
</svg>
