<svg width="20" height="20" viewBox="0 0 20 20" fill="none" xmlns="http://www.w3.org/2000/svg">
	<path d="M9.75584 4.41107C10.0813 4.73651 10.0813 5.26414 9.75584 5.58958L6.17843 9.16699H15.8333C16.2935 9.16699 16.6666 9.54009 16.6666 10.0003C16.6666 10.4606 16.2935 10.8337 15.8333 10.8337H6.17843L9.75584 14.4111C10.0813 14.7365 10.0813 15.2641 9.75584 15.5896C9.4304 15.915 8.90277 15.915 8.57733 15.5896L3.57733 10.5896C3.42105 10.4333 3.33325 10.2213 3.33325 10.0003C3.33325 9.77931 3.42105 9.56735 3.57733 9.41107L8.57733 4.41107C8.90277 4.08563 9.4304 4.08563 9.75584 4.41107Z" fill="#E79436" />
</svg>
