<svg width="18" height="18" viewBox="0 0 18 18" fill="none" xmlns="http://www.w3.org/2000/svg">
<path d="M5.14518 2.33268C5.14518 1.41221 5.89137 0.666016 6.81185 0.666016H11.8118C12.7323 0.666016 13.4785 1.41221 13.4785 2.33268V3.99935H15.1366C15.1417 3.9993 15.1469 3.9993 15.1521 3.99935H16.8118C17.2721 3.99935 17.6452 4.37245 17.6452 4.83268C17.6452 5.29292 17.2721 5.66602 16.8118 5.66602H15.9211L15.1983 15.7848C15.1361 16.6569 14.4103 17.3327 13.5359 17.3327H5.08778C4.21338 17.3327 3.48765 16.6569 3.42535 15.7848L2.70258 5.66602H1.81185C1.35161 5.66602 0.978516 5.29292 0.978516 4.83268C0.978516 4.37245 1.35161 3.99935 1.81185 3.99935H3.47164C3.47681 3.9993 3.48197 3.9993 3.48712 3.99935H5.14518V2.33268ZM6.81185 3.99935H11.8118V2.33268H6.81185V3.99935ZM4.3735 5.66602L5.08778 15.666H13.5359L14.2502 5.66602H4.3735ZM7.64518 7.33268C8.10542 7.33268 8.47852 7.70578 8.47852 8.16602V13.166C8.47852 13.6263 8.10542 13.9993 7.64518 13.9993C7.18495 13.9993 6.81185 13.6263 6.81185 13.166V8.16602C6.81185 7.70578 7.18495 7.33268 7.64518 7.33268ZM10.9785 7.33268C11.4388 7.33268 11.8118 7.70578 11.8118 8.16602V13.166C11.8118 13.6263 11.4388 13.9993 10.9785 13.9993C10.5183 13.9993 10.1452 13.6263 10.1452 13.166V8.16602C10.1452 7.70578 10.5183 7.33268 10.9785 7.33268Z" fill="white"/>
</svg>
