<svg width="24" height="24" viewBox="0 0 24 24" fill="none" xmlns="http://www.w3.org/2000/svg">
	<path fill-rule="evenodd" clip-rule="evenodd" d="M3 4C3 3.44772 3.44772 3 4 3H20C20.5523 3 21 3.44772 21 4V18C21 19.6569 19.6569 21 18 21H6C4.34315 21 3 19.6569 3 18V4ZM5 5V18C5 18.5523 5.44772 19 6 19H18C18.5523 19 19 18.5523 19 18V5H5Z" fill="#6E7077" />
	<path fill-rule="evenodd" clip-rule="evenodd" d="M3 8C3 7.44772 3.44772 7 4 7H20C20.5523 7 21 7.44772 21 8C21 8.55228 20.5523 9 20 9H4C3.44772 9 3 8.55228 3 8Z" fill="#6E7077" />
	<path fill-rule="evenodd" clip-rule="evenodd" d="M16 2C16.5523 2 17 2.44772 17 3V5C17 5.55228 16.5523 6 16 6C15.4477 6 15 5.55228 15 5V3C15 2.44772 15.4477 2 16 2Z" fill="#6E7077" />
	<path fill-rule="evenodd" clip-rule="evenodd" d="M8 2C8.55228 2 9 2.44772 9 3V5C9 5.55228 8.55228 6 8 6C7.44772 6 7 5.55228 7 5V3C7 2.44772 7.44772 2 8 2Z" fill="#6E7077" />
</svg>
