<svg width="22" height="18" viewBox="0 0 22 18" fill="none" xmlns="http://www.w3.org/2000/svg">
	<path d="M18.4621 2.57573C17.7748 1.82597 16.5337 1.77977 15.7063 2.60711L7.60633 10.7071C7.39685 10.9166 7.39685 11.1834 7.60633 11.3929C7.8158 11.6024 8.08264 11.6024 8.29211 11.3929L14.9921 4.6929C15.3826 4.30238 16.0158 4.30238 16.4063 4.6929C16.7969 5.08342 16.7969 5.71659 16.4063 6.10711L9.70633 12.8071C8.7158 13.7976 7.18264 13.7976 6.19211 12.8071C5.20159 11.8166 5.20159 10.2834 6.19211 9.2929L14.2921 1.1929C15.8596 -0.374632 18.407 -0.425638 19.9216 1.20821C21.4738 2.77662 21.5195 5.31157 19.8921 6.82133L10.4063 16.3071C8.2158 18.4976 4.78264 18.4976 2.59211 16.3071C0.401588 14.1166 0.401588 10.6834 2.59211 8.4929L10.6921 0.3929C11.0826 0.00237539 11.7158 0.00237539 12.1063 0.3929C12.4969 0.783424 12.4969 1.41659 12.1063 1.80711L4.00633 9.90711C2.59685 11.3166 2.59685 13.4834 4.00633 14.8929C5.4158 16.3024 7.58264 16.3024 8.99211 14.8929L18.4921 5.3929C18.5024 5.38266 18.5128 5.37264 18.5235 5.36285C19.2733 4.67557 19.3195 3.43446 18.4921 2.60711C18.4819 2.59687 18.4719 2.58641 18.4621 2.57573Z" fill="#6E7077" />
</svg>
