<svg width="20" height="20" viewBox="0 0 20 20" fill="none" xmlns="http://www.w3.org/2000/svg">
	<path d="M16.219 4.64644C15.6463 4.02164 14.612 3.98314 13.9226 4.67259L7.17259 11.4226C6.99803 11.5972 6.99803 11.8195 7.17259 11.9941C7.34715 12.1686 7.56951 12.1686 7.74408 11.9941L13.3274 6.41075C13.6528 6.08531 14.1805 6.08531 14.5059 6.41075C14.8314 6.73619 14.8314 7.26382 14.5059 7.58926L8.92259 13.1726C8.09715 13.998 6.81951 13.998 5.99408 13.1726C5.16864 12.3472 5.16864 11.0695 5.99408 10.2441L12.7441 3.49408C14.0504 2.18781 16.1731 2.1453 17.4353 3.50684C18.7288 4.81385 18.7669 6.92631 17.4107 8.18444L9.50592 16.0893C7.68049 17.9147 4.81951 17.9147 2.99408 16.0893C1.16864 14.2638 1.16864 11.4029 2.99408 9.57742L9.74408 2.82742C10.0695 2.50198 10.5972 2.50198 10.9226 2.82742C11.248 3.15285 11.248 3.68049 10.9226 4.00593L4.17259 10.7559C2.99803 11.9305 2.99803 13.7362 4.17259 14.9108C5.34715 16.0853 7.15285 16.0853 8.32741 14.9108L16.2441 6.99408C16.2526 6.98555 16.2613 6.9772 16.2702 6.96904C16.895 6.39631 16.9335 5.36205 16.2441 4.67259C16.2355 4.66406 16.2272 4.65534 16.219 4.64644Z" fill="#E79436" />
</svg>
