<svg width="24" height="24" viewBox="0 0 24 24" fill="none" xmlns="http://www.w3.org/2000/svg">
	<path fill-rule="evenodd" clip-rule="evenodd" d="M4 3C4 2.44772 4.44772 2 5 2H14C14.2652 2 14.5196 2.10536 14.7071 2.29289L19.7071 7.29289C19.8946 7.48043 20 7.73478 20 8V19C20 20.6569 18.6569 22 17 22H7C5.34315 22 4 20.6569 4 19V3ZM6 4V19C6 19.5523 6.44772 20 7 20H17C17.5523 20 18 19.5523 18 19V8.41421L13.5858 4H6Z" fill="#6E7077" />
	<path fill-rule="evenodd" clip-rule="evenodd" d="M12 9V3H14V8H19V10H13C12.4477 10 12 9.55228 12 9Z" fill="#6E7077" />
</svg>
