<svg width="20" height="20" viewBox="0 0 20 20" fill="none" xmlns="http://www.w3.org/2000/svg">
	<path d="M9.99999 3.33268C6.31809 3.33268 3.33332 6.31745 3.33332 9.99935C3.33332 13.6812 6.31809 16.666 9.99999 16.666C13.6819 16.666 16.6667 13.6812 16.6667 9.99935C16.6667 6.31745 13.6819 3.33268 9.99999 3.33268ZM1.66666 9.99935C1.66666 5.39698 5.39762 1.66602 9.99999 1.66602C14.6024 1.66602 18.3333 5.39698 18.3333 9.99935C18.3333 14.6017 14.6024 18.3327 9.99999 18.3327C5.39762 18.3327 1.66666 14.6017 1.66666 9.99935ZM9.99999 4.99935C10.4602 4.99935 10.8333 5.37245 10.8333 5.83268V9.65417L13.0892 11.9101C13.4147 12.2355 13.4147 12.7632 13.0892 13.0886C12.7638 13.414 12.2362 13.414 11.9107 13.0886L9.41073 10.5886C9.25445 10.4323 9.16666 10.2204 9.16666 9.99935V5.83268C9.16666 5.37245 9.53975 4.99935 9.99999 4.99935Z" fill="black" />
</svg>
