<svg width="20" height="20" viewBox="0 0 20 20" fill="none" xmlns="http://www.w3.org/2000/svg">
	<path d="M6.66668 2.49935C6.66668 2.03911 7.03977 1.66602 7.50001 1.66602H12.5C12.9602 1.66602 13.3333 2.03911 13.3333 2.49935H15C15.9205 2.49935 16.6667 3.24554 16.6667 4.16602V16.666C16.6667 17.5865 15.9205 18.3327 15 18.3327H5.00001C4.07954 18.3327 3.33334 17.5865 3.33334 16.666V4.16602C3.33334 3.24554 4.07954 2.49935 5.00001 2.49935H6.66668ZM6.66668 4.16602H5.00001V16.666H15V4.16602H13.3333V4.99935C13.3333 5.45959 12.9602 5.83268 12.5 5.83268H7.50001C7.03977 5.83268 6.66668 5.45959 6.66668 4.99935V4.16602ZM11.6667 3.33268H8.33334V4.16602H11.6667V3.33268ZM13.0893 8.99343C13.4147 9.31886 13.4147 9.8465 13.0893 10.1719L9.75593 13.5053C9.4305 13.8307 8.90286 13.8307 8.57742 13.5053L6.91075 11.8386C6.58532 11.5132 6.58532 10.9855 6.91075 10.6601C7.23619 10.3347 7.76383 10.3347 8.08927 10.6601L9.16668 11.7375L11.9108 8.99343C12.2362 8.66799 12.7638 8.66799 13.0893 8.99343Z" fill="black" />
</svg>
