<svg width="20" height="20" viewBox="0 0 20 20" fill="none" xmlns="http://www.w3.org/2000/svg">
	<path d="M8.69165 15.3089C8.56665 15.3089 8.44999 15.2756 8.34165 15.2006C8.16665 15.0839 8.06665 14.8923 8.06665 14.6839C8.06665 14.5589 8.05832 14.4256 8.04165 14.2923C7.96665 13.7006 7.69999 13.1839 7.24999 12.7339C6.79999 12.2839 6.24165 12.0006 5.64165 11.9256C5.54165 11.9173 5.39999 11.9089 5.26665 11.9173C5.04999 11.9339 4.84999 11.8423 4.72499 11.6673C4.59999 11.5006 4.56665 11.2756 4.63332 11.0756C4.75832 10.7339 4.94165 10.4256 5.15832 10.1756L6.44165 8.55892C8.64999 5.80059 13.125 2.48392 16.4 1.16725C17.1 0.900586 17.8333 1.05892 18.3417 1.55892C18.8667 2.08392 19.025 2.83392 18.75 3.51725C17.4333 6.80059 14.125 11.2673 11.3667 13.4756L9.72499 14.7923C9.41665 15.0173 9.16665 15.1589 8.91665 15.2589C8.84999 15.2923 8.76665 15.3089 8.69165 15.3089ZM6.28332 10.7839C6.98332 10.9673 7.60832 11.3339 8.13332 11.8589C8.65832 12.3756 9.00832 12.9756 9.18332 13.6423L10.5917 12.5089C13.2083 10.4173 16.35 6.17559 17.5917 3.05892C17.7167 2.75059 17.5417 2.53392 17.4583 2.45892C17.4 2.40059 17.1833 2.21725 16.85 2.34225C13.75 3.59225 9.50832 6.73392 7.40832 9.35059L6.28332 10.7839Z" fill="black" />
	<path d="M3.4 18.9576C2.775 18.9576 2.175 18.7076 1.725 18.2576C1.20833 17.7409 0.958334 17.0242 1.04167 16.2909L1.26667 14.2409C1.48333 12.2076 3.15 10.6992 5.21667 10.6576C5.375 10.6492 5.58333 10.6576 5.775 10.6742C6.68333 10.7909 7.49167 11.1992 8.14167 11.8492C8.78333 12.4909 9.16667 13.2576 9.28333 14.1159C9.30833 14.2992 9.325 14.4992 9.325 14.6742C9.325 15.7742 8.9 16.7992 8.13333 17.5742C7.49167 18.2076 6.66667 18.5992 5.73333 18.7159L3.675 18.9409C3.58333 18.9492 3.49167 18.9576 3.4 18.9576ZM5.375 11.9159C5.34167 11.9159 5.3 11.9159 5.26667 11.9159C4.00833 11.9409 2.675 12.7992 2.50833 14.3826L2.28333 16.4326C2.24167 16.7826 2.36667 17.1242 2.60833 17.3742C2.85 17.6159 3.19167 17.7409 3.53333 17.6992L5.58333 17.4742C6.225 17.3909 6.8 17.1242 7.23333 16.6909C7.76667 16.1576 8.06667 15.4409 8.06667 14.6742C8.06667 14.5492 8.05833 14.4159 8.04167 14.2826C7.96667 13.6909 7.7 13.1742 7.25 12.7242C6.8 12.2742 6.24167 11.9909 5.64167 11.9159C5.575 11.9159 5.475 11.9159 5.375 11.9159Z" fill="black" />
	<path d="M11.8667 12.6839C11.525 12.6839 11.2417 12.4005 11.2417 12.0589C11.2417 10.2255 9.74999 8.74219 7.92499 8.74219C7.58332 8.74219 7.29999 8.45885 7.29999 8.11719C7.29999 7.77552 7.57499 7.49219 7.91665 7.49219C10.4333 7.49219 12.4833 9.54219 12.4833 12.0589C12.4917 12.4089 12.2083 12.6839 11.8667 12.6839Z" fill="black" />
	<path d="M13.0667 18.9415C12.2917 18.9415 11.5167 18.5749 10.775 17.8332C10.5333 17.5915 10.5333 17.1915 10.775 16.9499C11.0167 16.7082 11.4167 16.7082 11.6583 16.9499C12.6417 17.9332 13.4833 17.9332 14.4667 16.9499L16.9333 14.4832C17.925 13.4915 17.925 12.6499 16.9333 11.6665L16.3167 11.0582C16.075 10.8166 16.0667 10.4165 16.3083 10.1749C16.55 9.92488 16.95 9.92488 17.1917 10.1665L17.8083 10.7749C19.2917 12.2582 19.2917 13.8832 17.8083 15.3665L15.3417 17.8332C14.6167 18.5665 13.8417 18.9415 13.0667 18.9415Z" fill="black" />
	<path d="M2.59165 9.38411C2.43332 9.38411 2.26665 9.32578 2.14999 9.20078C0.683321 7.72578 0.683321 6.09245 2.14999 4.61745L4.61665 2.15078C6.08332 0.684115 7.73332 0.684115 9.19999 2.15078L9.81665 2.76745C10.0583 3.00911 10.0583 3.40911 9.81665 3.65078C9.57499 3.89245 9.17499 3.89245 8.93332 3.65078L8.30832 3.03411C7.32499 2.05078 6.47499 2.05078 5.49999 3.03411L3.03332 5.50078C2.04999 6.49245 2.04999 7.33411 3.03332 8.32578C3.27499 8.56745 3.27499 8.96745 3.03332 9.20911C2.90832 9.32578 2.74999 9.38411 2.59165 9.38411Z" fill="black" />
	<path d="M6.29168 6.91719C6.13335 6.91719 5.97501 6.85885 5.85001 6.73385C5.60835 6.49219 5.60835 6.09219 5.85001 5.85052L8.93335 2.76719C9.17501 2.52552 9.57501 2.52552 9.81668 2.76719C10.0583 3.00885 10.0583 3.40885 9.81668 3.65052L6.73335 6.73385C6.60835 6.85885 6.45001 6.91719 6.29168 6.91719Z" fill="black" />
	<path d="M14.3 13.6911C14.1417 13.6911 13.9833 13.6328 13.8583 13.5078C13.6167 13.2661 13.6167 12.8661 13.8583 12.6245L16.325 10.1578C16.5667 9.91615 16.9667 9.91615 17.2083 10.1578C17.45 10.3995 17.45 10.7995 17.2083 11.0411L14.7417 13.5078C14.625 13.6328 14.4667 13.6911 14.3 13.6911Z" fill="black" />
</svg>
