<svg width="20" height="20" viewBox="0 0 20 20" fill="none" xmlns="http://www.w3.org/2000/svg">
	<path fill-rule="evenodd" clip-rule="evenodd" d="M3.33334 2.49935C3.33334 2.03911 3.70644 1.66602 4.16668 1.66602H11.6667C11.8877 1.66602 12.0997 1.75381 12.2559 1.91009L16.4226 6.07676C16.5789 6.23304 16.6667 6.445 16.6667 6.66602V15.8327C16.6667 17.2134 15.5474 18.3327 14.1667 18.3327H5.83334C4.45263 18.3327 3.33334 17.2134 3.33334 15.8327V2.49935ZM5.00001 3.33268V15.8327C5.00001 16.2929 5.37311 16.666 5.83334 16.666H14.1667C14.6269 16.666 15 16.2929 15 15.8327V7.01119L11.3215 3.33268H5.00001Z" fill="black" />
	<path fill-rule="evenodd" clip-rule="evenodd" d="M10 7.5V2.5H11.6667V6.66667H15.8333V8.33333H10.8333C10.3731 8.33333 10 7.96024 10 7.5Z" fill="black" />
	<path fill-rule="evenodd" clip-rule="evenodd" d="M6.66666 10.8333C6.66666 10.3731 7.03975 10 7.49999 10H12.5C12.9602 10 13.3333 10.3731 13.3333 10.8333C13.3333 11.2936 12.9602 11.6667 12.5 11.6667H7.49999C7.03975 11.6667 6.66666 11.2936 6.66666 10.8333Z" fill="black" />
	<path fill-rule="evenodd" clip-rule="evenodd" d="M6.66666 14.1673C6.66666 13.7071 7.03975 13.334 7.49999 13.334H12.5C12.9602 13.334 13.3333 13.7071 13.3333 14.1673C13.3333 14.6276 12.9602 15.0007 12.5 15.0007H7.49999C7.03975 15.0007 6.66666 14.6276 6.66666 14.1673Z" fill="black" />
</svg>
