<svg width="20" height="20" viewBox="0 0 20 20" fill="none" xmlns="http://www.w3.org/2000/svg">
	<path d="M3.33332 5.52857C3.44987 5.48145 3.58999 5.42941 3.75239 5.37692C4.32677 5.19127 5.1775 5.00065 6.24999 5.00065C7.32248 5.00065 8.17321 5.19127 8.74759 5.37692C8.90999 5.42941 9.05011 5.48145 9.16666 5.52857V14.5947C8.45731 14.3744 7.46679 14.1673 6.24999 14.1673C5.03319 14.1673 4.04267 14.3744 3.33332 14.5947V5.52857ZM9.99999 4.07172C9.81189 3.98831 9.56377 3.88917 9.2602 3.79104C8.54552 3.56004 7.52125 3.33398 6.24999 3.33398C4.97873 3.33398 3.95446 3.56004 3.23978 3.79104C2.88246 3.90654 2.60195 4.02345 2.40573 4.11445C2.30758 4.15997 2.23036 4.19908 2.17501 4.2284C2.14732 4.24306 2.12508 4.25528 2.10841 4.26464L2.08758 4.27649L2.08031 4.28071L2.07747 4.28238L2.07624 4.2831C2.07461 4.28407 1.87091 4.40478 2.07515 4.28374C1.82193 4.4338 1.66666 4.70631 1.66666 5.00065V15.834C1.66666 16.1334 1.82728 16.4098 2.08743 16.558C2.34741 16.7062 2.66683 16.7035 2.92433 16.5512C2.92206 16.5525 2.92063 16.5534 2.92063 16.5534L2.92173 16.5527L2.92303 16.552L2.92433 16.5512C2.9294 16.5483 2.93963 16.5427 2.95498 16.5346C2.98568 16.5184 3.03664 16.4924 3.10694 16.4598C3.24764 16.3945 3.46518 16.3031 3.75239 16.2103C4.32677 16.0246 5.1775 15.834 6.24999 15.834C7.32248 15.834 8.17321 16.0246 8.74759 16.2103C9.0348 16.3031 9.25234 16.3945 9.39304 16.4598C9.46334 16.4924 9.5143 16.5184 9.545 16.5346C9.56035 16.5427 9.57061 16.5484 9.57568 16.5513C9.57796 16.5526 9.57935 16.5534 9.57935 16.5534M9.57935 16.5534L9.57825 16.5527L9.57695 16.552L9.57568 16.5513C9.8373 16.7058 10.1628 16.7059 10.4243 16.5512C10.4294 16.5483 10.4396 16.5427 10.455 16.5346C10.4857 16.5184 10.5366 16.4924 10.6069 16.4598C10.7476 16.3945 10.9652 16.3031 11.2524 16.2103C11.8268 16.0246 12.6775 15.834 13.75 15.834C14.8225 15.834 15.6732 16.0246 16.2476 16.2103C16.5348 16.3031 16.7523 16.3945 16.893 16.4598C16.9633 16.4924 17.0143 16.5184 17.045 16.5346C17.0603 16.5427 17.0706 16.5484 17.0757 16.5513L17.0766 16.5517C17.3339 16.7035 17.6529 16.706 17.9126 16.558C18.1727 16.4098 18.3333 16.1334 18.3333 15.834V5.00065C18.3333 4.70631 18.178 4.4338 17.9248 4.28374L17.9237 4.2831L17.9225 4.28238L17.9197 4.28071L17.9124 4.27649L17.8916 4.26464C17.8749 4.25528 17.8527 4.24306 17.825 4.2284C17.7696 4.19908 17.6924 4.15997 17.5942 4.11445C17.398 4.02345 17.1175 3.90654 16.7602 3.79104C16.0455 3.56004 15.0212 3.33398 13.75 3.33398C12.4787 3.33398 11.4545 3.56004 10.7398 3.79104C10.4362 3.88917 10.1881 3.98831 9.99999 4.07172M16.6667 5.52857V14.5947C15.9573 14.3744 14.9668 14.1673 13.75 14.1673C12.5332 14.1673 11.5427 14.3744 10.8333 14.5947V5.52857C10.9499 5.48145 11.09 5.42941 11.2524 5.37692C11.8268 5.19127 12.6775 5.00065 13.75 5.00065C14.8225 5.00065 15.6732 5.19127 16.2476 5.37692C16.41 5.42941 16.5501 5.48145 16.6667 5.52857ZM17.0757 5.71795C17.0779 5.71922 17.0793 5.72002 17.0793 5.72002L17.0783 5.71939L17.0757 5.71795ZM17.0757 16.5513L17.0784 16.5528L17.0766 16.5517" fill="black" />
</svg>
