<svg width="20" height="20" viewBox="0 0 20 20" fill="none" xmlns="http://www.w3.org/2000/svg">
	<path fill-rule="evenodd" clip-rule="evenodd" d="M14.2333 2.38326C13.6806 2.26669 13.1076 2.25761 12.546 2.35993C11.6711 2.51934 10.8655 2.94162 10.2367 3.57047C9.60782 4.19933 9.18555 5.00491 9.02613 5.87984C8.86672 6.75478 8.97773 7.65752 9.34438 8.46776C9.45164 8.70477 9.40086 8.98342 9.21691 9.16737L3.45858 14.9257C3.24427 15.14 3.12387 15.4307 3.12387 15.7338C3.12387 16.0368 3.24427 16.3275 3.45858 16.5418C3.67289 16.7561 3.96356 16.8765 4.26664 16.8765C4.56972 16.8765 4.86039 16.7561 5.0747 16.5418L10.833 10.7835C11.017 10.5995 11.2956 10.5488 11.5326 10.656C12.3429 11.0227 13.2456 11.1337 14.1206 10.9743C14.9955 10.8149 15.8011 10.3926 16.4299 9.76372C17.0588 9.13486 17.4811 8.32929 17.6405 7.45435C17.7428 6.8928 17.7337 6.3198 17.6171 5.76715L15.1875 8.19679C14.9149 8.464 14.5484 8.61365 14.1666 8.61365C13.7849 8.61365 13.4184 8.46398 13.1458 8.19677L13.1413 8.1924L11.8036 6.85462C11.5364 6.58202 11.3868 6.21549 11.3868 5.83376C11.3868 5.45204 11.5364 5.08553 11.8036 4.81293L11.808 4.80847L14.2333 2.38326ZM12.322 1.13017C13.4469 0.92521 14.6076 1.06794 15.6493 1.53935C15.8362 1.62394 15.9697 1.79488 16.0065 1.99673C16.0433 2.19858 15.9787 2.40563 15.8336 2.55071L12.6949 5.68942C12.6576 5.7282 12.6368 5.77992 12.6368 5.83376C12.6368 5.8876 12.6576 5.93932 12.6949 5.9781L14.0223 7.30555C14.0611 7.34281 14.1128 7.36365 14.1666 7.36365C14.2205 7.36365 14.2722 7.34281 14.311 7.30556L17.4497 4.16682C17.5948 4.02174 17.8018 3.95711 18.0037 3.99389C18.2055 4.03066 18.3765 4.16417 18.4611 4.35109C18.9325 5.39283 19.0752 6.5535 18.8702 7.67842C18.6653 8.80333 18.1223 9.83907 17.3138 10.6476C16.5053 11.4561 15.4695 11.9991 14.3446 12.204C13.3642 12.3827 12.3565 12.2972 11.4241 11.9601L5.95858 17.4257C5.50985 17.8744 4.90124 18.1265 4.26664 18.1265C3.63204 18.1265 3.02343 17.8744 2.5747 17.4257C2.12597 16.977 1.87387 16.3684 1.87387 15.7338C1.87387 15.0992 2.12597 14.4906 2.5747 14.0418L8.04026 8.57626C7.70323 7.64388 7.61774 6.63625 7.79638 5.65578C8.00134 4.53086 8.54427 3.49512 9.3528 2.68659C10.1613 1.87806 11.1971 1.33514 12.322 1.13017Z" fill="black" />
</svg>
