<svg width="12" height="12" viewBox="0 0 12 12" fill="none" xmlns="http://www.w3.org/2000/svg">
	<path d="M0.410582 0.410093C0.736018 0.0846564 1.26366 0.0846564 1.58909 0.410093L5.99984 4.82084L10.4106 0.410093C10.736 0.0846564 11.2637 0.0846564 11.5891 0.410093C11.9145 0.73553 11.9145 1.26317 11.5891 1.5886L7.17835 5.99935L11.5891 10.4101C11.9145 10.7355 11.9145 11.2632 11.5891 11.5886C11.2637 11.914 10.736 11.914 10.4106 11.5886L5.99984 7.17786L1.58909 11.5886C1.26366 11.914 0.736018 11.914 0.410582 11.5886C0.0851447 11.2632 0.0851447 10.7355 0.410582 10.4101L4.82133 5.99935L0.410582 1.5886C0.0851447 1.26317 0.0851447 0.73553 0.410582 0.410093Z" fill="#F84949" />
</svg>
