<svg width="162" height="49" viewBox="0 0 162 49" fill="none" xmlns="http://www.w3.org/2000/svg">
	<g clip-path="url(#clip0_1386_3599)">
		<path d="M156 0.00292969H6.00034C2.68664 0.00292969 0.000366211 2.68921 0.000366211 6.0029V42.0027C0.000366211 45.3164 2.68664 48.0027 6.00034 48.0027H156C159.313 48.0027 162 45.3164 162 42.0027V6.0029C162 2.68921 159.313 0.00292969 156 0.00292969Z" fill="black" />
		<path d="M156 0.962685C157.336 0.964229 158.617 1.49576 159.562 2.44066C160.507 3.38556 161.038 4.66666 161.039 6.0029V42.0027C161.038 43.339 160.507 44.62 159.562 45.5649C158.617 46.5098 157.336 47.0414 156 47.0429H6.00034C4.66408 47.0414 3.383 46.5099 2.43815 45.565C1.4933 44.6201 0.961838 43.339 0.960361 42.0027V6.0029C0.961816 4.66664 1.49327 3.38552 2.43813 2.44062C3.38298 1.49572 4.66408 0.964203 6.00034 0.962685H156ZM156 0.00292969H6.00034C4.41048 0.00758338 2.88706 0.641216 1.76286 1.76542C0.638652 2.88963 0.00501991 4.41304 0.000366211 6.0029L0.000366211 42.0027C0.00501991 43.5926 0.638652 45.116 1.76286 46.2402C2.88706 47.3644 4.41048 47.998 6.00034 48.0027H156C157.589 47.998 159.113 47.3644 160.237 46.2402C161.361 45.116 161.995 43.5926 162 42.0027V6.0029C161.995 4.41304 161.361 2.88963 160.237 1.76542C159.113 0.641216 157.589 0.00758338 156 0.00292969Z" fill="#A6A6A6" />
		<path d="M56.9022 12.2953C56.924 12.7356 56.8559 13.1758 56.7022 13.589C56.5485 14.0022 56.3122 14.3798 56.0079 14.6988C55.6669 15.0525 55.255 15.3302 54.7992 15.5138C54.3434 15.6973 53.854 15.7826 53.363 15.764C52.8689 15.7684 52.3788 15.674 51.9217 15.4864C51.4646 15.2987 51.0496 15.0215 50.7011 14.6712C50.3526 14.3208 50.0777 13.9044 49.8924 13.4462C49.7072 12.9881 49.6154 12.4976 49.6225 12.0035C49.6155 11.5094 49.7073 11.0188 49.8925 10.5607C50.0778 10.1025 50.3527 9.68605 50.7012 9.33566C51.0496 8.98527 51.4646 8.70806 51.9217 8.5203C52.3788 8.33255 52.8689 8.23804 53.363 8.24233C53.8711 8.24079 54.374 8.34351 54.8408 8.54413C55.2743 8.71985 55.6602 8.9955 55.967 9.3486L55.3341 9.98196C55.0929 9.6981 54.7898 9.47345 54.448 9.32533C54.1063 9.17721 53.735 9.10959 53.363 9.12768C52.9885 9.12575 52.6175 9.19941 52.2721 9.34426C51.9268 9.48911 51.6142 9.70218 51.3532 9.97069C51.0921 10.2392 50.8879 10.5576 50.7528 10.9069C50.6177 11.2562 50.5546 11.6292 50.567 12.0035C50.5581 12.5641 50.7159 13.1148 51.0203 13.5856C51.3247 14.0565 51.7621 14.4263 52.277 14.6483C52.792 14.8702 53.3612 14.9342 53.9125 14.8322C54.4639 14.7303 54.9725 14.4668 55.374 14.0754C55.7434 13.6773 55.9576 13.1597 55.9774 12.6169H53.363V11.7521H56.8518C56.8847 11.9313 56.9016 12.1131 56.9022 12.2953Z" fill="white" stroke="white" stroke-width="0.2" stroke-miterlimit="10" />
		<path d="M62.4333 9.28808H59.1545V11.5708H62.1111V12.4358H59.1545V14.7185H62.4333V15.6033H58.2299V8.40332H62.4333V9.28808Z" fill="white" stroke="white" stroke-width="0.2" stroke-miterlimit="10" />
		<path d="M66.3344 15.6033H65.4086V9.28808H63.3977V8.40332H68.3454V9.28808H66.3344V15.6033Z" fill="white" stroke="white" stroke-width="0.2" stroke-miterlimit="10" />
		<path d="M71.9255 15.6033V8.40332H72.8501V15.6033H71.9255Z" fill="white" stroke="white" stroke-width="0.2" stroke-miterlimit="10" />
		<path d="M76.954 15.6033H76.0282V9.28808H74.0173V8.40332H78.9649V9.28808H76.954V15.6033Z" fill="white" stroke="white" stroke-width="0.2" stroke-miterlimit="10" />
		<path d="M88.3311 14.6728C87.6303 15.3715 86.6811 15.7639 85.6915 15.7639C84.7019 15.7639 83.7527 15.3715 83.0519 14.6728C82.7052 14.3217 82.4326 13.9044 82.2504 13.4458C82.0682 12.9872 81.9801 12.4967 81.9913 12.0033C81.9801 11.51 82.0682 11.0194 82.2504 10.5608C82.4326 10.1023 82.7052 9.68497 83.0519 9.33382C83.3982 8.98734 83.8096 8.71258 84.2623 8.52527C84.715 8.33795 85.2002 8.24175 85.6901 8.24219C86.18 8.24262 86.6651 8.33968 87.1175 8.5278C87.5698 8.71592 87.9807 8.99141 88.3264 9.3385C88.6734 9.68873 88.9464 10.1051 89.1294 10.5628C89.3124 11.0206 89.4016 11.5104 89.3917 12.0033C89.4026 12.4966 89.3143 12.9871 89.1321 13.4456C88.9499 13.9042 88.6776 14.3215 88.3311 14.6728ZM83.735 14.07C84.254 14.5881 84.9575 14.8791 85.6909 14.8791C86.4243 14.8791 87.1277 14.5881 87.6468 14.07C87.9129 13.7975 88.1211 13.4738 88.2586 13.1186C88.3962 12.7634 88.4603 12.384 88.4471 12.0033C88.4603 11.6226 88.3962 11.2432 88.2586 10.888C88.1211 10.5328 87.9129 10.2092 87.6468 9.9367C87.1277 9.41855 86.4243 9.12753 85.6909 9.12753C84.9575 9.12753 84.254 9.41855 83.735 9.9367C83.4692 10.2094 83.2614 10.5331 83.1241 10.8883C82.9867 11.2434 82.9227 11.6228 82.9358 12.0033C82.9227 12.3839 82.9867 12.7632 83.1241 13.1184C83.2614 13.4736 83.4692 13.7972 83.735 14.07Z" fill="white" stroke="white" stroke-width="0.2" stroke-miterlimit="10" />
		<path d="M90.6901 15.6033V8.40332H91.8163L95.3154 14.0043H95.3553L95.3154 12.6167V8.40332H96.2412V15.6033H95.2756L91.6146 9.73099H91.5748L91.6146 11.1185V15.6033H90.6901Z" fill="white" stroke="white" stroke-width="0.2" stroke-miterlimit="10" />
		<path d="M81.7629 26.105C80.7543 26.1089 79.7694 26.4114 78.9327 26.9746C78.0959 27.5377 77.4447 28.3362 77.0614 29.2691C76.6781 30.202 76.5798 31.2276 76.7789 32.2164C76.978 33.2051 77.4656 34.1127 78.1802 34.8246C78.8947 35.5364 79.8042 36.0206 80.7937 36.2159C81.7832 36.4113 82.8084 36.3091 83.7399 35.9222C84.6713 35.5353 85.4673 34.8812 86.0273 34.0423C86.5872 33.2034 86.886 32.2174 86.886 31.2087C86.8959 30.5341 86.77 29.8644 86.5159 29.2394C86.2617 28.6145 85.8843 28.047 85.4064 27.5709C84.9284 27.0947 84.3595 26.7196 83.7336 26.4677C83.1076 26.2159 82.4375 26.0926 81.7629 26.105ZM81.7629 34.302C81.1418 34.3463 80.5217 34.2025 79.9833 33.8894C79.445 33.5764 79.0135 33.1085 78.7448 32.5467C78.4761 31.9849 78.3828 31.3553 78.477 30.7397C78.5712 30.1242 78.8486 29.5512 79.2729 29.0955C79.6973 28.6398 80.2491 28.3224 80.8564 28.1846C81.4637 28.0469 82.0984 28.0951 82.6778 28.3232C83.2573 28.5512 83.7547 28.9484 84.1053 29.4631C84.4558 29.9777 84.6433 30.586 84.6434 31.2087C84.6622 31.6021 84.6022 31.9953 84.4668 32.3652C84.3313 32.735 84.1233 33.0741 83.8549 33.3623C83.5865 33.6505 83.2631 33.8822 82.9039 34.0435C82.5446 34.2049 82.1566 34.2928 81.7629 34.302ZM70.5869 26.105C69.5783 26.1088 68.5934 26.4114 67.7566 26.9745C66.9198 27.5376 66.2686 28.3361 65.8853 29.269C65.502 30.2019 65.4036 31.2275 65.6027 32.2163C65.8018 33.2051 66.2894 34.1127 67.004 34.8245C67.7185 35.5364 68.628 36.0206 69.6175 36.2159C70.607 36.4113 71.6322 36.3091 72.5637 35.9222C73.4952 35.5354 74.2911 34.8812 74.8511 34.0423C75.4111 33.2034 75.7099 32.2174 75.7099 31.2087C75.7198 30.5341 75.5939 29.8644 75.3397 29.2395C75.0855 28.6145 74.7082 28.0471 74.2303 27.5709C73.7523 27.0947 73.1834 26.7196 72.5575 26.4678C71.9316 26.2159 71.2614 26.0926 70.5869 26.105ZM70.5869 34.302C69.9657 34.3463 69.3456 34.2025 68.8073 33.8894C68.269 33.5764 67.8374 33.1085 67.5688 32.5467C67.3001 31.9849 67.2068 31.3553 67.301 30.7397C67.3952 30.1242 67.6725 29.5512 68.0969 29.0955C68.5213 28.6398 69.073 28.3224 69.6803 28.1846C70.2876 28.0469 70.9223 28.0951 71.5018 28.3232C72.0813 28.5512 72.5787 28.9484 72.9293 29.4631C73.2798 29.9777 73.4673 30.586 73.4673 31.2087C73.4862 31.6021 73.4262 31.9954 73.2908 32.3652C73.1553 32.7351 72.9473 33.0741 72.6789 33.3623C72.4105 33.6506 72.0871 33.8822 71.7278 34.0436C71.3686 34.2049 70.9806 34.2928 70.5869 34.302ZM57.2924 27.671V29.8362H62.4736C62.3988 30.8517 61.9833 31.8123 61.2942 32.5621C60.775 33.0913 60.1506 33.5058 59.4613 33.7789C58.772 34.0519 58.0332 34.1774 57.2924 34.1473C55.778 34.1268 54.3325 33.5108 53.2688 32.4326C52.2052 31.3544 51.6088 29.9008 51.6088 28.3862C51.6088 26.8717 52.2052 25.418 53.2688 24.3399C54.3325 23.2617 55.778 22.6457 57.2924 22.6252C58.747 22.6062 60.1504 23.1619 61.1976 24.1717L62.7249 22.6445C62.0103 21.9371 61.1618 21.3795 60.2289 21.0044C59.2961 20.6293 58.2977 20.4441 57.2924 20.4599C56.2418 20.4446 55.1986 20.6383 54.2235 21.0298C53.2485 21.4213 52.3609 22.0027 51.6126 22.7402C50.8642 23.4778 50.2699 24.3567 49.8643 25.326C49.4587 26.2953 49.2498 27.3355 49.2498 28.3862C49.2498 29.437 49.4587 30.4772 49.8643 31.4465C50.2699 32.4157 50.8642 33.2947 51.6126 34.0322C52.3609 34.7698 53.2485 35.3512 54.2235 35.7427C55.1986 36.1341 56.2418 36.3278 57.2924 36.3126C58.3189 36.3551 59.3428 36.1789 60.296 35.7956C61.2493 35.4123 62.1101 34.8307 62.8215 34.0893C64.0843 32.7108 64.7575 30.8928 64.6968 29.0243C64.7018 28.5705 64.6629 28.1173 64.5807 27.671H57.2924ZM111.662 29.3528C111.355 28.4284 110.771 27.6208 109.99 27.0397C109.208 26.4587 108.266 26.1323 107.293 26.105C106.637 26.1091 105.989 26.2461 105.388 26.5078C104.786 26.7694 104.244 27.1503 103.794 27.6273C103.345 28.1044 102.996 28.6677 102.77 29.2833C102.544 29.8989 102.445 30.5539 102.479 31.2087C102.464 31.8798 102.585 32.5469 102.834 33.1702C103.083 33.7936 103.455 34.3604 103.927 34.8368C104.4 35.3132 104.964 35.6894 105.586 35.9429C106.207 36.1965 106.873 36.3222 107.544 36.3126C108.385 36.3172 109.214 36.113 109.956 35.7182C110.698 35.3234 111.331 34.7504 111.797 34.0507L110.057 32.8908C109.797 33.3236 109.428 33.6813 108.987 33.9287C108.547 34.1761 108.05 34.3047 107.544 34.302C107.024 34.3218 106.51 34.185 106.069 33.9093C105.628 33.6335 105.28 33.2315 105.07 32.7554L111.894 29.9329L111.662 29.3528ZM104.702 31.0542C104.678 30.6827 104.729 30.3102 104.85 29.9584C104.972 29.6066 105.163 29.2826 105.411 29.0054C105.66 28.7281 105.961 28.5032 106.297 28.3438C106.633 28.1844 106.998 28.0937 107.37 28.077C107.757 28.0515 108.144 28.1406 108.48 28.3331C108.817 28.5256 109.09 28.8131 109.265 29.1596L104.702 31.0542ZM99.1539 36.0032H101.396V21.0014H99.1539V36.0032ZM95.4807 27.2456H95.4035C95.0625 26.8752 94.6464 26.5818 94.183 26.3851C93.7196 26.1885 93.2195 26.093 92.7162 26.105C91.4002 26.1611 90.1566 26.7233 89.2452 27.6743C88.3338 28.6253 87.825 29.8916 87.825 31.2088C87.825 32.526 88.3338 33.7923 89.2452 34.7433C90.1566 35.6943 91.4002 36.2565 92.7162 36.3126C93.2215 36.326 93.7236 36.2292 94.1877 36.0289C94.6518 35.8286 95.0667 35.5296 95.4035 35.1526H95.4807V35.8873C95.4807 37.8399 94.4369 38.8838 92.7548 38.8838C92.1943 38.8704 91.6504 38.6904 91.1925 38.3667C90.7346 38.0431 90.3834 37.5905 90.1837 37.0665L88.2311 37.8785C88.5991 38.7745 89.2263 39.5403 90.0322 40.0776C90.8382 40.6149 91.7862 40.8993 92.7548 40.8944C95.3841 40.8944 97.6074 39.3478 97.6074 35.5779V26.4143H95.4807V27.2456ZM92.9096 34.302C92.1345 34.2362 91.4123 33.8819 90.886 33.3091C90.3597 32.7362 90.0676 31.9867 90.0676 31.2088C90.0676 30.4309 90.3597 29.6814 90.886 29.1085C91.4123 28.5357 92.1345 28.1814 92.9096 28.1156C93.2953 28.1345 93.6732 28.2307 94.0208 28.3987C94.3684 28.5667 94.6786 28.803 94.933 29.0934C95.1874 29.3839 95.3806 29.7226 95.5013 30.0893C95.622 30.456 95.6676 30.8433 95.6354 31.2281C95.6656 31.6104 95.6183 31.9949 95.4964 32.3586C95.3745 32.7222 95.1806 33.0576 94.9261 33.3446C94.6716 33.6315 94.3619 33.8642 94.0154 34.0287C93.6689 34.1932 93.2929 34.2862 92.9096 34.302ZM122.167 21.0016H116.801V36.0032H119.04V30.3195H122.167C122.8 30.3543 123.434 30.2595 124.029 30.0411C124.625 29.8226 125.169 29.485 125.63 29.049C126.09 28.613 126.457 28.0876 126.708 27.505C126.959 26.9224 127.088 26.2948 127.088 25.6606C127.088 25.0263 126.959 24.3987 126.708 23.8161C126.457 23.2335 126.09 22.7082 125.63 22.2721C125.169 21.8361 124.625 21.4985 124.029 21.2801C123.434 21.0616 122.8 20.9669 122.167 21.0016ZM122.225 28.2318H119.04V23.0895H122.225C122.567 23.0824 122.907 23.1436 123.225 23.2697C123.543 23.3957 123.833 23.5839 124.077 23.8234C124.322 24.0629 124.516 24.3487 124.649 24.6642C124.781 24.9797 124.85 25.3184 124.85 25.6606C124.85 26.0028 124.781 26.3416 124.649 26.6571C124.516 26.9726 124.322 27.2584 124.077 27.4978C123.833 27.7373 123.543 27.9256 123.225 28.0516C122.907 28.1776 122.567 28.2389 122.225 28.2318ZM136.062 26.0774C135.245 26.0297 134.432 26.2216 133.722 26.6296C133.013 27.0376 132.437 27.6439 132.067 28.3741L134.055 29.204C134.252 28.8416 134.551 28.5445 134.914 28.3491C135.278 28.1537 135.69 28.0685 136.101 28.1039C136.669 28.0484 137.236 28.2204 137.677 28.5822C138.119 28.944 138.399 29.466 138.456 30.0338V30.1883C137.737 29.8063 136.935 29.6074 136.12 29.6093C133.978 29.6093 131.797 30.7866 131.797 32.9868C131.818 33.4505 131.932 33.9052 132.132 34.3241C132.332 34.743 132.614 35.1175 132.961 35.4253C133.308 35.7331 133.714 35.968 134.154 36.116C134.594 36.264 135.059 36.3222 135.522 36.287C136.086 36.3202 136.648 36.2016 137.151 35.9436C137.653 35.6857 138.077 35.2977 138.378 34.8202H138.456V35.9782H140.617V30.2269C140.617 27.5635 138.629 26.0774 136.062 26.0774ZM135.792 34.2991C135.059 34.2991 134.036 33.9325 134.036 33.0253C134.036 31.8674 135.31 31.4234 136.41 31.4234C137.124 31.4044 137.831 31.5777 138.456 31.9253C138.373 32.5759 138.058 33.1748 137.569 33.6112C137.079 34.0476 136.448 34.292 135.792 34.2991ZM148.492 26.4055L145.925 32.9095H145.847L143.184 26.4055H140.772L144.767 35.4957L142.489 40.5523H144.824L150.981 26.4055H148.492ZM128.323 36.0032H130.562V21.0016H128.323V36.0032Z" fill="white" />
		<path d="M12.5227 9.04903C12.1292 9.51952 11.9305 10.1227 11.9673 10.7349V37.2741C11.9304 37.8863 12.1291 38.4895 12.5227 38.96L12.6115 39.0465L27.4782 24.1799V23.8291L12.6115 8.96191L12.5227 9.04903Z" fill="url(#paint0_linear_1386_3599)" />
		<path d="M32.4335 29.1369L27.4782 24.1793V23.8285L32.4347 18.8721L32.5464 18.9358L38.4177 22.2719C40.0948 23.2247 40.0948 24.7837 38.4177 25.7371L32.5464 29.0732L32.4335 29.1369Z" fill="url(#paint1_linear_1386_3599)" />
		<path d="M32.5463 29.0726L27.4782 24.0039L12.5226 38.9593C12.8644 39.2607 13.3008 39.4331 13.7562 39.4465C14.2116 39.46 14.6574 39.3137 15.0164 39.033L32.5463 29.0726Z" fill="url(#paint2_linear_1386_3599)" />
		<path d="M32.5463 18.9353L15.0164 8.97492C14.6574 8.69423 14.2116 8.54794 13.7562 8.5614C13.3008 8.57486 12.8644 8.74721 12.5226 9.0486L27.4782 24.0041L32.5463 18.9353Z" fill="url(#paint3_linear_1386_3599)" />
		<path opacity="0.2" d="M32.4346 28.9609L15.0164 38.8576C14.6713 39.1204 14.2501 39.2637 13.8163 39.266C13.3826 39.2683 12.9599 39.1295 12.612 38.8705L12.5226 38.9599L12.6114 39.0464L12.612 39.0458C12.9599 39.305 13.3826 39.4439 13.8163 39.4416C14.2501 39.4392 14.6713 39.2958 15.0164 39.033L32.5463 29.0725L32.4346 28.9609Z" fill="black" />
		<path opacity="0.12" d="M12.5226 38.7845C12.1292 38.314 11.9305 37.7109 11.9673 37.0986V37.274C11.9305 37.8862 12.1292 38.4893 12.5226 38.9598L12.612 38.8704L12.5226 38.7845Z" fill="black" />
		<path opacity="0.12" d="M38.4177 25.5616L32.4346 28.9615L32.5464 29.0731L38.4177 25.737C38.7631 25.5871 39.0619 25.3473 39.2832 25.0427C39.5044 24.7381 39.6399 24.3797 39.6756 24.0049C39.6014 24.3443 39.449 24.6617 39.2307 24.932C39.0123 25.2022 38.7339 25.4178 38.4177 25.5616Z" fill="black" />
		<path opacity="0.25" d="M15.0164 9.15055L38.4177 22.4465C38.7341 22.5903 39.0125 22.806 39.2309 23.0763C39.4493 23.3467 39.6016 23.6643 39.6756 24.0038C39.6402 23.6289 39.5048 23.2703 39.2835 22.9655C39.0622 22.6608 38.7632 22.421 38.4177 22.2712L15.0164 8.97523C13.3392 8.02231 11.9673 8.81383 11.9673 10.7348V10.9101C11.9673 8.98927 13.3392 8.19775 15.0164 9.15055Z" fill="white" />
	</g>
	<defs>
		<linearGradient id="paint0_linear_1386_3599" x1="26.1598" y1="10.4551" x2="6.02102" y2="30.5939" gradientUnits="userSpaceOnUse">
			<stop stop-color="#00A0FF" />
			<stop offset="0.00657" stop-color="#00A1FF" />
			<stop offset="0.2601" stop-color="#00BEFF" />
			<stop offset="0.5122" stop-color="#00D2FF" />
			<stop offset="0.7604" stop-color="#00DFFF" />
			<stop offset="1" stop-color="#00E3FF" />
		</linearGradient>
		<linearGradient id="paint1_linear_1386_3599" x1="40.6013" y1="24.0045" x2="11.5652" y2="24.0045" gradientUnits="userSpaceOnUse">
			<stop stop-color="#FFE000" />
			<stop offset="0.4087" stop-color="#FFBD00" />
			<stop offset="0.7754" stop-color="#FFA500" />
			<stop offset="1" stop-color="#FF9C00" />
		</linearGradient>
		<linearGradient id="paint2_linear_1386_3599" x1="29.7924" y1="26.758" x2="2.48262" y2="54.0678" gradientUnits="userSpaceOnUse">
			<stop stop-color="#FF3A44" />
			<stop offset="1" stop-color="#C31162" />
		</linearGradient>
		<linearGradient id="paint3_linear_1386_3599" x1="8.75698" y1="0.214456" x2="20.9519" y2="12.4094" gradientUnits="userSpaceOnUse">
			<stop stop-color="#32A071" />
			<stop offset="0.0685" stop-color="#2DA771" />
			<stop offset="0.4762" stop-color="#15CF74" />
			<stop offset="0.8009" stop-color="#06E775" />
			<stop offset="1" stop-color="#00F076" />
		</linearGradient>
		<clipPath id="clip0_1386_3599">
			<rect width="161.999" height="48" fill="white" transform="translate(0.000366211 0.00292969)" />
		</clipPath>
	</defs>
</svg>
