<svg width="162" height="49" viewBox="0 0 162 49" fill="none" xmlns="http://www.w3.org/2000/svg">
	<g clip-path="url(#clip0_1386_3620)">
		<path d="M149.099 0.00308569H12.9075C12.4111 0.00308569 11.9206 0.00308569 11.4255 0.00548569C11.011 0.00788569 10.5999 0.0148577 10.1814 0.0207257C9.27237 0.0302079 8.36546 0.101097 7.46857 0.232778C6.57293 0.367325 5.70535 0.620985 4.89517 0.985178C4.08599 1.35245 3.34661 1.82969 2.70386 2.39957C2.05774 2.96785 1.51915 3.62471 1.1088 4.34488C0.697316 5.06362 0.411992 5.83381 0.262682 6.62886C0.111952 7.42291 0.0308431 8.22611 0.0200827 9.03126C0.0075195 9.39918 0.00619279 9.76833 -0.000427246 10.1363V37.8734C0.00619279 38.246 0.0075195 38.607 0.0200827 38.9797C0.0308464 39.7848 0.111955 40.588 0.262682 41.382C0.41158 42.1775 0.696921 42.9481 1.1088 43.6671C1.51897 44.385 2.05763 45.0392 2.70386 45.6043C3.34417 46.1767 4.08403 46.6543 4.89517 47.0187C5.70535 47.3839 6.57283 47.6391 7.46857 47.7757C8.36561 47.9063 9.27243 47.9772 10.1814 47.9878C10.5999 47.996 11.011 48.0007 11.4255 48.0007C11.9206 48.0031 12.4111 48.0031 12.9075 48.0031H149.099C149.585 48.0031 150.08 48.0031 150.566 48.0007C150.979 48.0007 151.402 47.996 151.814 47.9878C152.722 47.9778 153.627 47.9069 154.522 47.7757C155.421 47.6381 156.291 47.383 157.105 47.0187C157.916 46.6541 158.655 46.1765 159.295 45.6043C159.939 45.037 160.479 44.3832 160.894 43.6671C161.303 42.9476 161.586 42.177 161.732 41.382C161.883 40.5879 161.967 39.7849 161.984 38.9797C161.989 38.607 161.989 38.246 161.989 37.8734C162 37.4374 162 37.0039 162 36.5608V11.4464C162 11.007 162 10.5711 161.989 10.1363C161.989 9.76833 161.989 9.39918 161.984 9.03121C161.967 8.22599 161.883 7.42297 161.732 6.62881C161.585 5.83422 161.303 5.06409 160.894 4.34483C160.059 2.90132 158.734 1.72632 157.105 0.98507C156.291 0.621767 155.421 0.368174 154.522 0.23267C153.627 0.100409 152.722 0.029495 151.814 0.0205577C151.402 0.0147017 150.979 0.00766969 150.566 0.00532969C150.08 0.00292969 149.585 0.00292969 149.099 0.00292969V0.00308569Z" fill="#A6A6A6" />
		<path d="M11.3155 46.9565C10.9024 46.9565 10.4991 46.9518 10.0892 46.9436C9.23997 46.9338 8.39272 46.8684 7.55441 46.7479C6.77273 46.6287 6.01548 46.4071 5.30766 46.0903C4.60633 45.7761 3.96666 45.3641 3.41315 44.8701C2.85163 44.3819 2.38414 43.8157 2.02921 43.1939C1.67036 42.5681 1.42202 41.8973 1.29283 41.2049C1.15332 40.4609 1.07783 39.7085 1.06703 38.9544C1.05844 38.7013 1.04718 37.8585 1.04718 37.8585V10.132C1.04718 10.132 1.05917 9.30212 1.0671 9.05831C1.07744 8.30537 1.15249 7.55422 1.29158 6.81136C1.42101 6.11704 1.66954 5.44429 2.02858 4.81642C2.38221 4.19507 2.84711 3.62845 3.40524 3.13853C3.96275 2.64395 4.60447 2.22985 5.307 1.91131C6.01319 1.5955 6.769 1.37542 7.54911 1.25844C8.39018 1.1367 9.24036 1.07088 10.0925 1.06153L11.3162 1.04688H150.684L151.922 1.06212C152.766 1.071 153.609 1.13623 154.442 1.25727C155.23 1.37571 155.994 1.59733 156.708 1.91482C158.115 2.55677 159.261 3.5724 159.983 4.81935C160.336 5.44289 160.581 6.11014 160.709 6.79847C160.85 7.54742 160.928 8.30448 160.945 9.06359C160.948 9.4035 160.948 9.76862 160.948 10.132C160.959 10.5821 160.959 11.0105 160.959 11.4424V36.5621C160.959 36.9981 160.959 37.4236 160.948 37.8526C160.948 38.2429 160.948 38.6004 160.943 38.9684C160.927 39.714 160.85 40.4576 160.711 41.1931C160.585 41.8905 160.338 42.5666 159.979 43.1975C159.622 43.8126 159.157 44.3739 158.602 44.8607C158.048 45.3574 157.407 45.7718 156.704 46.088C155.992 46.4072 155.229 46.6297 154.442 46.7479C153.604 46.869 152.756 46.9345 151.907 46.9436C151.51 46.9518 151.094 46.9565 150.69 46.9565L149.22 46.9589L11.3155 46.9565Z" fill="black" />
		<path d="M39.3563 24.3647C39.3692 23.3631 39.6353 22.381 40.1297 21.5099C40.6241 20.6388 41.3309 19.9068 42.1842 19.3822C41.6421 18.608 40.927 17.9709 40.0956 17.5214C39.2642 17.072 38.3394 16.8226 37.3948 16.793C35.3797 16.5815 33.4262 17.9988 32.3993 17.9988C31.3526 17.9988 29.7716 16.814 28.0691 16.849C26.9679 16.8846 25.8947 17.2048 24.954 17.7785C24.0134 18.3522 23.2374 19.1597 22.7016 20.1225C20.3808 24.1406 22.1119 30.0458 24.3351 33.2938C25.4473 34.8842 26.7473 36.6607 28.4482 36.5977C30.1127 36.5287 30.7343 35.5364 32.7435 35.5364C34.734 35.5364 35.3172 36.5977 37.0527 36.5577C38.8388 36.5287 39.9641 34.9602 41.0373 33.3547C41.8365 32.2215 42.4514 30.969 42.8594 29.6437C41.8218 29.2048 40.9363 28.4702 40.3133 27.5315C39.6904 26.5927 39.3575 25.4913 39.3563 24.3647Z" fill="white" />
		<path d="M36.0784 14.6565C37.0522 13.4875 37.532 11.9849 37.4158 10.4678C35.928 10.624 34.5537 11.3351 33.5667 12.4593C33.0841 13.0085 32.7145 13.6474 32.479 14.3396C32.2435 15.0317 32.1468 15.7634 32.1942 16.493C32.9384 16.5006 33.6746 16.3393 34.3474 16.0212C35.0202 15.7031 35.612 15.2365 36.0784 14.6565Z" fill="white" />
		<path d="M60.3964 32.5711H54.7163L53.3523 36.5989H50.9464L56.3265 21.6973H58.8261L64.2062 36.5989H61.7593L60.3964 32.5711ZM55.3046 30.7125H59.807L57.5875 24.1758H57.5254L55.3046 30.7125Z" fill="white" />
		<path d="M75.8253 31.1676C75.8253 34.5438 74.0183 36.7129 71.2913 36.7129C70.6006 36.7491 69.9136 36.59 69.309 36.2538C68.7045 35.9176 68.2068 35.418 67.873 34.8121H67.8214V40.1934H65.5913V25.7348H67.7499V27.5419H67.791C68.1401 26.9389 68.6462 26.4419 69.2553 26.1036C69.8645 25.7654 70.5539 25.5987 71.2503 25.6211C74.0077 25.6212 75.8253 27.8008 75.8253 31.1676ZM73.5331 31.1676C73.5331 28.968 72.3964 27.5219 70.662 27.5219C68.9581 27.5219 67.812 28.9985 67.812 31.1676C67.812 33.3567 68.9581 34.8227 70.662 34.8227C72.3964 34.8227 73.5331 33.3872 73.5331 31.1676Z" fill="white" />
		<path d="M87.7831 31.1676C87.7831 34.5438 85.9761 36.7129 83.2492 36.7129C82.5584 36.7491 81.8714 36.5899 81.2668 36.2538C80.6623 35.9176 80.1646 35.418 79.8308 34.8121H79.7792V40.1934H77.5491V25.7348H79.7077V27.5418H79.7487C80.0979 26.9389 80.604 26.4419 81.2131 26.1036C81.8223 25.7654 82.5117 25.5987 83.2081 25.6211C85.9656 25.6211 87.7831 27.8008 87.7831 31.1676ZM85.491 31.1676C85.491 28.968 84.3542 27.5219 82.6199 27.5219C80.916 27.5219 79.7699 28.9985 79.7699 31.1676C79.7699 33.3567 80.916 34.8227 82.6199 34.8227C84.3542 34.8227 85.491 33.3872 85.491 31.1676H85.491Z" fill="white" />
		<path d="M95.6863 32.4473C95.8515 33.9251 97.2871 34.8953 99.2488 34.8953C101.128 34.8953 102.481 33.925 102.481 32.5926C102.481 31.4359 101.665 30.7434 99.7339 30.2688L97.8027 29.8035C95.0664 29.1426 93.7961 27.8629 93.7961 25.7863C93.7961 23.2152 96.0367 21.4492 99.2183 21.4492C102.367 21.4492 104.526 23.2152 104.598 25.7863H102.347C102.212 24.2992 100.983 23.4016 99.1867 23.4016C97.3902 23.4016 96.1609 24.3098 96.1609 25.6316C96.1609 26.6852 96.946 27.3051 98.8667 27.7797L100.509 28.1828C103.566 28.9058 104.836 30.134 104.836 32.3136C104.836 35.1015 102.616 36.8476 99.0835 36.8476C95.7788 36.8476 93.5476 35.1425 93.4034 32.4472L95.6863 32.4473Z" fill="white" />
		<path d="M109.649 23.1641V25.7352H111.715V27.5012H109.649V33.4906C109.649 34.4211 110.063 34.8547 110.971 34.8547C111.216 34.8504 111.461 34.8332 111.705 34.8031V36.5586C111.296 36.6349 110.881 36.6694 110.466 36.6617C108.266 36.6617 107.409 35.8355 107.409 33.7285V27.5012H105.829V25.7352H107.409V23.1641H109.649Z" fill="white" />
		<path d="M112.912 31.168C112.912 27.7496 114.925 25.6016 118.064 25.6016C121.214 25.6016 123.218 27.7496 123.218 31.168C123.218 34.5957 121.225 36.7344 118.064 36.7344C114.905 36.7344 112.912 34.5957 112.912 31.168ZM120.946 31.168C120.946 28.823 119.872 27.4391 118.064 27.4391C116.257 27.4391 115.184 28.8336 115.184 31.168C115.184 33.5223 116.257 34.8957 118.064 34.8957C119.872 34.8957 120.946 33.5223 120.946 31.168H120.946Z" fill="white" />
		<path d="M125.057 25.7347H127.184V27.5839H127.236C127.379 27.0064 127.718 26.496 128.194 26.1385C128.67 25.7811 129.254 25.5983 129.849 25.621C130.106 25.6201 130.362 25.648 130.613 25.7042V27.7902C130.288 27.691 129.95 27.6455 129.611 27.6554C129.287 27.6423 128.964 27.6994 128.664 27.8229C128.364 27.9463 128.095 28.1332 127.874 28.3707C127.653 28.6081 127.486 28.8906 127.385 29.1986C127.284 29.5066 127.25 29.8329 127.287 30.155V36.5992H125.057L125.057 25.7347Z" fill="white" />
		<path d="M140.895 33.4086C140.595 35.3809 138.674 36.7344 136.217 36.7344C133.056 36.7344 131.094 34.6168 131.094 31.2195C131.094 27.8117 133.067 25.6016 136.123 25.6016C139.129 25.6016 141.019 27.6664 141.019 30.9605V31.7246H133.346V31.8594C133.31 32.2592 133.36 32.662 133.493 33.041C133.625 33.42 133.836 33.7666 134.112 34.0576C134.389 34.3487 134.724 34.5776 135.096 34.7292C135.467 34.8807 135.867 34.9515 136.268 34.9367C136.795 34.9861 137.324 34.864 137.776 34.5887C138.228 34.3134 138.579 33.8995 138.777 33.4086L140.895 33.4086ZM133.356 30.166H138.788C138.808 29.8065 138.753 29.4467 138.628 29.1093C138.502 28.7718 138.308 28.464 138.058 28.2051C137.808 27.9461 137.507 27.7417 137.174 27.6047C136.841 27.4676 136.483 27.4009 136.123 27.4086C135.76 27.4064 135.4 27.4762 135.064 27.6139C134.728 27.7516 134.422 27.9545 134.165 28.2108C133.908 28.4672 133.704 28.7719 133.565 29.1075C133.426 29.4431 133.355 29.8029 133.356 30.166V30.166Z" fill="white" />
		<path d="M55.0251 10.4808C55.4926 10.4472 55.9618 10.5179 56.3987 10.6876C56.8357 10.8573 57.2295 11.1219 57.5518 11.4622C57.8741 11.8026 58.1168 12.2102 58.2625 12.6557C58.4082 13.1013 58.4532 13.5736 58.3942 14.0386C58.3942 16.3261 57.1579 17.641 55.0251 17.641H52.4388V10.4808H55.0251ZM53.5509 16.6284H54.9009C55.235 16.6484 55.5693 16.5936 55.8795 16.468C56.1898 16.3425 56.4681 16.1494 56.6943 15.9027C56.9205 15.656 57.0889 15.362 57.1871 15.0421C57.2853 14.7221 57.311 14.3843 57.2622 14.0532C57.3075 13.7234 57.2792 13.3877 57.1795 13.0701C57.0797 12.7525 56.911 12.4609 56.6853 12.2161C56.4596 11.9714 56.1826 11.7797 55.8741 11.6546C55.5656 11.5295 55.2333 11.4742 54.9009 11.4926H53.5509V16.6284Z" fill="white" />
		<path d="M59.6505 14.9365C59.6165 14.5814 59.6571 14.2231 59.7697 13.8846C59.8824 13.5461 60.0645 13.2349 60.3044 12.9709C60.5443 12.7069 60.8368 12.496 61.163 12.3517C61.4892 12.2074 61.842 12.1328 62.1987 12.1328C62.5554 12.1328 62.9082 12.2074 63.2345 12.3517C63.5607 12.496 63.8531 12.7069 64.0931 12.9709C64.333 13.2349 64.5151 13.5461 64.6277 13.8846C64.7403 14.2231 64.7809 14.5814 64.747 14.9365C64.7816 15.2919 64.7414 15.6507 64.6291 15.9897C64.5168 16.3288 64.3348 16.6406 64.0948 16.905C63.8548 17.1695 63.5622 17.3809 63.2356 17.5255C62.9091 17.6702 62.5559 17.7449 62.1987 17.7449C61.8416 17.7449 61.4884 17.6702 61.1618 17.5255C60.8353 17.3809 60.5426 17.1695 60.3026 16.905C60.0626 16.6406 59.8806 16.3288 59.7683 15.9897C59.656 15.6507 59.6159 15.2919 59.6505 14.9365ZM63.6501 14.9365C63.6501 13.7652 63.1239 13.0802 62.2005 13.0802C61.2735 13.0802 60.7521 13.7652 60.7521 14.9365C60.7521 16.1171 61.2736 16.7968 62.2005 16.7968C63.1239 16.7968 63.6501 16.1124 63.6501 14.9365H63.6501Z" fill="white" />
		<path d="M71.5216 17.6408H70.4153L69.2986 13.6611H69.2142L68.1021 17.6408H67.0064L65.5169 12.2373H66.5986L67.5665 16.3605H67.6462L68.7572 12.2373H69.7802L70.8911 16.3605H70.9755L71.9388 12.2373H73.0052L71.5216 17.6408Z" fill="white" />
		<path d="M74.2579 12.2376H75.2845V13.0959H75.3642C75.4994 12.7876 75.7274 12.5292 76.0164 12.3566C76.3055 12.1841 76.6412 12.106 76.9767 12.1332C77.2396 12.1135 77.5036 12.1531 77.7491 12.2492C77.9946 12.3454 78.2154 12.4955 78.395 12.6885C78.5746 12.8815 78.7085 13.1125 78.7868 13.3642C78.865 13.616 78.8856 13.8822 78.847 14.143V17.641H77.7806V14.4108C77.7806 13.5424 77.4033 13.1106 76.6146 13.1106C76.4361 13.1023 76.2579 13.1327 76.0922 13.1997C75.9265 13.2667 75.7773 13.3687 75.6548 13.4987C75.5322 13.6288 75.4392 13.7838 75.3822 13.9532C75.3252 14.1225 75.3054 14.3022 75.3243 14.4799V17.6411H74.2579L74.2579 12.2376Z" fill="white" />
		<path d="M80.5462 10.1279H81.6126V17.6408H80.5462V10.1279Z" fill="white" />
		<path d="M83.095 14.9366C83.0611 14.5814 83.1017 14.2231 83.2144 13.8846C83.327 13.5461 83.5091 13.2349 83.7491 12.9709C83.9891 12.707 84.2815 12.496 84.6078 12.3517C84.934 12.2074 85.2868 12.1328 85.6436 12.1328C86.0003 12.1328 86.3531 12.2074 86.6794 12.3517C87.0056 12.496 87.2981 12.707 87.538 12.9709C87.778 13.2349 87.9601 13.5461 88.0728 13.8846C88.1854 14.2231 88.226 14.5814 88.1921 14.9366C88.2267 15.292 88.1865 15.6508 88.0742 15.9899C87.9618 16.3289 87.7798 16.6407 87.5398 16.9052C87.2997 17.1696 87.0071 17.381 86.6805 17.5256C86.3539 17.6703 86.0007 17.745 85.6436 17.745C85.2864 17.745 84.9332 17.6703 84.6066 17.5256C84.2801 17.381 83.9874 17.1696 83.7474 16.9052C83.5074 16.6407 83.3253 16.3289 83.213 15.9899C83.1006 15.6508 83.0605 15.292 83.095 14.9366ZM87.0946 14.9366C87.0946 13.7653 86.5685 13.0803 85.645 13.0803C84.7181 13.0803 84.1966 13.7653 84.1966 14.9366C84.1966 16.1172 84.7181 16.7969 85.645 16.7969C86.5685 16.7969 87.0946 16.1125 87.0946 14.9366H87.0946Z" fill="white" />
		<path d="M89.3148 16.1125C89.3148 15.1398 90.039 14.5791 91.3245 14.4994L92.7882 14.415V13.9486C92.7882 13.3779 92.4109 13.0557 91.6819 13.0557C91.0866 13.0557 90.6741 13.2742 90.5558 13.6562H89.5234C89.6323 12.7281 90.5054 12.1328 91.7312 12.1328C93.0859 12.1328 93.8499 12.8072 93.8499 13.9486V17.6406H92.8234V16.8812H92.739C92.5677 17.1536 92.3272 17.3757 92.0421 17.5247C91.7569 17.6738 91.4373 17.7445 91.1159 17.7296C90.8891 17.7532 90.6598 17.729 90.4429 17.6586C90.226 17.5882 90.0263 17.4731 89.8566 17.3207C89.6868 17.1683 89.551 16.9821 89.4576 16.774C89.3643 16.5659 89.3157 16.3406 89.3148 16.1125ZM92.7882 15.6508V15.199L91.4687 15.2834C90.7245 15.3332 90.387 15.5863 90.387 16.0627C90.387 16.549 90.8089 16.832 91.389 16.832C91.559 16.8492 91.7307 16.8321 91.8939 16.7815C92.0571 16.731 92.2085 16.6482 92.339 16.538C92.4696 16.4278 92.5766 16.2925 92.6538 16.14C92.7309 15.9876 92.7767 15.8212 92.7882 15.6508Z" fill="white" />
		<path d="M95.2515 14.9367C95.2515 13.2293 96.1292 12.1477 97.4944 12.1477C97.8321 12.1321 98.1673 12.213 98.4607 12.3809C98.7542 12.5487 98.9937 12.7967 99.1515 13.0957H99.2312V10.1279H100.298V17.6408H99.2757V16.7871H99.1913C99.0214 17.0841 98.7735 17.3289 98.4744 17.4951C98.1752 17.6613 97.8364 17.7425 97.4944 17.7299C96.1198 17.7299 95.2515 16.6483 95.2515 14.9367ZM96.3531 14.9367C96.3531 16.0828 96.8933 16.7725 97.7968 16.7725C98.6956 16.7725 99.2511 16.0729 99.2511 14.9414C99.2511 13.8153 98.6898 13.1057 97.7968 13.1057C96.8991 13.1057 96.353 13.8 96.353 14.9367H96.3531Z" fill="white" />
		<path d="M104.71 14.9365C104.676 14.5814 104.716 14.2231 104.829 13.8846C104.942 13.5461 105.124 13.2349 105.364 12.9709C105.604 12.7069 105.896 12.496 106.222 12.3517C106.548 12.2074 106.901 12.1328 107.258 12.1328C107.615 12.1328 107.967 12.2074 108.294 12.3517C108.62 12.496 108.912 12.7069 109.152 12.9709C109.392 13.2349 109.574 13.5461 109.687 13.8846C109.8 14.2231 109.84 14.5814 109.806 14.9365C109.841 15.2919 109.801 15.6507 109.688 15.9897C109.576 16.3288 109.394 16.6406 109.154 16.905C108.914 17.1695 108.621 17.3809 108.295 17.5255C107.968 17.6702 107.615 17.7449 107.258 17.7449C106.901 17.7449 106.548 17.6702 106.221 17.5255C105.894 17.3809 105.602 17.1695 105.362 16.905C105.122 16.6406 104.94 16.3288 104.828 15.9897C104.715 15.6507 104.675 15.2919 104.71 14.9365ZM108.709 14.9365C108.709 13.7652 108.183 13.0802 107.26 13.0802C106.333 13.0802 105.811 13.7652 105.811 14.9365C105.811 16.1171 106.333 16.7968 107.26 16.7968C108.183 16.7968 108.709 16.1124 108.709 14.9365Z" fill="white" />
		<path d="M111.237 12.2376H112.264V13.0959H112.343C112.479 12.7876 112.707 12.5292 112.996 12.3566C113.285 12.1841 113.62 12.106 113.956 12.1332C114.219 12.1135 114.483 12.1531 114.728 12.2492C114.974 12.3454 115.195 12.4955 115.374 12.6885C115.554 12.8815 115.688 13.1125 115.766 13.3642C115.844 13.616 115.865 13.8822 115.826 14.143V17.641H114.76V14.4108C114.76 13.5424 114.382 13.1106 113.594 13.1106C113.415 13.1023 113.237 13.1327 113.071 13.1997C112.906 13.2667 112.756 13.3687 112.634 13.4987C112.511 13.6288 112.418 13.7838 112.361 13.9532C112.304 14.1225 112.285 14.3022 112.303 14.4799V17.6411H111.237V12.2376Z" fill="white" />
		<path d="M121.852 10.8916V12.2615H123.023V13.1598H121.852V15.9383C121.852 16.5043 122.085 16.7521 122.616 16.7521C122.752 16.7517 122.888 16.7435 123.023 16.7275V17.6158C122.831 17.6501 122.637 17.6683 122.443 17.6703C121.257 17.6703 120.784 17.2531 120.784 16.2113V13.1597H119.927V12.2615H120.784V10.8916H121.852Z" fill="white" />
		<path d="M124.479 10.1279H125.536V13.1057H125.621C125.762 12.7945 125.997 12.5346 126.292 12.3614C126.586 12.1881 126.927 12.11 127.268 12.1377C127.53 12.1235 127.791 12.1671 128.034 12.2656C128.277 12.364 128.495 12.5148 128.673 12.7072C128.85 12.8997 128.983 13.1289 129.062 13.3787C129.141 13.6284 129.164 13.8925 129.129 14.1522V17.6408H128.062V14.4152C128.062 13.5521 127.66 13.115 126.906 13.115C126.723 13.1 126.539 13.1252 126.366 13.1889C126.194 13.2525 126.037 13.3531 125.907 13.4836C125.778 13.6141 125.678 13.7713 125.616 13.9443C125.553 14.1172 125.529 14.3018 125.546 14.4849V17.6408H124.479L124.479 10.1279Z" fill="white" />
		<path d="M135.347 16.1817C135.202 16.6756 134.888 17.1028 134.46 17.3885C134.032 17.6743 133.517 17.8005 133.006 17.745C132.65 17.7544 132.296 17.6862 131.969 17.5452C131.642 17.4041 131.35 17.1936 131.112 16.9283C130.875 16.6629 130.698 16.349 130.594 16.0085C130.49 15.6679 130.461 15.3087 130.51 14.956C130.462 14.6021 130.492 14.2422 130.595 13.9006C130.699 13.559 130.875 13.2436 131.111 12.9759C131.348 12.7083 131.639 12.4945 131.965 12.349C132.291 12.2036 132.644 12.1299 133.001 12.1329C134.505 12.1329 135.412 13.1601 135.412 14.8569V15.229H131.596V15.2888C131.579 15.4871 131.604 15.6867 131.669 15.8748C131.734 16.0629 131.838 16.2353 131.973 16.3811C132.109 16.5268 132.273 16.6426 132.456 16.7211C132.639 16.7996 132.836 16.839 133.035 16.8368C133.29 16.8674 133.549 16.8215 133.778 16.7048C134.006 16.5882 134.196 16.4061 134.321 16.1817L135.347 16.1817ZM131.596 14.4403H134.325C134.339 14.259 134.314 14.0768 134.253 13.9055C134.192 13.7343 134.096 13.5777 133.97 13.4459C133.845 13.3141 133.694 13.2099 133.526 13.1401C133.358 13.0703 133.177 13.0364 132.995 13.0405C132.811 13.0382 132.628 13.0728 132.457 13.1424C132.286 13.2119 132.131 13.3149 132 13.4454C131.87 13.5758 131.767 13.7311 131.698 13.902C131.628 14.0728 131.594 14.2559 131.596 14.4403H131.596Z" fill="white" />
	</g>
	<defs>
		<clipPath id="clip0_1386_3620">
			<rect width="162" height="48" fill="white" transform="translate(-0.000427246 0.00292969)" />
		</clipPath>
	</defs>
</svg>
