<svg width="24" height="24" viewBox="0 0 24 24" fill="none" xmlns="http://www.w3.org/2000/svg">
	<path fill-rule="evenodd" clip-rule="evenodd" d="M3.08111 12C4.61925 15.5565 7.92565 18 12 18C16.0743 18 19.3808 15.5565 20.9189 12C19.3808 8.4435 16.0743 6 12 6C7.92565 6 4.61925 8.4435 3.08111 12ZM1.06851 11.6362C2.80329 7.1941 6.8839 4 12 4C17.1161 4 21.1967 7.1941 22.9315 11.6362C23.0228 11.8701 23.0228 12.1299 22.9315 12.3638C21.1967 16.8059 17.1161 20 12 20C6.8839 20 2.80329 16.8059 1.06851 12.3638C0.977163 12.1299 0.977163 11.8701 1.06851 11.6362ZM12 10C10.8954 10 10 10.8954 10 12C10 13.1046 10.8954 14 12 14C13.1046 14 14 13.1046 14 12C14 10.8954 13.1046 10 12 10ZM8 12C8 9.79086 9.79086 8 12 8C14.2091 8 16 9.79086 16 12C16 14.2091 14.2091 16 12 16C9.79086 16 8 14.2091 8 12Z" fill="#E79436" />
</svg>
