<svg width="18" height="18" viewBox="0 0 18 18" fill="none" xmlns="http://www.w3.org/2000/svg">
	<path fill-rule="evenodd" clip-rule="evenodd" d="M9.00041 0.582031C9.29883 0.582031 9.56999 0.755578 9.69498 1.02656L11.8895 5.78431L17.0926 6.40121C17.3889 6.43634 17.6377 6.64061 17.73 6.92442C17.8222 7.20823 17.7409 7.51976 17.5218 7.72236L13.6751 11.2797L14.6962 16.4187C14.7544 16.7114 14.637 17.0112 14.3956 17.1866C14.1541 17.362 13.8328 17.381 13.5724 17.2353L9.00041 14.6761L4.42846 17.2353C4.16806 17.381 3.84668 17.362 3.60525 17.1866C3.36383 17.0112 3.24646 16.7114 3.30462 16.4187L4.32573 11.2797L0.478995 7.72236C0.259904 7.51976 0.178647 7.20823 0.270862 6.92442C0.363077 6.64061 0.611925 6.43634 0.908264 6.40121L6.1113 5.78431L8.30584 1.02656C8.43083 0.755578 8.702 0.582031 9.00041 0.582031ZM9.00041 3.17314L7.32111 6.81385C7.20969 7.05541 6.98077 7.22173 6.7166 7.25305L2.73515 7.72512L5.67874 10.4473C5.87405 10.6279 5.96149 10.897 5.90964 11.1579L5.12827 15.0904L8.6268 13.132C8.85893 13.0021 9.14189 13.0021 9.37402 13.132L12.8726 15.0904L12.0912 11.1579C12.0393 10.897 12.1268 10.6279 12.3221 10.4473L15.2657 7.72512L11.2842 7.25305C11.0201 7.22173 10.7911 7.05541 10.6797 6.81385L9.00041 3.17314Z" fill="#6E7077" />
</svg>
