<svg width="553" height="493" viewBox="0 0 553 493" fill="none" xmlns="http://www.w3.org/2000/svg">
	<path d="M523.742 247.938C523.742 247.938 523.742 241.029 514.069 231.453C504.396 221.877 498.261 216.322 498.261 216.322C498.261 216.322 493.453 232.13 502.407 241.761C508.98 248.526 516.107 254.728 523.714 260.305L523.742 247.938Z" fill="#E79436" />
	<path d="M509.785 290.858C509.785 290.858 509.785 283.949 500.113 274.373C490.44 264.797 484.333 259.242 484.333 259.242C484.333 259.242 479.51 275.05 488.478 284.681C495.051 291.446 502.179 297.648 509.785 303.225V290.858Z" fill="#E79436" />
	<path d="M523.133 259.643C523.133 259.643 523.865 252.817 534.45 244.263C545.035 235.71 551.764 230.901 551.764 230.901C551.764 230.901 554.873 247.124 544.979 255.774C537.729 261.807 529.987 267.224 521.834 271.969L523.133 259.643Z" fill="#E79436" />
	<path d="M506.276 310.327C506.276 310.327 507.658 303.612 519.14 296.219C530.623 288.826 537.753 284.75 537.753 284.75C537.753 284.75 539.135 301.221 528.398 308.752C520.553 313.992 512.284 318.568 503.678 322.432L506.276 310.327Z" fill="#E79436" />
	<path d="M509.44 365.598C509.44 365.598 509.44 358.689 519.113 349.099C528.786 339.51 534.907 333.982 534.907 333.982C534.907 333.982 539.73 349.79 530.762 359.408C524.191 366.179 517.063 372.387 509.454 377.965L509.44 365.598Z" fill="#E79436" />
	<path d="M509.288 379.084C509.288 379.084 510.255 372.286 502.102 361.397C493.95 350.508 488.602 344.18 488.602 344.18C488.602 344.18 481.597 359.145 489.072 369.937C494.614 377.569 500.784 384.724 507.519 391.327L509.288 379.084Z" fill="#E79436" />
	<path d="M499.795 419.059C499.795 419.059 499.795 412.15 509.468 402.574C519.14 392.998 525.275 387.443 525.275 387.443C525.275 387.443 530.084 403.251 521.13 412.882C514.555 419.649 507.428 425.856 499.823 431.44L499.795 419.059Z" fill="#E79436" />
	<path d="M506.22 455.306C506.22 455.306 504.479 448.659 511.347 436.914C518.214 425.169 522.816 418.287 522.816 418.287C522.816 418.287 531.466 432.354 525.261 443.933C520.62 452.143 515.3 459.95 509.357 467.272L506.22 455.306Z" fill="#E79436" />
	<path d="M524.612 246.183C524.128 253.337 523.252 260.459 521.986 267.518C518.173 287.167 508.666 299.852 504.866 317.594C501.066 335.337 511.982 358.205 509.011 381.005C506.04 403.805 497.224 416.476 499.753 431.69C502.282 446.903 515.602 488.109 515.602 488.109" stroke="#263238" stroke-width="1.35575" stroke-linecap="round" stroke-linejoin="round" />
	<path d="M523.05 264.216L533.414 256.257" stroke="#263238" stroke-width="1.35575" stroke-linecap="round" stroke-linejoin="round" />
	<path d="M523.534 255.054L519.181 247.33" stroke="#263238" stroke-width="1.35575" stroke-linecap="round" stroke-linejoin="round" />
	<path d="M505.447 316.779C505.447 316.779 514.125 310.271 523.051 303.763" stroke="#263238" stroke-width="1.35575" stroke-linecap="round" stroke-linejoin="round" />
	<path d="M509.785 303.223C509.785 303.223 502.544 289.046 494.35 279.649" stroke="#263238" stroke-width="1.35575" stroke-linecap="round" stroke-linejoin="round" />
	<path d="M509.785 375.382C514.735 366.234 520.991 357.855 528.357 350.51" stroke="#263238" stroke-width="1.35575" stroke-linecap="round" stroke-linejoin="round" />
	<path d="M508.1 385.027C505.466 378.824 502.318 372.852 498.689 367.174C493.632 359.699 492.9 358.731 492.9 358.731" stroke="#263238" stroke-width="1.35575" stroke-linecap="round" stroke-linejoin="round" />
	<path d="M499.795 431.691C501.998 426.245 504.613 420.974 507.616 415.925C510.621 411.231 514.009 406.795 517.745 402.659" stroke="#263238" stroke-width="1.35575" stroke-linecap="round" stroke-linejoin="round" />
	<path d="M509.356 467.271C508.853 462.064 509.75 456.816 511.954 452.071C515.574 445.08 519.665 435.918 521.35 432.298" stroke="#263238" stroke-width="1.35575" stroke-linecap="round" stroke-linejoin="round" />
	<path d="M445.227 339.759C445.227 339.759 444.481 335.447 449.469 328.359C454.458 321.27 457.76 317.166 457.76 317.166C457.76 317.166 462.486 326.562 457.926 333.554C454.539 338.514 450.745 343.182 446.581 347.51L445.227 339.759Z" fill="#E79436" />
	<path d="M458.644 365.157C458.644 365.157 457.898 360.846 462.886 353.757C467.875 346.668 471.177 342.564 471.177 342.564C471.177 342.564 475.903 351.961 471.343 358.966C467.954 363.92 464.159 368.583 459.998 372.909L458.644 365.157Z" fill="#E79436" />
	<path d="M446.871 347.027C446.871 347.027 445.683 342.882 438.111 338.612C430.539 334.342 425.813 332.104 425.813 332.104C425.813 332.104 425.619 342.619 432.722 346.958C437.922 349.951 443.362 352.507 448.986 354.599L446.871 347.027Z" fill="#E79436" />
	<path d="M462.956 376.985C462.956 376.985 461.326 372.923 453.367 369.523C445.407 366.124 440.433 364.355 440.433 364.355C440.433 364.355 441.345 374.83 448.917 378.395C454.404 380.826 460.085 382.795 465.899 384.281L462.956 376.985Z" fill="#E79436" />
	<path d="M466.963 411.986C466.963 411.986 466.231 407.675 459.142 402.687C452.053 397.698 447.59 394.921 447.59 394.921C447.59 394.921 446.291 405.354 452.938 410.411C457.793 413.947 462.938 417.067 468.317 419.738L466.963 411.986Z" fill="#E79436" />
	<path d="M468.538 420.429C468.538 420.429 467.156 416.284 471.122 408.546C475.088 400.808 477.713 396.289 477.713 396.289C477.713 396.289 483.724 404.911 480.214 412.498C477.57 417.883 474.478 423.037 470.97 427.905L468.538 420.429Z" fill="#E79436" />
	<path d="M480.615 455.181C480.615 455.181 481.113 450.842 487.898 445.508C494.682 440.174 498.952 437.093 498.952 437.093C498.952 437.093 500.845 447.442 494.503 452.873C489.857 456.674 484.902 460.081 479.69 463.057L480.615 455.181Z" fill="#E79436" />
	<path d="M478.805 444.458C478.805 444.458 478.059 440.147 470.984 435.158C463.91 430.17 459.46 427.393 459.46 427.393C459.46 427.393 458.161 437.825 464.808 442.896C469.667 446.426 474.811 449.546 480.187 452.224L478.805 444.458Z" fill="#E79436" />
	<path d="M478.805 467.893C478.805 467.893 479.164 463.526 473.582 456.907C467.999 450.288 464.379 446.475 464.379 446.475C464.379 446.475 460.469 456.23 465.623 462.821C469.401 467.463 473.561 471.78 478.059 475.727L478.805 467.893Z" fill="#E79436" />
	<path d="M444.495 338.735C445.577 343.171 446.901 347.544 448.461 351.835C452.98 363.746 460.317 370.669 464.628 381.378C468.939 392.087 464.628 407.632 468.884 421.602C473.14 435.572 480.187 442.564 480.187 452.375C480.187 462.186 476.374 489.476 476.374 489.476" stroke="#263238" stroke-width="1.35575" stroke-linecap="round" stroke-linejoin="round" />
	<path d="M447.438 349.874L440.073 346.019" stroke="#263238" stroke-width="1.35575" stroke-linecap="round" stroke-linejoin="round" />
	<path d="M446.139 344.18L448.018 338.874" stroke="#263238" stroke-width="1.35575" stroke-linecap="round" stroke-linejoin="round" />
	<path d="M464.172 380.936C464.172 380.936 458.023 377.8 451.736 374.677" stroke="#263238" stroke-width="1.35575" stroke-linecap="round" stroke-linejoin="round" />
	<path d="M459.985 372.909C461.797 367.215 464.181 361.72 467.101 356.507" stroke="#263238" stroke-width="1.35575" stroke-linecap="round" stroke-linejoin="round" />
	<path d="M467.82 418.148C463.72 412.96 458.888 408.394 453.477 404.593" stroke="#263238" stroke-width="1.35575" stroke-linecap="round" stroke-linejoin="round" />
	<path d="M469.92 424.008C470.904 419.839 472.23 415.758 473.886 411.807C476.249 406.57 476.65 405.879 476.65 405.879" stroke="#263238" stroke-width="1.35575" stroke-linecap="round" stroke-linejoin="round" />
	<path d="M479.855 459.824C482.251 456.855 484.905 454.103 487.787 451.602C489.619 450.253 491.339 448.755 492.927 447.125" stroke="#263238" stroke-width="1.35575" stroke-linecap="round" stroke-linejoin="round" />
	<path d="M480.187 452.375C478.213 449.191 476 446.161 473.568 443.311C471.173 440.696 468.566 438.284 465.775 436.098" stroke="#263238" stroke-width="1.35575" stroke-linecap="round" stroke-linejoin="round" />
	<path d="M478.059 475.729C477.812 472.406 476.681 469.21 474.784 466.471C471.758 462.478 468.193 457.171 466.742 455.085" stroke="#263238" stroke-width="1.35575" stroke-linecap="round" stroke-linejoin="round" />
	<path d="M52.7532 279.565L46.7009 262.279L52.7532 269.616L47.9998 243.68L55.351 262.279L57.9488 225.951L62.2739 260.538L67.0273 253.629V262.279L72.6512 250.603L69.625 270.915L74.8068 267.461L66.5989 278.695L52.7532 279.565Z" fill="#E79436" />
	<path d="M71.7805 275.239H49.2986L53.3473 320.632H67.7319L71.7805 275.239Z" fill="#263238" stroke="#263238" stroke-width="1.35575" stroke-linecap="round" stroke-linejoin="round" />
	<path d="M113.954 320.121H37.3601V482.345H113.954V320.121Z" fill="white" stroke="#263238" stroke-width="1.35575" stroke-linecap="round" stroke-linejoin="round" />
	<path d="M118.14 320.121H75.6497V482.345H118.14V320.121Z" fill="white" stroke="#263238" stroke-width="1.35575" stroke-linecap="round" stroke-linejoin="round" />
	<path d="M113.359 320.121H75.6497V482.345H113.359V320.121Z" fill="#263238" stroke="#263238" stroke-width="1.35575" stroke-linecap="round" stroke-linejoin="round" />
	<path d="M109.117 444.621H75.6497V477.84H109.117V444.621Z" fill="#E79436" stroke="#263238" stroke-width="1.35575" stroke-linecap="round" stroke-linejoin="round" />
	<path d="M109.117 446.419H75.6497V450.675H109.117V446.419Z" fill="white" stroke="#263238" stroke-width="1.35575" stroke-linecap="round" stroke-linejoin="round" />
	<path d="M109.117 470.876H75.6497V475.132H109.117V470.876Z" fill="white" stroke="#263238" stroke-width="1.35575" stroke-linecap="round" stroke-linejoin="round" />
	<path d="M81.9915 445.312V487.319" stroke="#263238" stroke-width="1.35575" stroke-linecap="round" stroke-linejoin="round" />
	<path d="M93.6687 445.312V487.319" stroke="#263238" stroke-width="1.35575" stroke-linecap="round" stroke-linejoin="round" />
	<path d="M103.922 445.312V487.319" stroke="#263238" stroke-width="1.35575" stroke-linecap="round" stroke-linejoin="round" />
	<path d="M109.117 326.146H75.6497V374.992H109.117V326.146Z" fill="#E79436" stroke="#263238" stroke-width="1.35575" stroke-linecap="round" stroke-linejoin="round" />
	<path d="M109.117 328.192H75.6497V333.029H109.117V328.192Z" fill="white" stroke="#263238" stroke-width="1.35575" stroke-linecap="round" stroke-linejoin="round" />
	<path d="M109.117 359.502H75.6497V364.338H109.117V359.502Z" fill="white" stroke="#263238" stroke-width="1.35575" stroke-linecap="round" stroke-linejoin="round" />
	<path d="M81.9915 326.919V374.66" stroke="#263238" stroke-width="1.35575" stroke-linecap="round" stroke-linejoin="round" />
	<path d="M93.6687 326.919V374.66" stroke="#263238" stroke-width="1.35575" stroke-linecap="round" stroke-linejoin="round" />
	<path d="M103.922 326.919V374.66" stroke="#263238" stroke-width="1.35575" stroke-linecap="round" stroke-linejoin="round" />
	<path d="M109.117 385.011H75.6497V433.858H109.117V385.011Z" fill="#E79436" stroke="#263238" stroke-width="1.35575" stroke-linecap="round" stroke-linejoin="round" />
	<path d="M109.117 387.055H75.6497V391.891H109.117V387.055Z" fill="white" stroke="#263238" stroke-width="1.35575" stroke-linecap="round" stroke-linejoin="round" />
	<path d="M109.117 418.368H75.6497V423.204H109.117V418.368Z" fill="white" stroke="#263238" stroke-width="1.35575" stroke-linecap="round" stroke-linejoin="round" />
	<path d="M81.9915 385.798V433.525" stroke="#263238" stroke-width="1.35575" stroke-linecap="round" stroke-linejoin="round" />
	<path d="M93.6687 385.798V433.525" stroke="#263238" stroke-width="1.35575" stroke-linecap="round" stroke-linejoin="round" />
	<path d="M103.922 385.798V433.525" stroke="#263238" stroke-width="1.35575" stroke-linecap="round" stroke-linejoin="round" />
	<path d="M113.939 374.315H75.6497V379.87H113.939V374.315Z" fill="white" stroke="#263238" stroke-width="1.35575" stroke-linecap="round" stroke-linejoin="round" />
	<path d="M113.939 433.553H75.6497V439.108H113.939V433.553Z" fill="white" stroke="#263238" stroke-width="1.35575" stroke-linecap="round" stroke-linejoin="round" />
	<path d="M113.939 320.121V482.331" stroke="#263238" stroke-width="1.35575" stroke-linecap="round" stroke-linejoin="round" />
	<path d="M70.2461 320.122V482.332H75.6489V326.146H113.275V320.053L70.2461 320.122Z" fill="white" stroke="#263238" stroke-width="1.35575" stroke-linecap="round" stroke-linejoin="round" />
	<path d="M75.6497 326.146V320.121" stroke="#263238" stroke-width="1.35575" stroke-linecap="round" stroke-linejoin="round" />
	<path d="M113.649 245.603C109.628 237.851 107.942 232.296 107.942 231.011C107.942 228.468 113.47 226.948 113.47 226.948C122.092 222.389 162.648 228.98 180.902 232.02C191.12 233.801 201.457 234.817 211.826 235.06C211.826 235.06 214.355 233.042 217.354 230.5C220.352 227.957 234.585 211.237 240.167 209.773C245.75 208.308 250.807 211.804 250.807 211.804C250.807 211.804 259.941 217.331 258.407 218.395C256.873 219.459 234.585 238.666 229.002 242.217C223.42 245.769 211.771 244.249 201.629 246.28C192.896 248.021 157.521 250.177 149.41 250.84C143.319 252.285 136.925 251.752 131.157 249.32" fill="white" />
	<path d="M250.904 211.749C250.904 211.749 245.833 208.198 240.264 209.718C234.695 211.238 220.491 227.972 217.451 230.445C214.411 232.919 211.923 235.005 211.923 235.005C201.554 234.763 191.217 233.747 180.999 231.965C162.745 228.925 122.189 222.293 113.567 226.894C113.567 226.894 108.039 228.414 108.039 230.956C108.231 232.378 108.598 233.77 109.131 235.102L109.891 235.378C109.891 235.378 120.02 234.314 141.88 234.839C163.74 235.364 214.3 238.363 217.547 239.537C218.929 240.063 228.726 237.852 239.587 234.01C247.878 227.253 257.62 218.81 258.601 218.216C260.038 217.318 250.904 211.749 250.904 211.749Z" fill="#E79436" />
	<path opacity="0.5" d="M250.904 211.749C250.904 211.749 245.833 208.198 240.264 209.718C234.695 211.238 220.491 227.972 217.451 230.445C214.411 232.919 211.923 235.005 211.923 235.005C201.554 234.763 191.217 233.747 180.999 231.965C162.745 228.925 122.189 222.293 113.567 226.894C113.567 226.894 108.039 228.414 108.039 230.956C108.231 232.378 108.598 233.77 109.131 235.102L109.891 235.378C109.891 235.378 120.02 234.314 141.88 234.839C163.74 235.364 214.3 238.363 217.547 239.537C218.929 240.063 228.726 237.852 239.587 234.01C247.878 227.253 257.62 218.81 258.601 218.216C260.038 217.318 250.904 211.749 250.904 211.749Z" fill="white" />
	<path d="M113.649 245.603C109.628 237.851 107.942 232.296 107.942 231.011C107.942 228.468 113.47 226.948 113.47 226.948C122.092 222.389 162.648 228.98 180.902 232.02C191.12 233.801 201.457 234.817 211.826 235.06C211.826 235.06 214.355 233.042 217.354 230.5C220.352 227.957 234.585 211.237 240.167 209.773C245.75 208.308 250.807 211.804 250.807 211.804C250.807 211.804 259.941 217.331 258.407 218.395C256.873 219.459 234.585 238.666 229.002 242.217C223.42 245.769 211.771 244.249 201.629 246.28C192.896 248.021 157.521 250.177 149.41 250.84C143.319 252.285 136.925 251.752 131.157 249.32" stroke="#263238" stroke-width="1.35575" stroke-linecap="round" stroke-linejoin="round" />
	<path d="M313.887 290.678C314.804 288.937 316.18 287.48 317.865 286.465C319.551 285.449 321.482 284.913 323.45 284.916H415.616C415.616 284.916 422.276 284.916 420.286 297.573C418.297 310.231 390.964 387.515 384.359 410.881C377.754 434.248 376.359 483.495 376.359 483.495H265.814C265.814 483.495 274.575 365.724 313.887 290.678Z" fill="white" />
	<path opacity="0.16" d="M355.396 284.916H323.449C321.481 284.913 319.55 285.449 317.865 286.465C316.179 287.48 314.804 288.937 313.887 290.678C274.574 365.724 265.717 483.454 265.717 483.454H315.296L327.525 437.011L378.514 447.527C378.873 443.63 379.288 439.664 379.771 435.754L378.652 423.318C378.652 423.318 368.205 412.332 364.917 409.582C361.628 406.833 363.811 401.872 363.259 380.44C362.706 359.008 343.471 343.601 336.313 330.405C329.156 317.209 340.169 308.959 350.062 295.763C353.586 290.996 355.023 287.486 355.396 284.916Z" fill="black" />
	<path d="M313.887 290.678C314.804 288.937 316.18 287.48 317.865 286.465C319.551 285.449 321.482 284.913 323.45 284.916H415.616C415.616 284.916 422.276 284.916 420.286 297.573C418.297 310.231 390.964 387.515 384.359 410.881C377.754 434.248 376.359 483.495 376.359 483.495H265.814C265.814 483.495 274.575 365.724 313.887 290.678Z" stroke="#263238" stroke-width="1.35575" stroke-linecap="round" stroke-linejoin="round" />
	<path d="M399.627 306.901C390.314 328.637 370.61 414.682 367.404 483.454H376.303C376.303 483.454 377.684 434.151 384.303 410.84C390.922 387.529 418.282 310.231 420.23 297.532C422.178 284.834 415.56 284.875 415.56 284.875C415.56 284.875 407.103 289.476 399.627 306.901Z" fill="#263238" stroke="#263238" stroke-width="1.35575" stroke-linecap="round" stroke-linejoin="round" />
	<path d="M237.721 263.457C237.721 263.457 223.019 254.834 217.45 239.634C211.881 224.435 261.046 200.087 282.395 198.567C303.744 197.047 309.768 202.616 322.467 224.421C335.166 246.226 343.761 276.128 337.17 290.83C330.578 305.533 319.427 309.084 327.497 321.23C335.567 333.376 358.422 367.866 356.902 384.088C355.382 400.311 339.671 414.488 316.829 416.035C293.988 417.583 263.589 403.862 238.246 381.49C212.904 359.119 219.481 326.218 228.574 315.578C237.666 304.938 251.387 300.876 252.396 290.236C253.405 279.596 237.721 263.457 237.721 263.457Z" fill="#263238" stroke="#263238" stroke-width="1.35575" stroke-linecap="round" stroke-linejoin="round" />
	<path d="M300.386 239.399C308.193 253.936 317.963 273.406 321.016 285.165C326.35 305.754 298.907 318.715 306.521 328.623" stroke="white" stroke-width="1.35575" stroke-linecap="round" stroke-linejoin="round" />
	<path d="M289.747 220.358C289.747 220.358 292.787 225.54 296.987 233.168" stroke="white" stroke-width="1.35575" stroke-linecap="round" stroke-linejoin="round" />
	<path d="M330.704 256.934C331.604 259.658 332.189 262.477 332.445 265.335" stroke="white" stroke-width="1.35575" stroke-linecap="round" stroke-linejoin="round" />
	<path d="M295.025 212.801C295.025 212.801 319.041 230.543 328.631 251.781" stroke="white" stroke-width="1.35575" stroke-linecap="round" stroke-linejoin="round" />
	<path d="M261.696 226.106C244.548 230.915 219.883 238.722 221.886 243.227" stroke="white" stroke-width="1.35575" stroke-linecap="round" stroke-linejoin="round" />
	<path d="M277.545 221.879C277.545 221.879 273.883 222.791 268.425 224.256" stroke="white" stroke-width="1.35575" stroke-linecap="round" stroke-linejoin="round" />
	<path d="M256.335 212.924C266.158 209.828 276.445 208.472 286.735 208.916" stroke="white" stroke-width="1.35575" stroke-linecap="round" stroke-linejoin="round" />
	<path d="M249.343 215.783C250.896 214.974 252.502 214.272 254.151 213.683" stroke="white" stroke-width="1.35575" stroke-linecap="round" stroke-linejoin="round" />
	<path d="M107.943 231.012C107.936 231.108 107.936 231.205 107.943 231.302C107.936 231.205 107.936 231.108 107.943 231.012V231.012ZM113.65 245.604C111.322 241.342 109.469 236.838 108.122 232.172C109.462 236.84 111.316 241.345 113.65 245.604V245.604ZM107.97 231.385C107.97 231.468 107.97 231.564 107.97 231.689C107.998 231.564 107.984 231.468 107.97 231.385V231.385ZM108.039 231.772C108.056 231.907 108.084 232.041 108.122 232.172C108.084 232.041 108.056 231.907 108.039 231.772ZM113.65 245.59C118.817 255.378 125.247 264.447 132.774 272.563C151.027 292.336 203.757 344.057 208.773 347.608C213.789 351.16 212.324 361.288 208.773 371.431C205.222 381.573 192.039 396.303 192.551 412.498C193.062 428.693 198.078 453.565 197.622 458.636C197.166 463.708 184.481 480.952 184.481 480.952H315.282C315.282 480.952 298.977 460.225 298.977 453.137C298.977 446.048 321.362 355.222 322.371 348.631C323.38 342.04 319.331 337.48 311.22 336.968C303.109 336.457 272.184 329.866 270.664 324.795C269.144 319.724 278.775 300.461 278.775 300.461L248.375 301.981C248.375 301.981 246.855 315.164 244.824 317.706C242.793 320.249 239.753 315.164 232.651 311.626C225.548 308.089 211.923 305.035 206.797 300.972C201.67 296.91 153.059 251.228 153.059 251.228" fill="white" />
	<path d="M214.563 304.884C217.092 309.306 219.62 313.299 219.62 313.299C219.62 313.299 228.146 318.094 230.274 318.094C232.402 318.094 245.198 325.003 245.198 325.003C245.198 325.003 255.865 322.336 252.107 313.271C250.921 310.951 249.424 308.803 247.657 306.887C247.022 310.908 245.999 316.173 244.797 317.679C242.766 320.208 239.726 315.137 232.623 311.599C228.022 309.306 220.574 307.205 214.563 304.884Z" fill="#E79436" />
	<path d="M188.53 284.363C172.874 269.867 153.059 251.282 153.059 251.282L141.535 249.624L140.153 250.398C140.153 250.398 172.68 279.181 179.603 282.387C182.404 283.674 185.447 284.348 188.53 284.363Z" fill="#E79436" />
	<path d="M204.932 299.368L203.689 298.263C204.324 299.313 204.684 299.976 204.684 299.976L204.932 299.368Z" fill="#E79436" />
	<g opacity="0.5">
		<path opacity="0.5" d="M214.562 304.882C217.091 309.304 219.62 313.297 219.62 313.297C219.62 313.297 228.146 318.092 230.274 318.092C232.402 318.092 245.197 325.001 245.197 325.001C245.197 325.001 255.865 322.334 252.106 313.269C250.92 310.949 249.423 308.801 247.657 306.885C247.021 310.906 245.999 316.171 244.796 317.677C242.765 320.206 239.725 315.135 232.623 311.597C228.021 309.304 220.573 307.203 214.562 304.882Z" fill="white" />
		<path opacity="0.5" d="M188.53 284.363C172.874 269.867 153.059 251.282 153.059 251.282L141.535 249.624L140.153 250.398C140.153 250.398 172.68 279.181 179.603 282.387C182.404 283.674 185.447 284.348 188.53 284.363Z" fill="white" />
		<path opacity="0.5" d="M204.932 299.368L203.688 298.263C204.324 299.313 204.683 299.976 204.683 299.976L204.932 299.368Z" fill="white" />
	</g>
	<path d="M113.65 245.59C118.817 255.378 125.247 264.447 132.774 272.563C151.027 292.336 203.757 344.057 208.773 347.608C213.789 351.16 212.324 361.288 208.773 371.431C205.222 381.573 192.039 396.303 192.551 412.498C193.062 428.693 198.078 453.565 197.622 458.636C197.166 463.708 184.481 480.952 184.481 480.952H315.282C315.282 480.952 298.977 460.225 298.977 453.137C298.977 446.048 321.362 355.222 322.371 348.631C323.38 342.04 319.331 337.48 311.22 336.968C303.109 336.457 272.184 329.866 270.664 324.795C269.144 319.724 278.775 300.461 278.775 300.461L248.375 301.981C248.375 301.981 246.855 315.164 244.824 317.706C242.793 320.249 239.753 315.164 232.651 311.626C225.548 308.089 211.923 305.035 206.797 300.972C201.67 296.91 153.059 251.228 153.059 251.228M107.943 231.012C107.936 231.108 107.936 231.205 107.943 231.302C107.936 231.205 107.936 231.108 107.943 231.012V231.012ZM113.65 245.604C111.322 241.342 109.469 236.838 108.122 232.172C109.462 236.84 111.316 241.345 113.65 245.604V245.604ZM107.97 231.385C107.97 231.468 107.97 231.564 107.97 231.689C107.998 231.564 107.984 231.468 107.97 231.385V231.385ZM108.039 231.772C108.056 231.907 108.084 232.041 108.122 232.172C108.084 232.041 108.056 231.907 108.039 231.772Z" stroke="#263238" stroke-width="1.35575" stroke-linecap="round" stroke-linejoin="round" />
	<path d="M153.058 251.284C153.058 251.284 136.864 251.588 127.827 244.14" stroke="#263238" stroke-width="1.35575" stroke-linecap="round" stroke-linejoin="round" />
	<path d="M270.678 324.795C269.158 319.738 278.789 300.462 278.789 300.462L248.39 301.982C248.39 301.982 246.87 315.164 244.838 317.707C242.807 320.249 239.767 315.164 232.665 311.627C232.126 311.351 231.532 311.088 230.924 310.825L229.086 339.719C229.086 339.719 231.753 367.7 263.728 362.381C276.675 360.225 290.493 348.673 302.418 335.684C290.148 333.432 271.839 328.678 270.678 324.795Z" fill="white" />
	<path d="M269.821 304.289C269.821 304.289 267.983 314.597 266.504 325.997C265.026 337.397 263.934 345.881 263.934 345.881L270.678 324.795L278.277 302.451C278.277 302.451 270.926 302.451 269.821 304.289Z" fill="#E79436" />
	<path opacity="0.5" d="M269.821 304.289C269.821 304.289 267.983 314.597 266.504 325.997C265.026 337.397 263.934 345.881 263.934 345.881L270.678 324.795L278.277 302.451C278.277 302.451 270.926 302.451 269.821 304.289Z" fill="white" />
	<path d="M270.678 324.795C269.158 319.738 278.789 300.462 278.789 300.462L248.39 301.982C248.39 301.982 246.87 315.164 244.838 317.707C242.807 320.249 239.767 315.164 232.665 311.627C232.126 311.351 231.532 311.088 230.924 310.825L229.086 339.719C229.086 339.719 231.753 367.7 263.728 362.381C276.675 360.225 290.493 348.673 302.418 335.684C290.148 333.432 271.839 328.678 270.678 324.795Z" stroke="#263238" stroke-width="1.35575" stroke-linecap="round" stroke-linejoin="round" />
	<path d="M244.824 317.705C242.793 320.234 239.753 315.163 232.65 311.625C228.173 309.373 221.043 307.328 215.143 305.117C213.471 301.151 211.26 295.983 209.837 292.861C207.308 287.333 203.245 290.829 203.245 290.829C201.126 288.419 199.413 285.679 198.174 282.718C195.645 277.191 191.583 277.647 186.014 276.638C180.446 275.63 168.769 264.976 168.769 264.976C168.769 264.976 163.311 260.83 161.059 258.771C158.433 263.939 152.146 273.032 138.549 278.711C160.23 301.359 204.213 344.388 208.828 347.622C213.899 351.159 212.379 361.301 208.828 371.444C205.277 381.586 192.094 396.316 192.605 412.511C193.117 428.706 198.133 453.578 197.677 458.649C197.221 463.168 187.106 477.331 184.909 480.371L190.063 480.952H216.898C216.746 467.355 216.759 411.862 226.059 389.753C236.713 364.341 244.824 317.705 244.824 317.705Z" fill="#E79436" />
	<path opacity="0.16" d="M232.651 311.625C228.174 309.373 221.043 307.328 215.143 305.117C213.471 301.151 211.26 295.983 209.837 292.861C207.308 287.333 203.246 290.829 203.246 290.829C201.126 288.419 199.414 285.679 198.175 282.718C195.646 277.191 191.583 277.647 186.015 276.638C180.446 275.63 168.77 264.976 168.77 264.976C168.77 264.976 163.312 260.83 161.059 258.771C159.935 260.966 158.598 263.044 157.066 264.976C166.131 272.645 176.135 280.77 179.631 282.387C186.54 285.578 188.157 282.912 193.449 286.117C198.741 289.323 204.641 299.935 204.641 299.935C204.641 299.935 207.847 291.396 210.514 297.269C213.181 303.141 219.579 313.256 219.579 313.256C219.579 313.256 228.104 318.051 230.232 318.051C231.904 318.051 240.099 322.307 243.581 324.145C244.354 320.096 244.783 317.664 244.783 317.664C242.793 320.234 239.753 315.163 232.651 311.625Z" fill="black" />
	<path d="M244.824 317.705C242.793 320.234 239.753 315.163 232.65 311.625C228.173 309.373 221.043 307.328 215.143 305.117C213.471 301.151 211.26 295.983 209.837 292.861C207.308 287.333 203.245 290.829 203.245 290.829C201.126 288.419 199.413 285.679 198.174 282.718C195.645 277.191 191.583 277.647 186.014 276.638C180.446 275.63 168.769 264.976 168.769 264.976C168.769 264.976 163.311 260.83 161.059 258.771C158.433 263.939 152.146 273.032 138.549 278.711C160.23 301.359 204.213 344.388 208.828 347.622C213.899 351.159 212.379 361.301 208.828 371.444C205.277 381.586 192.094 396.316 192.605 412.511C193.117 428.706 198.133 453.578 197.677 458.649C197.221 463.168 187.106 477.331 184.909 480.371L190.063 480.952H216.898C216.746 467.355 216.759 411.862 226.059 389.753C236.713 364.341 244.824 317.705 244.824 317.705Z" stroke="#263238" stroke-width="1.35575" stroke-linecap="round" stroke-linejoin="round" />
	<path d="M245.183 315.937C245.183 315.937 238.882 314.002 234.999 317.402C231.116 320.801 225.327 338.239 221.914 357.156C219.81 368.168 221.262 379.564 226.059 389.698C226.059 389.698 234.032 368.791 236.45 358.607C238.868 348.423 245.183 315.937 245.183 315.937Z" fill="#E79436" />
	<path opacity="0.16" d="M233.093 319.02C233.093 319.02 237.653 317.914 239.532 318.55C241.114 319.228 242.594 320.126 243.926 321.217L245.184 315.938C243.297 314.974 241.158 314.622 239.062 314.929C235.925 315.565 233.093 319.02 233.093 319.02Z" fill="black" />
	<path d="M245.183 315.937C245.183 315.937 238.882 314.002 234.999 317.402C231.116 320.801 225.327 338.239 221.914 357.156C219.81 368.168 221.262 379.564 226.059 389.698C226.059 389.698 234.032 368.791 236.45 358.607C238.868 348.423 245.183 315.937 245.183 315.937Z" stroke="#263238" stroke-width="1.35575" stroke-linecap="round" stroke-linejoin="round" />
	<path d="M202.748 317.596L210.859 350.552L192.606 308.974" stroke="#263238" stroke-width="1.35575" stroke-linecap="round" stroke-linejoin="round" />
	<path d="M256.183 480.953H315.297C315.297 480.953 298.991 460.226 298.991 453.137C298.991 446.048 321.376 355.222 322.385 348.631C323.394 342.04 319.345 337.48 311.234 336.969C303.123 336.457 272.198 329.866 270.678 324.795C270.678 324.795 259.016 365.862 254.967 393.747C251.485 417.666 255.091 467.3 256.183 480.953Z" fill="#E79436" />
	<path opacity="0.16" d="M311.234 336.968C304.587 336.553 282.631 332.048 274.077 327.654L277.186 334.84C282.819 337.828 288.878 339.935 295.15 341.085C305.444 342.923 315.02 342.564 321.28 351.767L321.584 352.223C321.97 350.454 322.233 349.21 322.316 348.63C323.408 342.039 319.345 337.479 311.234 336.968Z" fill="black" />
	<path d="M256.183 480.953H315.297C315.297 480.953 298.991 460.226 298.991 453.137C298.991 446.048 321.376 355.222 322.385 348.631C323.394 342.04 319.345 337.48 311.234 336.969C303.123 336.457 272.198 329.866 270.678 324.795C270.678 324.795 259.016 365.862 254.967 393.747C251.485 417.666 255.091 467.3 256.183 480.953Z" stroke="#263238" stroke-width="1.35575" stroke-linecap="round" stroke-linejoin="round" />
	<path d="M270.677 324.795C270.677 324.795 255.035 374.54 254.966 393.747C254.966 393.747 277.186 366.843 280.088 347.94C282.989 329.037 270.677 324.795 270.677 324.795Z" fill="#E79436" />
	<path opacity="0.16" d="M267.983 331.151C270.334 331.072 272.668 331.567 274.784 332.593C276.9 333.618 278.735 335.144 280.129 337.038C280.129 337.038 277.062 328.015 270.678 324.795L267.983 331.151Z" fill="black" />
	<path d="M270.677 324.795C270.677 324.795 255.035 374.54 254.966 393.747C254.966 393.747 277.186 366.843 280.088 347.94C282.989 329.037 270.677 324.795 270.677 324.795Z" stroke="#263238" stroke-width="1.35575" stroke-linecap="round" stroke-linejoin="round" />
	<path d="M437.669 471.598C437.669 471.598 449.124 472.067 456.627 473.145C461.631 473.824 466.669 474.225 471.717 474.347C471.717 474.347 467.571 465.974 463.149 463.611C458.728 461.248 450.713 457.02 443.998 457.959C437.282 458.899 427.679 465.67 428.48 467.825C429.281 469.981 432.86 470.948 437.669 471.598Z" fill="white" />
	<path d="M437.669 471.598C437.669 471.598 449.124 472.067 456.627 473.145C461.631 473.824 466.668 474.225 471.716 474.347C471.716 474.347 467.571 465.974 463.149 463.611C458.727 461.248 450.713 457.02 443.997 457.959C437.282 458.899 427.678 465.67 428.48 467.825C429.281 469.981 432.86 470.948 437.669 471.598Z" fill="#E79436" />
	<path opacity="0.5" d="M437.669 471.598C437.669 471.598 449.124 472.067 456.627 473.145C461.631 473.824 466.668 474.225 471.716 474.347C471.716 474.347 467.571 465.974 463.149 463.611C458.727 461.248 450.713 457.02 443.997 457.959C437.282 458.899 427.678 465.67 428.48 467.825C429.281 469.981 432.86 470.948 437.669 471.598Z" fill="white" />
	<path d="M437.669 471.598C437.669 471.598 449.124 472.067 456.627 473.145C461.631 473.824 466.669 474.225 471.717 474.347C471.717 474.347 467.571 465.974 463.149 463.611C458.728 461.248 450.713 457.02 443.998 457.959C437.282 458.899 427.679 465.67 428.48 467.825C429.281 469.981 432.86 470.948 437.669 471.598Z" stroke="#263238" stroke-width="1.35575" stroke-linecap="round" stroke-linejoin="round" />
	<path d="M456.697 468.171C456.697 468.171 465.775 463.459 468.041 463.528C470.308 463.597 485.369 473.781 484.623 475.412C484.116 476.168 483.385 476.745 482.532 477.063C481.679 477.38 480.747 477.421 479.87 477.18C478.198 476.393 468.055 472.081 468.055 472.081L461.423 473.643L456.697 468.171Z" fill="white" />
	<path d="M456.696 468.171C456.696 468.171 465.774 463.459 468.04 463.528C470.307 463.597 485.368 473.781 484.622 475.412C483.876 477.042 480.311 478.369 479.869 477.18C479.426 475.992 468.054 472.081 468.054 472.081L461.422 473.643L456.696 468.171Z" fill="#E79436" />
	<path opacity="0.5" d="M456.696 468.171C456.696 468.171 465.774 463.459 468.04 463.528C470.307 463.597 485.368 473.781 484.622 475.412C483.876 477.042 480.311 478.369 479.869 477.18C479.426 475.992 468.054 472.081 468.054 472.081L461.422 473.643L456.696 468.171Z" fill="white" />
	<path d="M456.697 468.171C456.697 468.171 465.775 463.459 468.041 463.528C470.308 463.597 485.369 473.781 484.623 475.412C484.116 476.168 483.385 476.745 482.532 477.063C481.679 477.38 480.747 477.421 479.87 477.18C478.198 476.393 468.055 472.081 468.055 472.081L461.423 473.643L456.697 468.171Z" stroke="#263238" stroke-width="1.35575" stroke-linecap="round" stroke-linejoin="round" />
	<path d="M450.215 460.419C450.215 460.419 462.32 460.032 464.724 461.248C467.129 462.464 477.99 481.091 476.359 482.445C474.729 483.799 470.224 483.398 470.362 481.892C470.5 480.386 460.358 470.409 460.358 470.409L452.468 468.682L450.215 460.419Z" fill="white" />
	<path d="M450.216 460.419C450.216 460.419 462.32 460.032 464.725 461.248C467.129 462.464 477.99 481.091 476.36 482.445C474.729 483.799 470.224 483.398 470.363 481.892C470.501 480.386 460.358 470.409 460.358 470.409L452.468 468.682L450.216 460.419Z" fill="#E79436" />
	<path opacity="0.5" d="M450.216 460.419C450.216 460.419 462.32 460.032 464.725 461.248C467.129 462.464 477.99 481.091 476.36 482.445C474.729 483.799 470.224 483.398 470.363 481.892C470.501 480.386 460.358 470.409 460.358 470.409L452.468 468.682L450.216 460.419Z" fill="white" />
	<path d="M450.215 460.419C450.215 460.419 462.32 460.032 464.724 461.248C467.129 462.464 477.99 481.091 476.359 482.445C474.729 483.799 470.224 483.398 470.362 481.892C470.5 480.386 460.358 470.409 460.358 470.409L452.468 468.682L450.215 460.419Z" stroke="#263238" stroke-width="1.35575" stroke-linecap="round" stroke-linejoin="round" />
	<path d="M443.044 457.918C443.044 457.918 455.3 457.517 457.732 458.761C460.164 460.004 471.163 478.838 469.505 480.22C467.847 481.602 463.315 481.174 463.453 479.654C463.591 478.134 453.324 468.033 453.324 468.033L445.338 466.278L443.044 457.918Z" fill="white" />
	<path d="M443.044 457.918C443.044 457.918 455.3 457.517 457.732 458.761C460.164 460.004 471.163 478.838 469.505 480.22C467.847 481.602 463.315 481.174 463.453 479.654C463.591 478.134 453.324 468.033 453.324 468.033L445.338 466.278L443.044 457.918Z" fill="#E79436" />
	<path opacity="0.5" d="M443.044 457.918C443.044 457.918 455.3 457.517 457.732 458.761C460.164 460.004 471.163 478.838 469.505 480.22C467.847 481.602 463.315 481.174 463.453 479.654C463.591 478.134 453.324 468.033 453.324 468.033L445.338 466.278L443.044 457.918Z" fill="white" />
	<path d="M443.044 457.918C443.044 457.918 455.3 457.517 457.732 458.761C460.164 460.004 471.163 478.838 469.505 480.22C467.847 481.602 463.315 481.174 463.453 479.654C463.591 478.134 453.324 468.033 453.324 468.033L445.338 466.278L443.044 457.918Z" stroke="#263238" stroke-width="1.35575" stroke-linecap="round" stroke-linejoin="round" />
	<path d="M303.689 387.696C312.56 401.362 330.372 435.99 335.567 439.886C343.678 445.966 397.9 460.724 403.123 464.759C408.347 468.794 407.987 472.842 412.934 474.321C417.881 475.8 436.425 480.042 443.5 480.705C450.575 481.368 447.41 476.988 447.41 476.988L435.347 468.697L445.863 466.099C445.863 466.099 456.406 478.784 458.382 479.475C460.358 480.166 463.84 479.475 463.619 477.914C463.232 475.413 451.984 454.948 447.991 454.078C443.997 453.207 419.76 456.565 419.76 456.565C419.76 456.565 368.924 422.282 368.012 421.066C368.012 421.066 364.972 412.444 362.485 408.893C359.997 405.341 358.422 406.364 358.422 406.364C358.422 406.364 359.445 401.79 357.925 400.27L349.813 392.159L349.523 392.546C348.142 389.782 346.76 386.632 345.24 383.039C340.998 373.049 325.977 345.012 323.449 340.963C321.556 337.937 305.692 335.767 297.65 334.855" fill="#E79436" />
	<path opacity="0.16" d="M339.008 388.565C345.641 394.452 343.43 394.452 341.951 399.62C340.473 404.788 343.057 397.782 349.316 398.155C355.576 398.528 353.738 406.612 352.992 408.09C352.246 409.569 360.73 411.407 359.252 414.709C357.773 418.012 349.316 422.806 344.535 427.601C339.754 432.396 357.041 419.863 362.927 419.504C364.724 419.38 366.202 419.614 367.446 419.587C366.141 415.889 364.465 412.334 362.444 408.975C359.901 405.423 358.381 406.446 358.381 406.446C358.381 406.446 359.404 401.872 357.884 400.352L349.772 392.241L349.482 392.628C348.101 389.864 346.719 386.714 345.199 383.121C340.957 373.131 325.936 345.094 323.408 341.045C321.515 338.019 305.651 335.849 297.609 334.938L298.342 341.335L298.521 341.473C298.521 341.473 308.457 343.311 311.773 343.684C315.089 344.057 319.138 346.987 318.765 349.212C318.392 351.436 308.83 361.358 311.773 362.104C314.716 362.85 318.032 354.739 321.349 355.844C324.665 356.95 332.334 382.679 339.008 388.565Z" fill="black" />
	<path d="M303.689 387.696C312.56 401.362 330.372 435.99 335.567 439.886C343.678 445.966 397.9 460.724 403.123 464.759C408.347 468.794 407.987 472.842 412.934 474.321C417.881 475.8 436.425 480.042 443.5 480.705C450.575 481.368 447.41 476.988 447.41 476.988L435.347 468.697L445.863 466.099C445.863 466.099 456.406 478.784 458.382 479.475C460.358 480.166 463.84 479.475 463.619 477.914C463.232 475.413 451.984 454.948 447.991 454.078C443.997 453.207 419.76 456.565 419.76 456.565C419.76 456.565 368.924 422.282 368.012 421.066C368.012 421.066 364.972 412.444 362.485 408.893C359.997 405.341 358.422 406.364 358.422 406.364C358.422 406.364 359.445 401.79 357.925 400.27L349.813 392.159L349.523 392.546C348.142 389.782 346.76 386.632 345.24 383.039C340.998 373.049 325.977 345.012 323.449 340.963C321.556 337.937 305.692 335.767 297.65 334.855" stroke="#263238" stroke-width="1.35575" stroke-linecap="round" stroke-linejoin="round" />
	<path d="M303.828 368.942C303.454 370.186 303.137 371.43 302.888 372.701" stroke="#263238" stroke-width="1.35575" stroke-linecap="round" stroke-linejoin="round" />
	<path d="M317.258 346.074C312.916 351.023 309.254 356.53 306.37 362.449" stroke="#263238" stroke-width="1.35575" stroke-linecap="round" stroke-linejoin="round" />
	<path d="M337.557 424.533C341.288 419.005 347.23 412 353.779 409.996" stroke="#263238" stroke-width="1.35575" stroke-linecap="round" stroke-linejoin="round" />
	<path d="M333.426 431.332C333.426 431.332 334.089 430.033 335.277 428.071" stroke="#263238" stroke-width="1.35575" stroke-linecap="round" stroke-linejoin="round" />
	<path d="M333.426 422.599C333.426 422.599 340.21 405.63 346.995 401.264C353.78 396.897 349.897 405.63 349.897 405.63" stroke="#263238" stroke-width="1.35575" stroke-linecap="round" stroke-linejoin="round" />
	<path d="M403.124 464.772C408.361 468.82 407.987 472.855 412.934 474.334C417.881 475.812 436.425 480.055 443.5 480.718C450.575 481.381 447.41 477.001 447.41 477.001L435.347 468.71L445.863 466.112C445.863 466.112 456.406 478.797 458.382 479.488C460.358 480.179 464.116 480.428 463.619 477.927C462.652 473.09 451.984 454.961 447.991 454.09C443.997 453.22 419.76 456.578 419.76 456.578C419.76 456.578 373.456 424.796 368.385 421.355C348.722 423.249 339.367 433.543 335.429 439.72L335.567 439.83C343.678 445.965 397.9 460.723 403.124 464.772Z" fill="white" />
	<path d="M463.605 477.981C461.09 471.832 451.97 455.016 447.977 454.145C443.984 453.275 419.747 456.632 419.747 456.632C419.747 456.632 373.442 424.851 368.371 421.41C363.21 421.859 358.146 423.084 353.351 425.044C360.661 429.19 409.383 456.826 415.532 458.056C422.054 459.437 443.818 455.859 447.645 458.429C450.077 460.059 457.318 471.542 462.21 479.695C463.605 479.487 464.116 479.225 463.605 477.981Z" fill="#E79436" />
	<path opacity="0.5" d="M463.605 477.981C459.681 469.179 451.97 455.016 447.977 454.145C443.984 453.275 419.747 456.632 419.747 456.632C419.747 456.632 373.442 424.851 368.371 421.41C363.21 421.859 358.146 423.084 353.351 425.044C360.661 429.19 409.383 456.826 415.532 458.056C422.054 459.437 443.818 455.859 447.645 458.429C450.077 460.059 457.318 471.542 462.21 479.695C463.605 479.487 464.158 479.211 463.605 477.981Z" fill="white" />
	<path d="M403.124 464.772C408.361 468.82 407.987 472.855 412.934 474.334C417.881 475.812 436.425 480.055 443.5 480.718C450.575 481.381 447.41 477.001 447.41 477.001L435.347 468.71L445.863 466.112C445.863 466.112 456.406 478.797 458.382 479.488C460.358 480.179 464.116 480.428 463.619 477.927C462.652 473.09 451.984 454.961 447.991 454.09C443.997 453.22 419.76 456.578 419.76 456.578C419.76 456.578 373.456 424.796 368.385 421.355C348.722 423.249 339.367 433.543 335.429 439.72L335.567 439.83C343.678 445.965 397.9 460.723 403.124 464.772Z" stroke="#263238" stroke-width="1.35575" stroke-linecap="round" stroke-linejoin="round" />
	<path d="M281 223.481L239.38 240.851C238.876 248.165 237.064 255.33 234.032 262.006C229.113 272.411 231.987 292.102 236.713 302.728C241.439 313.354 262.263 309.195 269.876 307.868C275.04 306.886 280.098 305.41 284.98 303.46C287.202 304.317 289.606 304.594 291.966 304.265C294.325 303.936 296.562 303.013 298.466 301.581C298.466 301.581 276.191 239.054 281 223.481Z" fill="white" />
	<path d="M281 223.481L239.38 240.851C238.875 248.165 237.064 255.33 234.032 262.006C229.113 272.411 231.987 292.102 236.713 302.728C237.504 304.437 238.777 305.877 240.375 306.873V306.072C240.375 306.072 232.65 286.934 234.115 275.893C235.58 264.853 241.853 259.312 242.586 252.333C243.318 245.355 242.945 242.039 256.942 236.885C270.94 231.731 276.813 226.95 278.278 232.09C279.742 237.23 285.643 271.112 289.691 279.21C293.74 287.307 293.367 295.791 287.121 299.453C280.809 303.242 274.045 306.223 266.988 308.324L269.931 307.813C275.095 306.831 280.153 305.355 285.035 303.405C287.257 304.262 289.662 304.539 292.021 304.21C294.38 303.881 296.617 302.957 298.521 301.526C298.521 301.526 276.191 239.054 281 223.481Z" fill="#E79436" />
	<path opacity="0.5" d="M281 223.481L239.38 240.851C238.875 248.165 237.064 255.33 234.032 262.006C229.113 272.411 231.987 292.102 236.713 302.728C237.504 304.437 238.777 305.877 240.375 306.873V306.072C240.375 306.072 232.65 286.934 234.115 275.893C235.58 264.853 241.853 259.312 242.586 252.333C243.318 245.355 242.945 242.039 256.942 236.885C270.94 231.731 276.813 226.95 278.278 232.09C279.742 237.23 285.643 271.112 289.691 279.21C293.74 287.307 293.367 295.791 287.121 299.453C280.809 303.242 274.045 306.223 266.988 308.324L269.931 307.813C275.095 306.831 280.153 305.355 285.035 303.405C287.257 304.262 289.662 304.539 292.021 304.21C294.38 303.881 296.617 302.957 298.521 301.526C298.521 301.526 276.191 239.054 281 223.481Z" fill="white" />
	<path d="M281 223.481L239.38 240.851C238.876 248.165 237.064 255.33 234.032 262.006C229.113 272.411 231.987 292.102 236.713 302.728C241.439 313.354 262.263 309.195 269.876 307.868C275.04 306.886 280.098 305.41 284.98 303.46C287.202 304.317 289.606 304.594 291.966 304.265C294.325 303.936 296.562 303.013 298.466 301.581C298.466 301.581 276.191 239.054 281 223.481Z" stroke="#263238" stroke-width="1.35575" stroke-linecap="round" stroke-linejoin="round" />
	<path d="M259.969 250.717C260.082 253.164 259.778 255.612 259.071 257.957C257.965 260.721 247.533 271.582 247.851 272.757C248.168 273.931 249.108 277.703 250.96 278.063" stroke="#263238" stroke-width="1.35575" stroke-linecap="round" stroke-linejoin="round" />
	<path d="M271.534 260.431C272.985 257.529 277.753 260.361 277.683 266.897" stroke="#263238" stroke-width="1.35575" stroke-linecap="round" stroke-linejoin="round" />
	<path d="M247.906 251.89C247.906 251.89 251.968 250.108 255.602 256.685" stroke="#263238" stroke-width="1.35575" stroke-linecap="round" stroke-linejoin="round" />
	<path d="M265.759 270.006C270.453 270.242 274.917 272.115 278.375 275.298" stroke="#263238" stroke-width="0.677874" stroke-linecap="round" stroke-linejoin="round" />
	<path d="M243.001 261.37C245.428 261.694 247.799 262.35 250.048 263.318" stroke="#263238" stroke-width="0.677874" stroke-linecap="round" stroke-linejoin="round" />
	<path d="M259.513 244.582C258.44 244.015 257.25 243.705 256.036 243.676C254.823 243.647 253.619 243.901 252.521 244.416C248.804 246.199 246.524 248.161 246.772 245.881C247.021 243.601 251.388 241.086 252.7 240.755C254.013 240.423 259.886 239.511 259.513 244.582Z" fill="#263238" />
	<path d="M269.931 239.426C273.805 242.56 276.883 246.566 278.913 251.116C281.677 258.025 283.86 250.48 281.677 245.962C279.493 241.443 273.179 236.635 269.931 239.426Z" fill="#263238" />
	<path d="M299.074 313.395C299.074 316.615 297.25 319.226 295.012 319.226C292.773 319.226 290.963 316.615 290.963 313.395C290.963 310.176 292.773 301.981 295.012 301.981C297.25 301.981 299.074 310.176 299.074 313.395Z" fill="#E79436" stroke="#263238" stroke-width="1.35575" stroke-linecap="round" stroke-linejoin="round" />
	<path d="M271.894 259.173C271.735 259.595 271.61 260.03 271.521 260.472C271.12 262.517 270.719 266.787 271.521 266.966C272.322 267.146 274.284 263.152 274.63 261.107C274.707 260.706 274.754 260.3 274.768 259.891C273.825 259.596 272.865 259.356 271.894 259.173Z" fill="#263238" />
	<path d="M248.321 251.492C248.198 251.853 248.101 252.222 248.031 252.597C247.616 254.642 247.63 259.133 248.501 259.299C249.371 259.465 250.794 255.264 251.195 253.219C251.295 252.723 251.351 252.219 251.361 251.713C250.372 251.441 249.339 251.366 248.321 251.492V251.492Z" fill="#263238" />
	<path d="M271.534 260.499L272.916 257.929C275.107 258.355 277.092 259.503 278.554 261.19" stroke="#263238" stroke-width="1.01681" stroke-linecap="round" stroke-linejoin="round" />
	<path d="M248.32 251.489L249.702 249.873C249.702 249.873 250.296 249.582 253.557 251.061" stroke="#263238" stroke-width="1.01681" stroke-linecap="round" stroke-linejoin="round" />
	<path d="M243.083 288.964C243.083 288.964 245.405 284.694 248.514 284.694C251.623 284.694 253.944 291.672 253.944 291.672" stroke="#263238" stroke-width="1.35575" stroke-linecap="round" stroke-linejoin="round" />
	<path d="M143.026 473.102C140.022 472.953 137.07 472.25 134.321 471.029C133.937 470.888 133.587 470.669 133.291 470.388C132.994 470.106 132.758 469.767 132.597 469.392C132.436 469.016 132.353 468.611 132.353 468.203C132.353 467.794 132.437 467.389 132.598 467.014C132.76 466.638 132.996 466.3 133.292 466.018C133.589 465.737 133.94 465.519 134.323 465.378C134.707 465.236 135.115 465.174 135.523 465.196C135.931 465.217 136.331 465.321 136.697 465.502C139.461 466.677 143.04 467.409 143.993 466.994C145.748 465.032 148.443 453.176 144.961 447.456C144.173 446.184 143.441 445.95 142.957 445.894C140.981 445.618 138.052 447.649 137.015 448.658C136.727 448.93 136.387 449.143 136.017 449.284C135.646 449.425 135.251 449.492 134.855 449.48C134.458 449.468 134.068 449.379 133.706 449.217C133.344 449.054 133.018 448.822 132.746 448.534C132.473 448.245 132.261 447.906 132.12 447.535C131.979 447.164 131.912 446.769 131.923 446.373C131.935 445.976 132.024 445.586 132.187 445.224C132.349 444.862 132.581 444.536 132.87 444.264C133.409 443.739 138.397 439.248 143.717 439.966C145.036 440.159 146.294 440.653 147.391 441.41C148.489 442.168 149.397 443.168 150.046 444.333C155.172 452.693 151.662 468.597 147.724 471.748C146.356 472.716 144.7 473.193 143.026 473.102V473.102Z" fill="white" />
	<path d="M147.075 446.543C146.713 445.685 146.146 444.929 145.423 444.341C144.7 443.753 143.844 443.352 142.93 443.172C139.476 442.619 136.228 446.087 135.869 446.474C135.539 446.872 135.335 447.36 135.283 447.874C135.231 448.388 135.334 448.907 135.579 449.362C136.122 449.253 136.625 448.995 137.03 448.616C138.066 447.649 140.996 445.618 142.972 445.853C143.455 445.853 144.188 446.143 144.975 447.414C148.457 453.079 145.763 464.991 144.008 466.953C143.054 467.367 139.489 466.635 136.712 465.46C136.37 465.317 136.005 465.237 135.634 465.225C135.659 465.604 135.779 465.971 135.981 466.292C136.184 466.612 136.464 466.878 136.795 467.063C138.542 467.996 140.469 468.543 142.446 468.666C143.575 468.72 144.679 468.334 145.528 467.588C148.126 465.198 150.419 452.969 147.075 446.543Z" fill="#E79436" />
	<path opacity="0.5" d="M147.075 446.543C146.713 445.685 146.146 444.929 145.423 444.341C144.7 443.753 143.844 443.352 142.93 443.172C139.476 442.619 136.228 446.087 135.869 446.474C135.539 446.872 135.335 447.36 135.283 447.874C135.231 448.388 135.334 448.907 135.579 449.362C136.122 449.253 136.625 448.995 137.03 448.616C138.066 447.649 140.996 445.618 142.972 445.853C143.455 445.853 144.188 446.143 144.975 447.414C148.457 453.079 145.763 464.991 144.008 466.953C143.054 467.367 139.489 466.635 136.712 465.46C136.37 465.317 136.005 465.237 135.634 465.225C135.659 465.604 135.779 465.971 135.981 466.292C136.184 466.612 136.464 466.878 136.795 467.063C138.542 467.996 140.469 468.543 142.446 468.666C143.575 468.72 144.679 468.334 145.528 467.588C148.126 465.198 150.419 452.969 147.075 446.543Z" fill="white" />
	<path d="M143.026 473.102C140.022 472.953 137.07 472.25 134.321 471.029C133.937 470.888 133.587 470.669 133.291 470.388C132.994 470.106 132.758 469.767 132.597 469.392C132.436 469.016 132.353 468.611 132.353 468.203C132.353 467.794 132.437 467.389 132.598 467.014C132.76 466.638 132.996 466.3 133.292 466.018C133.589 465.737 133.94 465.519 134.323 465.378C134.707 465.236 135.115 465.174 135.523 465.196C135.931 465.217 136.331 465.321 136.697 465.502C139.461 466.677 143.04 467.409 143.993 466.994C145.748 465.032 148.443 453.176 144.961 447.456C144.173 446.184 143.441 445.95 142.957 445.894C140.981 445.618 138.052 447.649 137.015 448.658C136.727 448.93 136.387 449.143 136.017 449.284C135.646 449.425 135.251 449.492 134.855 449.48C134.458 449.468 134.068 449.379 133.706 449.217C133.344 449.054 133.018 448.822 132.746 448.534C132.473 448.245 132.261 447.906 132.12 447.535C131.979 447.164 131.912 446.769 131.923 446.373C131.935 445.976 132.024 445.586 132.187 445.224C132.349 444.862 132.581 444.536 132.87 444.264C133.409 443.739 138.397 439.248 143.717 439.966C145.036 440.159 146.294 440.653 147.391 441.41C148.489 442.168 149.397 443.168 150.046 444.333C155.172 452.693 151.662 468.597 147.724 471.748C146.356 472.716 144.7 473.193 143.026 473.102V473.102Z" stroke="#263238" stroke-width="1.35575" stroke-linecap="round" stroke-linejoin="round" />
	<path d="M137.748 437.451H104.516V481.558H137.748V437.451Z" fill="white" />
	<path d="M118.127 437.451H104.516V481.558H118.127V437.451Z" fill="#E79436" />
	<path opacity="0.5" d="M118.127 437.451H104.516V481.558H118.127V437.451Z" fill="white" />
	<path d="M137.748 437.451H104.516V481.558H137.748V437.451Z" stroke="#263238" stroke-width="1.35575" stroke-linecap="round" stroke-linejoin="round" />
	<path d="M320.367 480.95H178.401L173.772 402.905C173.644 402.149 173.682 401.373 173.882 400.632C174.083 399.892 174.442 399.203 174.935 398.615C175.427 398.026 176.042 397.552 176.736 397.224C177.429 396.896 178.186 396.722 178.954 396.715H319.759C320.531 396.714 321.294 396.882 321.995 397.206C322.696 397.531 323.317 398.004 323.815 398.594C324.314 399.183 324.678 399.875 324.882 400.619C325.086 401.364 325.125 402.144 324.996 402.905L320.367 480.95Z" fill="#263238" stroke="#263238" stroke-width="1.35575" stroke-linecap="round" stroke-linejoin="round" />
	<path d="M185.394 398.581H318.738C319.491 398.574 320.237 398.731 320.923 399.041C321.609 399.352 322.219 399.809 322.71 400.381C323.201 400.952 323.561 401.624 323.765 402.349C323.969 403.074 324.013 403.835 323.892 404.578" stroke="white" stroke-width="1.35575" stroke-linecap="round" stroke-linejoin="round" />
	<path d="M174.809 403.348C174.92 402.042 175.519 400.826 176.487 399.943C177.456 399.059 178.721 398.573 180.032 398.581" stroke="white" stroke-width="1.35575" stroke-linecap="round" stroke-linejoin="round" />
	<path d="M320.962 473.351H177.807V480.951H320.962V473.351Z" fill="white" stroke="#263238" stroke-width="1.35575" stroke-linecap="round" stroke-linejoin="round" />
	<path d="M248.873 445.216C254.475 445.216 259.016 442.493 259.016 439.136C259.016 435.778 254.475 433.056 248.873 433.056C243.272 433.056 238.731 435.778 238.731 439.136C238.731 442.493 243.272 445.216 248.873 445.216Z" fill="white" stroke="#263238" stroke-width="1.35575" stroke-linecap="round" stroke-linejoin="round" />
	<path d="M536.882 480.053H3.69922V493H536.882V480.053Z" fill="#263238" />
	<path d="M398.633 0H142.128C133.482 0 126.472 7.00936 126.472 15.6558V162.832C126.472 171.478 133.482 178.488 142.128 178.488H398.633C407.279 178.488 414.288 171.478 414.288 162.832V15.6558C414.288 7.00936 407.279 0 398.633 0Z" fill="#E79436" />
	<path d="M277.148 102.57C300.416 98.831 316.247 76.9377 312.507 53.6702C308.768 30.4027 286.875 14.572 263.607 18.3113C240.34 22.0507 224.509 43.9441 228.248 67.2115C231.988 90.479 253.881 106.31 277.148 102.57Z" fill="#263238" />
	<path d="M270.056 68.3297L255.837 86.5834C255.354 87.3432 254.689 87.9709 253.902 88.4099C253.116 88.8489 252.233 89.0855 251.332 89.0982C250.097 89.1151 248.905 88.6433 248.016 87.7855C247.564 87.3709 247.207 86.8638 246.968 86.2987C246.73 85.7336 246.616 85.1238 246.634 84.5107C246.679 83.1377 247.163 81.8153 248.016 80.7383L264.225 60.6884L249.025 40.6246C248.318 39.683 247.931 38.5405 247.919 37.3635C247.916 36.6615 248.058 35.9664 248.336 35.322C248.614 34.6775 249.023 34.0976 249.536 33.6188C250.018 33.1154 250.597 32.7151 251.239 32.4419C251.88 32.1688 252.57 32.0286 253.267 32.0297C254.16 32.0442 255.034 32.2819 255.812 32.7212C256.589 33.1605 257.244 33.7874 257.716 34.5446L271.451 52.6324L285.269 34.8486C285.763 34.019 286.454 33.3239 287.281 32.825C288.108 32.326 289.045 32.0387 290.009 31.9883C290.608 31.9868 291.2 32.1087 291.749 32.3465C292.298 32.5843 292.793 32.9327 293.201 33.3701C293.636 33.7801 293.984 34.2747 294.221 34.8235C294.459 35.3724 294.582 35.964 294.583 36.5621C294.568 37.6323 294.199 38.6675 293.533 39.5053L277.269 60.3153L292.98 81.0423C293.723 81.9688 294.136 83.1161 294.154 84.3034C294.159 84.9899 294.014 85.6692 293.73 86.2943C293.446 86.9194 293.03 87.4754 292.51 87.9237C291.496 88.8987 290.144 89.4434 288.738 89.4437C287.841 89.4326 286.961 89.1965 286.179 88.7571C285.396 88.3177 284.737 87.6891 284.261 86.9288L270.056 68.3297Z" fill="white" />
	<path d="M351.679 147.577H189.027C185.729 147.577 182.566 146.266 180.233 143.934C177.901 141.602 176.591 138.439 176.591 135.14V135.14C176.591 131.842 177.901 128.679 180.233 126.347C182.566 124.014 185.729 122.704 189.027 122.704H351.679C354.977 122.704 358.141 124.014 360.473 126.347C362.805 128.679 364.115 131.842 364.115 135.14V135.14C364.115 138.439 362.805 141.602 360.473 143.934C358.141 146.266 354.977 147.577 351.679 147.577V147.577Z" fill="white" />
	<path d="M211.315 139.146C211.207 139.146 211.099 139.124 210.999 139.081C210.9 139.038 210.81 138.976 210.735 138.897C210.653 138.816 210.589 138.719 210.546 138.612C210.503 138.505 210.483 138.391 210.486 138.275C210.486 138.081 210.538 137.89 210.638 137.723L211.882 135.788H209.339C209.222 135.794 209.104 135.775 208.995 135.732C208.885 135.689 208.786 135.624 208.704 135.539C208.561 135.374 208.483 135.163 208.483 134.945C208.483 134.727 208.561 134.516 208.704 134.351C208.786 134.267 208.885 134.201 208.995 134.158C209.104 134.115 209.222 134.096 209.339 134.102L211.84 134.171L210.735 132.375C210.624 132.191 210.562 131.982 210.555 131.767C210.552 131.652 210.572 131.537 210.615 131.43C210.658 131.323 210.722 131.226 210.804 131.145C210.881 131.066 210.974 131.004 211.076 130.961C211.178 130.918 211.287 130.896 211.398 130.897C211.553 130.894 211.705 130.938 211.835 131.021C211.965 131.105 212.068 131.225 212.13 131.366L213.346 133.536L214.507 131.463C214.58 131.302 214.696 131.164 214.842 131.064C214.989 130.964 215.159 130.906 215.336 130.897C215.445 130.897 215.552 130.919 215.652 130.961C215.752 131.004 215.842 131.067 215.917 131.145C215.998 131.221 216.062 131.313 216.104 131.416C216.147 131.518 216.168 131.628 216.165 131.739C216.163 131.936 216.106 132.127 215.999 132.292L214.783 134.241L217.312 134.171C217.43 134.165 217.548 134.183 217.657 134.226C217.767 134.269 217.866 134.335 217.948 134.42C218.09 134.586 218.168 134.796 218.168 135.014C218.168 135.232 218.09 135.443 217.948 135.609C217.866 135.693 217.767 135.76 217.657 135.803C217.548 135.846 217.43 135.864 217.312 135.857H214.756L215.889 137.626C216.017 137.839 216.088 138.082 216.096 138.331C216.1 138.443 216.081 138.554 216.041 138.659C216.001 138.763 215.939 138.858 215.861 138.939C215.789 139.016 215.701 139.078 215.603 139.121C215.506 139.164 215.401 139.186 215.295 139.187C215.124 139.183 214.957 139.13 214.815 139.035C214.673 138.939 214.562 138.805 214.493 138.648L213.346 136.617L212.199 138.648C212.117 138.808 211.989 138.941 211.832 139.029C211.674 139.118 211.495 139.158 211.315 139.146V139.146Z" fill="black" />
	<path d="M224.001 139.148C223.892 139.148 223.785 139.126 223.685 139.083C223.585 139.04 223.495 138.978 223.42 138.899C223.339 138.818 223.274 138.721 223.232 138.614C223.189 138.507 223.168 138.392 223.172 138.277C223.171 138.083 223.224 137.892 223.324 137.724L224.567 135.79H222.025C221.907 135.796 221.79 135.777 221.68 135.734C221.571 135.691 221.471 135.625 221.389 135.541C221.247 135.376 221.169 135.165 221.169 134.947C221.169 134.729 221.247 134.518 221.389 134.353C221.471 134.269 221.571 134.203 221.68 134.16C221.79 134.117 221.907 134.098 222.025 134.104L224.526 134.173L223.351 132.308C223.24 132.124 223.179 131.914 223.172 131.7C223.168 131.585 223.189 131.47 223.232 131.363C223.274 131.256 223.339 131.159 223.42 131.078C223.498 130.999 223.59 130.936 223.692 130.893C223.794 130.851 223.904 130.829 224.014 130.829C224.169 130.827 224.321 130.87 224.451 130.954C224.582 131.037 224.684 131.157 224.747 131.299L225.963 133.468L227.124 131.396C227.197 131.234 227.313 131.096 227.459 130.996C227.605 130.897 227.776 130.839 227.953 130.829C228.061 130.829 228.169 130.851 228.268 130.894C228.368 130.937 228.458 130.999 228.533 131.078C228.614 131.154 228.678 131.246 228.721 131.348C228.764 131.451 228.784 131.561 228.782 131.672C228.78 131.868 228.722 132.06 228.616 132.225L227.4 134.173L229.929 134.104C230.046 134.097 230.164 134.116 230.274 134.159C230.383 134.202 230.483 134.268 230.564 134.353C230.706 134.518 230.784 134.729 230.784 134.947C230.784 135.165 230.706 135.376 230.564 135.541C230.483 135.626 230.383 135.692 230.274 135.735C230.164 135.778 230.046 135.797 229.929 135.79H227.372L228.505 137.559C228.633 137.772 228.705 138.015 228.713 138.263C228.717 138.375 228.698 138.487 228.657 138.591C228.617 138.696 228.556 138.791 228.478 138.871C228.405 138.949 228.317 139.011 228.22 139.054C228.123 139.096 228.017 139.119 227.911 139.12C227.74 139.118 227.573 139.065 227.43 138.97C227.288 138.874 227.177 138.739 227.11 138.581L225.963 136.55L224.816 138.581C224.748 138.743 224.635 138.883 224.491 138.983C224.346 139.083 224.176 139.14 224.001 139.148V139.148Z" fill="black" />
	<path d="M236.685 139.148C236.576 139.148 236.469 139.126 236.369 139.083C236.27 139.04 236.18 138.978 236.105 138.899C236.023 138.818 235.959 138.721 235.916 138.614C235.873 138.507 235.853 138.392 235.856 138.277C235.856 138.083 235.908 137.892 236.008 137.724L237.252 135.79H234.709C234.592 135.796 234.474 135.777 234.364 135.734C234.255 135.691 234.156 135.625 234.073 135.541C233.931 135.376 233.853 135.165 233.853 134.947C233.853 134.729 233.931 134.518 234.073 134.353C234.156 134.269 234.255 134.203 234.364 134.16C234.474 134.117 234.592 134.098 234.709 134.104L237.21 134.173L236.036 132.308C235.925 132.124 235.863 131.914 235.856 131.7C235.853 131.585 235.873 131.47 235.916 131.363C235.959 131.256 236.023 131.159 236.105 131.078C236.182 130.999 236.275 130.936 236.377 130.893C236.479 130.851 236.588 130.829 236.699 130.829C236.854 130.827 237.006 130.87 237.136 130.954C237.266 131.037 237.369 131.157 237.431 131.299L238.647 133.468L239.808 131.396C239.881 131.234 239.997 131.096 240.143 130.996C240.289 130.897 240.46 130.839 240.637 130.829C240.746 130.829 240.853 130.851 240.953 130.894C241.052 130.937 241.142 130.999 241.217 131.078C241.298 131.154 241.362 131.246 241.405 131.348C241.448 131.451 241.469 131.561 241.466 131.672C241.464 131.868 241.407 132.06 241.3 132.225L240.084 134.173L242.613 134.104C242.731 134.097 242.848 134.116 242.958 134.159C243.068 134.202 243.167 134.268 243.249 134.353C243.391 134.518 243.469 134.729 243.469 134.947C243.469 135.165 243.391 135.376 243.249 135.541C243.167 135.626 243.068 135.692 242.958 135.735C242.848 135.778 242.731 135.797 242.613 135.79H240.057L241.19 137.559C241.318 137.772 241.389 138.015 241.397 138.263C241.401 138.375 241.382 138.487 241.342 138.591C241.301 138.696 241.24 138.791 241.162 138.871C241.089 138.949 241.002 139.011 240.904 139.054C240.807 139.096 240.702 139.119 240.596 139.12C240.424 139.118 240.257 139.065 240.115 138.97C239.972 138.874 239.861 138.739 239.794 138.581L238.647 136.55L237.5 138.581C237.432 138.743 237.319 138.883 237.175 138.983C237.031 139.083 236.861 139.14 236.685 139.148V139.148Z" fill="black" />
	<path d="M249.426 139.148C249.317 139.148 249.21 139.126 249.11 139.083C249.01 139.04 248.92 138.978 248.845 138.899C248.764 138.818 248.699 138.721 248.657 138.614C248.614 138.507 248.593 138.392 248.597 138.277C248.596 138.083 248.649 137.892 248.749 137.724L249.992 135.79H247.45C247.332 135.796 247.215 135.777 247.105 135.734C246.996 135.691 246.896 135.625 246.814 135.541C246.672 135.376 246.594 135.165 246.594 134.947C246.594 134.729 246.672 134.518 246.814 134.353C246.896 134.269 246.996 134.203 247.105 134.16C247.215 134.117 247.332 134.098 247.45 134.104L249.951 134.173L248.776 132.308C248.665 132.124 248.604 131.914 248.597 131.7C248.593 131.585 248.614 131.47 248.657 131.363C248.699 131.256 248.764 131.159 248.845 131.078C248.923 130.999 249.015 130.936 249.117 130.893C249.219 130.851 249.329 130.829 249.44 130.829C249.594 130.827 249.746 130.87 249.876 130.954C250.007 131.037 250.109 131.157 250.172 131.299L251.388 133.468L252.549 131.396C252.622 131.234 252.738 131.096 252.884 130.996C253.03 130.897 253.201 130.839 253.378 130.829C253.486 130.829 253.594 130.851 253.693 130.894C253.793 130.937 253.883 130.999 253.958 131.078C254.039 131.154 254.103 131.246 254.146 131.348C254.189 131.451 254.21 131.561 254.207 131.672C254.205 131.868 254.147 132.06 254.041 132.225L252.825 134.173L255.354 134.104C255.471 134.097 255.589 134.116 255.699 134.159C255.809 134.202 255.908 134.268 255.989 134.353C256.131 134.518 256.209 134.729 256.209 134.947C256.209 135.165 256.131 135.376 255.989 135.541C255.908 135.626 255.809 135.692 255.699 135.735C255.589 135.778 255.471 135.797 255.354 135.79H252.797L253.93 137.559C254.058 137.772 254.13 138.015 254.138 138.263C254.142 138.375 254.123 138.487 254.082 138.591C254.042 138.696 253.981 138.791 253.903 138.871C253.83 138.949 253.742 139.011 253.645 139.054C253.548 139.096 253.443 139.119 253.336 139.12C253.165 139.116 252.999 139.063 252.857 138.967C252.715 138.872 252.603 138.738 252.535 138.581L251.388 136.55L250.241 138.581C250.173 138.743 250.06 138.883 249.916 138.983C249.771 139.083 249.601 139.14 249.426 139.148V139.148Z" fill="black" />
	<path d="M262.055 139.148C261.947 139.148 261.839 139.126 261.739 139.083C261.64 139.04 261.55 138.978 261.475 138.899C261.393 138.818 261.329 138.721 261.286 138.614C261.243 138.507 261.223 138.392 261.226 138.277C261.232 138.083 261.285 137.894 261.378 137.724L262.622 135.79H260.079C259.962 135.796 259.844 135.777 259.735 135.734C259.625 135.691 259.526 135.625 259.444 135.541C259.301 135.376 259.223 135.165 259.223 134.947C259.223 134.729 259.301 134.518 259.444 134.353C259.526 134.269 259.625 134.203 259.735 134.16C259.844 134.117 259.962 134.098 260.079 134.104L262.58 134.173L261.406 132.308C261.295 132.124 261.233 131.914 261.226 131.7C261.223 131.585 261.243 131.47 261.286 131.363C261.329 131.256 261.393 131.159 261.475 131.078C261.552 130.999 261.645 130.936 261.747 130.894C261.849 130.851 261.958 130.829 262.069 130.829C262.224 130.827 262.376 130.87 262.506 130.954C262.636 131.037 262.739 131.157 262.801 131.299L264.017 133.468L265.178 131.396C265.251 131.234 265.367 131.096 265.513 130.996C265.659 130.897 265.83 130.839 266.007 130.829C266.116 130.828 266.224 130.849 266.324 130.892C266.424 130.935 266.514 130.998 266.587 131.078C266.668 131.154 266.732 131.246 266.775 131.348C266.818 131.451 266.839 131.561 266.836 131.672C266.834 131.868 266.777 132.06 266.67 132.225L265.454 134.173L267.983 134.104C268.101 134.097 268.218 134.116 268.328 134.159C268.438 134.202 268.537 134.268 268.619 134.353C268.761 134.518 268.839 134.729 268.839 134.947C268.839 135.165 268.761 135.376 268.619 135.541C268.537 135.626 268.438 135.692 268.328 135.735C268.218 135.778 268.101 135.797 267.983 135.79H265.427L266.56 137.559C266.688 137.772 266.759 138.015 266.767 138.263C266.771 138.375 266.752 138.487 266.712 138.591C266.672 138.696 266.61 138.791 266.532 138.871C266.459 138.949 266.372 139.011 266.274 139.054C266.177 139.096 266.072 139.119 265.966 139.12C265.795 139.116 265.628 139.063 265.486 138.967C265.344 138.872 265.233 138.738 265.164 138.581L264.017 136.55L262.87 138.581C262.802 138.743 262.689 138.883 262.545 138.983C262.401 139.083 262.231 139.14 262.055 139.148V139.148Z" fill="black" />
	<path d="M274.74 139.148C274.632 139.148 274.524 139.126 274.424 139.083C274.325 139.04 274.235 138.978 274.16 138.899C274.078 138.818 274.014 138.721 273.971 138.614C273.928 138.507 273.908 138.392 273.911 138.277C273.918 138.083 273.97 137.894 274.063 137.724L275.307 135.79H272.778C272.658 135.797 272.538 135.779 272.426 135.736C272.314 135.693 272.213 135.626 272.129 135.541C271.987 135.376 271.908 135.165 271.908 134.947C271.908 134.729 271.987 134.518 272.129 134.353C272.213 134.268 272.314 134.201 272.426 134.158C272.538 134.115 272.658 134.097 272.778 134.104L275.265 134.173L274.091 132.308C273.98 132.124 273.918 131.914 273.911 131.7C273.908 131.585 273.928 131.47 273.971 131.363C274.014 131.256 274.078 131.159 274.16 131.078C274.237 130.999 274.33 130.936 274.432 130.894C274.534 130.851 274.643 130.829 274.754 130.829C274.909 130.827 275.061 130.87 275.191 130.954C275.321 131.037 275.424 131.157 275.486 131.299L276.702 133.468L277.863 131.396C277.936 131.234 278.052 131.096 278.198 130.996C278.345 130.897 278.515 130.839 278.692 130.829C278.801 130.828 278.909 130.849 279.009 130.892C279.109 130.935 279.199 130.998 279.272 131.078C279.353 131.154 279.417 131.246 279.46 131.348C279.503 131.451 279.524 131.561 279.521 131.672C279.519 131.868 279.462 132.06 279.355 132.225L278.139 134.173L280.668 134.104C280.786 134.097 280.903 134.116 281.013 134.159C281.123 134.202 281.222 134.268 281.304 134.353C281.446 134.518 281.524 134.729 281.524 134.947C281.524 135.165 281.446 135.376 281.304 135.541C281.222 135.626 281.123 135.692 281.013 135.735C280.903 135.778 280.786 135.797 280.668 135.79H278.112L279.245 137.559C279.373 137.772 279.444 138.015 279.452 138.263C279.456 138.375 279.437 138.487 279.397 138.591C279.357 138.696 279.295 138.791 279.217 138.871C279.144 138.949 279.057 139.011 278.959 139.054C278.862 139.096 278.757 139.119 278.651 139.12C278.48 139.116 278.313 139.063 278.171 138.967C278.029 138.872 277.918 138.738 277.849 138.581L276.702 136.55L275.555 138.581C275.487 138.743 275.375 138.883 275.23 138.983C275.086 139.083 274.916 139.14 274.74 139.148V139.148Z" fill="black" />
	<path d="M287.425 139.146C287.317 139.146 287.21 139.124 287.11 139.081C287.01 139.038 286.92 138.976 286.845 138.897C286.763 138.816 286.699 138.719 286.656 138.612C286.614 138.505 286.593 138.391 286.596 138.275C286.596 138.081 286.649 137.89 286.748 137.723L287.992 135.788H285.449C285.332 135.794 285.214 135.775 285.105 135.732C284.995 135.689 284.896 135.624 284.814 135.539C284.672 135.374 284.594 135.163 284.594 134.945C284.594 134.727 284.672 134.516 284.814 134.351C284.896 134.267 284.995 134.201 285.105 134.158C285.214 134.115 285.332 134.096 285.449 134.102L287.951 134.171L286.735 132.375C286.624 132.191 286.562 131.982 286.555 131.767C286.552 131.652 286.572 131.537 286.615 131.43C286.658 131.323 286.722 131.226 286.804 131.145C286.881 131.066 286.974 131.004 287.076 130.961C287.178 130.918 287.287 130.896 287.398 130.897C287.553 130.894 287.705 130.938 287.835 131.021C287.965 131.105 288.068 131.225 288.13 131.366L289.346 133.536L290.507 131.463C290.58 131.302 290.696 131.164 290.842 131.064C290.988 130.964 291.159 130.906 291.336 130.897C291.445 130.895 291.553 130.916 291.653 130.959C291.753 131.002 291.843 131.065 291.916 131.145C291.997 131.221 292.061 131.313 292.104 131.416C292.147 131.518 292.168 131.629 292.165 131.739C292.163 131.936 292.106 132.127 291.999 132.292L290.783 134.241L293.312 134.171C293.43 134.165 293.547 134.183 293.657 134.226C293.767 134.269 293.866 134.335 293.948 134.42C294.09 134.586 294.168 134.796 294.168 135.014C294.168 135.232 294.09 135.443 293.948 135.609C293.866 135.693 293.767 135.76 293.657 135.803C293.547 135.846 293.43 135.864 293.312 135.857H290.756L291.889 137.626C292.017 137.839 292.088 138.082 292.096 138.331C292.1 138.443 292.081 138.554 292.041 138.659C292 138.763 291.939 138.858 291.861 138.939C291.788 139.016 291.701 139.078 291.603 139.121C291.506 139.164 291.401 139.186 291.294 139.187C291.123 139.183 290.957 139.13 290.815 139.035C290.673 138.939 290.561 138.805 290.493 138.648L289.346 136.617L288.199 138.648C288.125 138.792 288.014 138.913 287.879 139C287.743 139.087 287.587 139.138 287.425 139.146V139.146Z" fill="black" />
	<path d="M300.11 139.148C300.002 139.148 299.894 139.126 299.794 139.083C299.695 139.04 299.605 138.978 299.53 138.899C299.448 138.818 299.384 138.721 299.341 138.614C299.298 138.507 299.278 138.393 299.281 138.277C299.287 138.084 299.34 137.894 299.433 137.725L300.677 135.79H298.148C298.03 135.799 297.912 135.781 297.802 135.738C297.692 135.695 297.593 135.628 297.512 135.541C297.362 135.38 297.278 135.168 297.278 134.947C297.278 134.727 297.362 134.514 297.512 134.353C297.593 134.267 297.692 134.199 297.802 134.156C297.912 134.113 298.03 134.095 298.148 134.104L300.635 134.173L299.461 132.308C299.35 132.124 299.288 131.915 299.281 131.7C299.277 131.587 299.296 131.474 299.337 131.369C299.378 131.263 299.439 131.167 299.518 131.086C299.597 131.005 299.691 130.94 299.795 130.896C299.899 130.852 300.011 130.829 300.124 130.829C300.279 130.827 300.431 130.871 300.561 130.954C300.691 131.038 300.794 131.158 300.856 131.299L302.072 133.469L303.233 131.396C303.306 131.235 303.422 131.097 303.568 130.997C303.714 130.897 303.885 130.839 304.062 130.829C304.171 130.826 304.28 130.846 304.38 130.889C304.48 130.932 304.57 130.997 304.642 131.078C304.723 131.154 304.788 131.246 304.83 131.349C304.873 131.451 304.894 131.561 304.891 131.672C304.889 131.869 304.832 132.06 304.725 132.225L303.509 134.173L306.038 134.104C306.156 134.097 306.273 134.116 306.383 134.159C306.493 134.202 306.592 134.268 306.674 134.353C306.816 134.518 306.894 134.729 306.894 134.947C306.894 135.165 306.816 135.376 306.674 135.541C306.592 135.626 306.493 135.693 306.383 135.736C306.273 135.778 306.156 135.797 306.038 135.79H303.482L304.615 137.559C304.743 137.772 304.814 138.015 304.822 138.264C304.826 138.372 304.808 138.481 304.77 138.583C304.731 138.685 304.673 138.779 304.599 138.858C304.525 138.938 304.435 139.002 304.336 139.047C304.237 139.092 304.13 139.117 304.021 139.12C303.85 139.116 303.683 139.063 303.541 138.968C303.399 138.872 303.288 138.738 303.219 138.581L302.072 136.55L300.925 138.581C300.857 138.744 300.745 138.883 300.6 138.983C300.456 139.084 300.286 139.141 300.11 139.148V139.148Z" fill="black" />
	<path d="M312.795 139.148C312.687 139.148 312.579 139.126 312.48 139.083C312.38 139.04 312.29 138.978 312.215 138.899C312.133 138.818 312.069 138.721 312.026 138.614C311.983 138.507 311.963 138.393 311.966 138.277C311.973 138.084 312.025 137.894 312.118 137.725L313.362 135.79H310.819C310.704 135.797 310.588 135.778 310.481 135.735C310.373 135.692 310.276 135.626 310.197 135.541C310.047 135.38 309.963 135.168 309.963 134.947C309.963 134.727 310.047 134.514 310.197 134.353C310.276 134.268 310.373 134.202 310.481 134.159C310.588 134.116 310.704 134.098 310.819 134.104L313.32 134.173L312.146 132.308C312.035 132.124 311.973 131.915 311.966 131.7C311.962 131.587 311.982 131.474 312.022 131.369C312.063 131.263 312.124 131.167 312.203 131.086C312.282 131.005 312.376 130.94 312.48 130.896C312.584 130.852 312.696 130.829 312.809 130.829C312.964 130.827 313.116 130.871 313.246 130.954C313.376 131.038 313.479 131.158 313.541 131.299L314.757 133.469L315.918 131.396C315.991 131.235 316.107 131.097 316.253 130.997C316.4 130.897 316.57 130.839 316.747 130.829C316.856 130.826 316.965 130.846 317.065 130.889C317.165 130.932 317.255 130.997 317.328 131.078C317.409 131.154 317.473 131.246 317.515 131.349C317.558 131.451 317.579 131.561 317.576 131.672C317.574 131.869 317.517 132.06 317.41 132.225L316.194 134.173L318.723 134.104C318.841 134.097 318.959 134.116 319.068 134.159C319.178 134.202 319.277 134.268 319.359 134.353C319.501 134.518 319.579 134.729 319.579 134.947C319.579 135.165 319.501 135.376 319.359 135.541C319.277 135.626 319.178 135.693 319.068 135.736C318.959 135.778 318.841 135.797 318.723 135.79H316.167L317.3 137.559C317.428 137.772 317.499 138.015 317.507 138.264C317.511 138.372 317.493 138.481 317.455 138.583C317.417 138.685 317.358 138.779 317.284 138.858C317.21 138.938 317.12 139.002 317.021 139.047C316.922 139.092 316.815 139.117 316.706 139.12C316.535 139.116 316.368 139.063 316.226 138.968C316.084 138.872 315.973 138.738 315.904 138.581L314.757 136.55L313.611 138.581C313.542 138.744 313.43 138.883 313.285 138.983C313.141 139.084 312.971 139.141 312.795 139.148V139.148Z" fill="black" />
	<path d="M325.425 139.148C325.317 139.148 325.209 139.126 325.11 139.083C325.01 139.04 324.92 138.978 324.845 138.899C324.763 138.818 324.699 138.721 324.656 138.614C324.613 138.507 324.593 138.393 324.596 138.277C324.603 138.084 324.655 137.894 324.748 137.725L325.992 135.79H323.449C323.334 135.797 323.218 135.778 323.111 135.735C323.003 135.692 322.907 135.626 322.828 135.541C322.677 135.38 322.593 135.168 322.593 134.947C322.593 134.727 322.677 134.514 322.828 134.353C322.907 134.268 323.003 134.202 323.111 134.159C323.218 134.116 323.334 134.098 323.449 134.104L325.95 134.173L324.776 132.308C324.665 132.124 324.603 131.915 324.596 131.7C324.593 131.585 324.613 131.47 324.656 131.363C324.699 131.256 324.763 131.159 324.845 131.078C324.922 130.999 325.015 130.937 325.117 130.894C325.219 130.851 325.329 130.829 325.439 130.829C325.594 130.827 325.746 130.871 325.876 130.954C326.006 131.038 326.109 131.158 326.172 131.299L327.388 133.469L328.548 131.396C328.621 131.235 328.737 131.097 328.883 130.997C329.03 130.897 329.2 130.839 329.377 130.829C329.486 130.826 329.595 130.846 329.695 130.889C329.795 130.932 329.885 130.997 329.958 131.078C330.039 131.154 330.103 131.246 330.146 131.349C330.188 131.451 330.209 131.561 330.206 131.672C330.205 131.869 330.147 132.06 330.041 132.225L328.825 134.173L331.353 134.104C331.471 134.097 331.589 134.116 331.698 134.159C331.808 134.202 331.907 134.268 331.989 134.353C332.131 134.518 332.209 134.729 332.209 134.947C332.209 135.165 332.131 135.376 331.989 135.541C331.907 135.626 331.808 135.693 331.698 135.736C331.589 135.778 331.471 135.797 331.353 135.79H328.797L329.93 137.559C330.058 137.772 330.129 138.015 330.137 138.264C330.141 138.376 330.122 138.487 330.082 138.592C330.042 138.696 329.981 138.791 329.902 138.872C329.83 138.949 329.742 139.011 329.645 139.054C329.547 139.097 329.442 139.119 329.336 139.12C329.165 139.116 328.999 139.063 328.857 138.968C328.715 138.872 328.603 138.738 328.534 138.581L327.388 136.55L326.241 138.581C326.173 138.744 326.06 138.883 325.915 138.983C325.771 139.084 325.601 139.141 325.425 139.148V139.148Z" fill="black" />
	<path d="M368.897 169.714H385.796" stroke="white" stroke-width="4.06725" stroke-linecap="round" stroke-linejoin="round" />
	<path d="M134.501 45.2812V157.525C134.501 160.776 135.793 163.893 138.091 166.192C140.39 168.49 143.507 169.782 146.758 169.782H352.854" stroke="white" stroke-width="4.06725" stroke-linecap="round" stroke-linejoin="round" />
	<path d="M134.501 15.5176V32.3479" stroke="white" stroke-width="4.06725" stroke-linecap="round" stroke-linejoin="round" />
</svg>
