<svg width="81" height="80" viewBox="0 0 81 80" fill="none" xmlns="http://www.w3.org/2000/svg">
	<path d="M0.75 40C0.75 17.9086 18.6586 0 40.75 0C62.8414 0 80.75 17.9086 80.75 40C80.75 62.0914 62.8414 80 40.75 80C18.6586 80 0.75 62.0914 0.75 40Z" fill="#E79436" />
	<g clip-path="url(#clip0_1386_3568)">
		<path fill-rule="evenodd" clip-rule="evenodd" d="M27.5533 53.4818L40.9183 41.2878L45.6308 45.5858L29.7412 53.6428C29.1369 53.9508 28.3948 53.9438 27.7981 53.6288C27.7981 53.6358 27.5533 53.4818 27.5533 53.4818ZM39.5718 40.0558L26.8265 51.6828V28.4288L39.5718 40.0558ZM47.5358 35.2538L53.7631 38.4108C54.3751 38.7188 54.7576 39.3068 54.7576 39.9368C54.7576 40.5668 54.3751 41.1548 53.7631 41.4628L47.3675 44.7038L42.2724 40.0558C42.2647 40.0558 47.5358 35.2538 47.5358 35.2538ZM27.4079 26.5038C27.5227 26.4058 27.6527 26.3148 27.7904 26.2378C28.3871 25.9228 29.1292 25.9158 29.7336 26.2238L45.7992 34.3718L40.9183 38.8238L27.4079 26.5038Z" fill="white" />
	</g>
	<defs>
		<clipPath id="clip0_1386_3568">
			<rect width="28" height="28" fill="white" transform="translate(26.75 26)" />
		</clipPath>
	</defs>
</svg>
