<svg width="81" height="80" viewBox="0 0 81 80" fill="none" xmlns="http://www.w3.org/2000/svg">
	<path d="M0.75 40C0.75 17.9086 18.6586 0 40.75 0C62.8414 0 80.75 17.9086 80.75 40C80.75 62.0914 62.8414 80 40.75 80C18.6586 80 0.75 62.0914 0.75 40Z" fill="#E79436" />
	<g clip-path="url(#clip0_1386_3557)">
		<path d="M51.766 34.2679H47.4684C47.5852 33.6115 48.001 33.2445 48.8449 32.8271L49.6366 32.4355C51.0519 31.7277 51.8048 30.9312 51.8048 29.6288C51.8048 28.8072 51.4802 28.1627 50.8311 27.6952C50.195 27.2275 49.4163 26.9999 48.5202 26.9999C47.8264 26.9926 47.1454 27.1815 46.5598 27.5436C45.9755 27.8976 45.5339 28.3527 45.2614 28.921L46.5076 30.1348C46.988 29.1868 47.6875 28.7191 48.6112 28.7191C49.3899 28.7191 49.8703 29.1108 49.8703 29.6545C49.8703 30.1096 49.6371 30.4887 48.741 30.9312L48.2353 31.1714C47.1313 31.7145 46.3654 32.3343 45.9238 33.0421C45.4828 33.7374 45.262 34.635 45.262 35.7093V35.9998H51.766V34.2679ZM51.1907 38.0001H44.0753L40.5154 44.0002H47.6336L51.1907 50.0003L54.7489 44.0002L51.1907 38.0001ZM41.1301 47.9999C36.5993 47.9999 32.913 44.411 32.913 40C32.913 35.589 36.5993 32.0001 41.1301 32.0001L43.9427 26.2702C43.0165 26.0909 42.0745 26.0004 41.1301 26C33.1883 26 26.75 32.2681 26.75 40C26.75 47.7319 33.1883 54 41.1301 54C44.1745 54.0044 47.1411 53.0638 49.5989 51.3147L46.484 46.0635C44.9963 47.3143 43.0957 48.0017 41.1301 47.9999Z" fill="white" />
	</g>
	<defs>
		<clipPath id="clip0_1386_3557">
			<rect width="28" height="28" fill="white" transform="translate(26.75 26)" />
		</clipPath>
	</defs>
</svg>
