<svg width="81" height="80" viewBox="0 0 81 80" fill="none" xmlns="http://www.w3.org/2000/svg">
	<path d="M0.25 40C0.25 17.9086 18.1586 0 40.25 0C62.3414 0 80.25 17.9086 80.25 40C80.25 62.0914 62.3414 80 40.25 80C18.1586 80 0.25 62.0914 0.25 40Z" fill="#E79436" />
	<g clip-path="url(#clip0_1386_3563)">
		<path d="M51.6739 47.8205C51.2505 48.7988 50.7493 49.6992 50.1685 50.5271C49.377 51.6557 48.7288 52.4369 48.2293 52.8707C47.455 53.5828 46.6254 53.9475 45.7371 53.9682C45.0993 53.9682 44.3302 53.7868 43.4349 53.4186C42.5367 53.0522 41.7113 52.8707 40.9565 52.8707C40.1649 52.8707 39.316 53.0522 38.4079 53.4186C37.4984 53.7868 36.7658 53.9786 36.2056 53.9976C35.3537 54.0339 34.5046 53.6589 33.657 52.8707C33.1161 52.3989 32.4394 51.59 31.6288 50.4441C30.7591 49.2205 30.0441 47.8015 29.484 46.1838C28.884 44.4364 28.5833 42.7444 28.5833 41.1062C28.5833 39.2298 28.9888 37.6114 29.8009 36.2551C30.4392 35.1658 31.2883 34.3064 32.3511 33.6756C33.4138 33.0447 34.5622 32.7233 35.7988 32.7027C36.4754 32.7027 37.3628 32.912 38.4654 33.3233C39.565 33.7361 40.271 33.9454 40.5806 33.9454C40.812 33.9454 41.5963 33.7006 42.9259 33.2127C44.1833 32.7602 45.2445 32.5729 46.1139 32.6467C48.4696 32.8368 50.2394 33.7655 51.4164 35.4385C49.3096 36.715 48.2674 38.503 48.2881 40.7967C48.3071 42.5833 48.9552 44.07 50.229 45.2505C50.8063 45.7983 51.451 46.2218 52.1682 46.5225C52.0127 46.9736 51.8485 47.4057 51.6739 47.8205ZM46.2711 26.5602C46.2711 27.9605 45.7595 29.268 44.7398 30.4781C43.5093 31.9168 42.0208 32.7481 40.4067 32.617C40.3861 32.449 40.3742 32.2722 40.3742 32.0864C40.3742 30.7421 40.9594 29.3034 41.9987 28.1271C42.5175 27.5315 43.1774 27.0363 43.9776 26.6412C44.7761 26.2521 45.5314 26.0369 46.2418 26C46.2625 26.1872 46.2711 26.3744 46.2711 26.5601V26.5602Z" fill="white" />
	</g>
	<defs>
		<clipPath id="clip0_1386_3563">
			<rect width="28" height="28" fill="white" transform="translate(26.25 26)" />
		</clipPath>
	</defs>
</svg>
