<svg width="12" height="12" viewBox="0 0 12 12" fill="none" xmlns="http://www.w3.org/2000/svg">
	<path fill-rule="evenodd" clip-rule="evenodd" d="M1 6C1 3.23858 3.23858 1 6 1C8.76142 1 11 3.23858 11 6C11 8.76142 8.76142 11 6 11C3.23858 11 1 8.76142 1 6ZM5.50017 3.52554C5.50017 3.24939 5.72403 3.02554 6.00017 3.02554C6.27632 3.02554 6.50017 3.24939 6.50017 3.52554C6.50017 3.80168 6.27632 4.02554 6.00017 4.02554C5.72403 4.02554 5.50017 3.80168 5.50017 3.52554ZM6.00017 4.98965C5.72403 4.98965 5.50017 5.2135 5.50017 5.48965V8.48965C5.50017 8.76579 5.72403 8.98965 6.00017 8.98965C6.27632 8.98965 6.50017 8.76579 6.50017 8.48965V5.48965C6.50017 5.2135 6.27632 4.98965 6.00017 4.98965Z" fill="#6E7077" />
</svg>
