<svg width="24" height="24" viewBox="0 0 24 24" fill="none" xmlns="http://www.w3.org/2000/svg">
	<path fill-rule="evenodd" clip-rule="evenodd" d="M2 12C2 6.47715 6.47715 2 12 2C17.5228 2 22 6.47715 22 12C22 17.5228 17.5228 22 12 22C6.47715 22 2 17.5228 2 12ZM11.0004 7.05105C11.0004 6.49876 11.4481 6.05105 12.0004 6.05105C12.5527 6.05105 13.0004 6.49876 13.0004 7.05105C13.0004 7.60333 12.5527 8.05105 12.0004 8.05105C11.4481 8.05105 11.0004 7.60333 11.0004 7.05105ZM12.0004 9.97927C11.4481 9.97927 11.0004 10.427 11.0004 10.9793V16.9793C11.0004 17.5316 11.4481 17.9793 12.0004 17.9793C12.5527 17.9793 13.0004 17.5316 13.0004 16.9793V10.9793C13.0004 10.427 12.5527 9.97927 12.0004 9.97927Z" fill="#E79436" />
</svg>
