<svg width="24" height="24" viewBox="0 0 24 24" fill="none" xmlns="http://www.w3.org/2000/svg">
	<path fill-rule="evenodd" clip-rule="evenodd" d="M10.5 11C10.5 10.1716 11.1716 9.5 12 9.5H12.01C12.8384 9.5 13.51 10.1716 13.51 11V11.01C13.51 11.8384 12.8384 12.51 12.01 12.51H12C11.1716 12.51 10.5 11.8384 10.5 11.01V11Z" fill="#000" />
	<path fill-rule="evenodd" clip-rule="evenodd" d="M16.7927 6.20794C14.1457 3.5609 9.854 3.5609 7.20696 6.20794C4.55992 8.85498 4.55992 13.1467 7.20696 15.7937L11.9999 20.5866L16.7927 15.7937C19.4398 13.1467 19.4398 8.85498 16.7927 6.20794ZM5.79275 4.79372C9.22083 1.36563 14.7789 1.36563 18.207 4.79372C21.635 8.22181 21.6351 13.7798 18.207 17.2079L12.707 22.7079C12.5194 22.8955 12.2651 23.0008 11.9999 23.0008C11.7346 23.0008 11.4803 22.8955 11.2927 22.7079L5.79275 17.2079C2.36466 13.7799 2.36466 8.22181 5.79275 4.79372Z" fill="#000" />
</svg>
