<svg width="18" height="18" viewBox="0 0 18 18" fill="none" xmlns="http://www.w3.org/2000/svg">
	<path fill-rule="evenodd" clip-rule="evenodd" d="M8.16663 2.33366C4.94496 2.33366 2.33329 4.94533 2.33329 8.16699C2.33329 11.3887 4.94496 14.0003 8.16663 14.0003C9.77769 14.0003 11.2349 13.3483 12.2914 12.2918C13.348 11.2352 14 9.77805 14 8.16699C14 4.94533 11.3883 2.33366 8.16663 2.33366ZM0.666626 8.16699C0.666626 4.02486 4.02449 0.666992 8.16663 0.666992C12.3088 0.666992 15.6666 4.02486 15.6666 8.16699C15.6666 9.93749 15.0523 11.5657 14.0265 12.8484L17.0892 15.9111C17.4147 16.2365 17.4147 16.7641 17.0892 17.0896C16.7638 17.415 16.2361 17.415 15.9107 17.0896L12.848 14.0269C11.5653 15.0527 9.93713 15.667 8.16663 15.667C4.02449 15.667 0.666626 12.3091 0.666626 8.16699Z" fill="white" />
</svg>
