<svg width="100" height="100" viewBox="0 0 100 100" fill="none" xmlns="http://www.w3.org/2000/svg">
	<rect width="100" height="100" rx="8.33333" fill="#F9F9F9" />
	<g clip-path="url(#clip0_2205_5458)">
		<path d="M75.0004 75H25.0004C24.2637 75 23.5572 74.7073 23.0362 74.1864C22.5153 73.6655 22.2227 72.9589 22.2227 72.2222V51.3528C22.2226 50.9559 22.3076 50.5636 22.472 50.2023C22.6363 49.841 22.8762 49.5191 23.1754 49.2583L33.3338 40.4V27.7778C33.3338 27.0411 33.6264 26.3345 34.1474 25.8136C34.6683 25.2927 35.3748 25 36.1115 25H75.0004C75.7371 25 76.4437 25.2927 76.9646 25.8136C77.4856 26.3345 77.7782 27.0411 77.7782 27.7778V72.2222C77.7782 72.9589 77.4856 73.6655 76.9646 74.1864C76.4437 74.7073 75.7371 75 75.0004 75ZM41.6671 69.4444H50.0004V52.6167L38.8893 42.9278L27.7782 52.6167V69.4444H36.1115V58.3333H41.6671V69.4444ZM55.556 69.4444H72.2227V30.5556H38.8893V36.4639C39.5393 36.4639 40.1921 36.6917 40.7143 37.15L54.6032 49.2583C54.9024 49.5191 55.1423 49.841 55.3067 50.2023C55.471 50.5636 55.556 50.9559 55.556 51.3528V69.4444ZM61.1115 47.2222H66.6671V52.7778H61.1115V47.2222ZM61.1115 58.3333H66.6671V63.8889H61.1115V58.3333ZM61.1115 36.1111H66.6671V41.6667H61.1115V36.1111ZM50.0004 36.1111H55.556V41.6667H50.0004V36.1111Z" fill="#DEDEE4" />
	</g>
	<defs>
		<clipPath id="clip0_2205_5458">
			<rect width="66.6667" height="66.6667" fill="white" transform="translate(16.667 16.666)" />
		</clipPath>
	</defs>
</svg>
