<svg width="81" height="80" viewBox="0 0 81 80" fill="none" xmlns="http://www.w3.org/2000/svg">
	<path d="M0.5 40C0.5 17.9086 18.4086 0 40.5 0C62.5914 0 80.5 17.9086 80.5 40C80.5 62.0914 62.5914 80 40.5 80C18.4086 80 0.5 62.0914 0.5 40Z" fill="#E79436" />
	<path d="M43.6522 51.6663C43.3559 51.6663 43.0816 51.5016 42.939 51.2491C42.7963 50.9965 42.7963 50.6781 42.9499 50.4256L44.102 48.504C44.3324 48.1087 44.8372 47.9879 45.2322 48.2185C45.6272 48.4491 45.7479 48.9542 45.5174 49.3495L45.2212 49.8436C48.2495 49.1299 50.5208 46.4067 50.5208 43.1565C50.5208 42.7063 50.8939 42.333 51.3437 42.333C51.7936 42.333 52.1666 42.7063 52.1666 43.1565C52.1557 47.8452 48.3373 51.6663 43.6522 51.6663Z" fill="white" stroke="white" stroke-width="0.4" />
	<path d="M28.8334 43.1519C28.8334 42.8556 28.9981 42.5813 29.2506 42.4387C29.5032 42.296 29.8216 42.296 30.0741 42.4496L31.9957 43.6017C32.391 43.8321 32.5118 44.3369 32.2812 44.7319C32.0506 45.1269 31.5455 45.2476 31.1502 45.0171L30.6561 44.7209C31.3698 47.7492 34.093 50.0205 37.3432 50.0205C37.7934 50.0205 38.1667 50.3936 38.1667 50.8434C38.1667 51.2933 37.7934 51.6663 37.3432 51.6663C32.6545 51.6554 28.8334 47.837 28.8334 43.1519Z" fill="white" stroke="white" stroke-width="0.4" />
	<path d="M29.6568 37.6663C29.2066 37.6663 28.8333 37.293 28.8333 36.8428C28.8333 32.1542 32.6545 28.333 37.3431 28.333C37.6396 28.333 37.9141 28.4977 38.0568 28.7503C38.1996 29.0028 38.1996 29.3212 38.0459 29.5738L36.8929 31.5063C36.6623 31.8907 36.1572 32.0224 35.7619 31.7809C35.3776 31.5503 35.2459 31.0452 35.4874 30.6499L35.7839 30.1558C32.7423 30.8695 30.4804 33.5926 30.4804 36.8428C30.4804 37.293 30.107 37.6663 29.6568 37.6663Z" fill="white" stroke="white" stroke-width="0.4" />
	<path d="M39.8653 45.9392H40.9193L40.9243 44.8007C43.0571 44.6466 44.2801 43.4733 44.2851 41.8078C44.2801 40.0429 42.8234 39.2375 41.2922 38.8746L40.964 38.79L40.9839 35.9513C41.7794 36.0905 42.2915 36.5677 42.371 37.2836H44.1459C44.116 35.7027 42.8731 34.5493 40.9939 34.3703L40.9988 33.2119H39.9449L39.9399 34.3703C38.0756 34.5592 36.7332 35.7027 36.7382 37.3483C36.7382 38.8099 37.7773 39.6501 39.4527 40.0827L39.9001 40.197L39.8802 43.2048C38.9903 43.0656 38.349 42.5585 38.2844 41.6586H36.4697C36.5393 43.523 37.822 44.6317 39.8703 44.8007L39.8653 45.9392ZM40.9342 43.2048L40.9541 40.4754C41.8589 40.7389 42.4356 41.0869 42.4406 41.7929C42.4356 42.5287 41.844 43.0557 40.9342 43.2048ZM39.9101 38.5216C39.224 38.3028 38.5976 37.9399 38.6075 37.2339C38.6125 36.5926 39.0947 36.0954 39.93 35.9513L39.9101 38.5216Z" fill="white" />
	<path d="M42.8334 29.1565C42.8334 28.7063 43.2067 28.333 43.6569 28.333C48.3455 28.333 52.1667 32.1542 52.1667 36.8428C52.1667 37.1393 52.002 37.4138 51.7494 37.5565C51.4969 37.6993 51.1785 37.6993 50.9259 37.5456L48.9934 36.3926C48.609 36.162 48.4773 35.6569 48.7188 35.2616C48.9494 34.8773 49.4545 34.7456 49.8498 34.9871L50.3439 35.2836C49.6302 32.242 46.9071 29.9801 43.6569 29.9801C43.2067 29.9801 42.8334 29.6067 42.8334 29.1565Z" fill="white" stroke="white" stroke-width="0.4" />
</svg>
