<svg width="81" height="80" viewBox="0 0 81 80" fill="none" xmlns="http://www.w3.org/2000/svg">
	<path d="M0.5 40C0.5 17.9086 18.4086 0 40.5 0V0C62.5914 0 80.5 17.9086 80.5 40V40C80.5 62.0914 62.5914 80 40.5 80V80C18.4086 80 0.5 62.0914 0.5 40V40Z" fill="#E79436" />
	<g clip-path="url(#clip0_1386_3439)">
		<path fill-rule="evenodd" clip-rule="evenodd" d="M28.8335 31.8337C28.8335 31.1893 29.3558 30.667 30.0001 30.667H38.1668C38.4762 30.667 38.773 30.7899 38.9918 31.0087L40.9834 33.0003H51.0001C51.6445 33.0003 52.1668 33.5227 52.1668 34.167V45.8337C52.1668 47.7667 50.5998 49.3337 48.6668 49.3337H32.3335C30.4005 49.3337 28.8335 47.7667 28.8335 45.8337V31.8337ZM31.1668 33.0003V45.8337C31.1668 46.478 31.6891 47.0003 32.3335 47.0003H48.6668C49.3111 47.0003 49.8335 46.478 49.8335 45.8337V35.3337H40.5001C40.1907 35.3337 39.894 35.2107 39.6752 34.9919L37.6836 33.0003H31.1668Z" fill="white" />
		<path fill-rule="evenodd" clip-rule="evenodd" d="M33.5 38.8337C33.5 38.1893 34.0223 37.667 34.6667 37.667H37C37.6443 37.667 38.1667 38.1893 38.1667 38.8337C38.1667 39.478 37.6443 40.0003 37 40.0003H34.6667C34.0223 40.0003 33.5 39.478 33.5 38.8337Z" fill="white" />
		<path fill-rule="evenodd" clip-rule="evenodd" d="M33.5 43.4997C33.5 42.8553 34.0223 42.333 34.6667 42.333H37C37.6443 42.333 38.1667 42.8553 38.1667 43.4997C38.1667 44.144 37.6443 44.6663 37 44.6663H34.6667C34.0223 44.6663 33.5 44.144 33.5 43.4997Z" fill="white" />
		<path fill-rule="evenodd" clip-rule="evenodd" d="M40.5 38.8337C40.5 38.1893 41.0223 37.667 41.6667 37.667H46.3333C46.9777 37.667 47.5 38.1893 47.5 38.8337V43.5003C47.5 44.1447 46.9777 44.667 46.3333 44.667H41.6667C41.0223 44.667 40.5 44.1447 40.5 43.5003V38.8337ZM42.8333 40.0003V42.3337H45.1667V40.0003H42.8333Z" fill="white" />
	</g>
	<defs>
		<clipPath id="clip0_1386_3439">
			<rect width="28" height="28" fill="white" transform="translate(26.5 26)" />
		</clipPath>
	</defs>
</svg>
