<svg width="81" height="80" viewBox="0 0 81 80" fill="none" xmlns="http://www.w3.org/2000/svg">
	<path d="M0.5 40C0.5 17.9086 18.4086 0 40.5 0C62.5914 0 80.5 17.9086 80.5 40C80.5 62.0914 62.5914 80 40.5 80C18.4086 80 0.5 62.0914 0.5 40Z" fill="#E79436" />
	<g clip-path="url(#clip0_1386_3464)">
		<path fill-rule="evenodd" clip-rule="evenodd" d="M31.1667 29.4997C31.1667 28.8553 31.689 28.333 32.3334 28.333H42.8334C43.1428 28.333 43.4395 28.4559 43.6583 28.6747L49.4916 34.5081C49.7104 34.7268 49.8334 35.0236 49.8334 35.333V48.1663C49.8334 50.0993 48.2663 51.6663 46.3334 51.6663H34.6667C32.7337 51.6663 31.1667 50.0993 31.1667 48.1663V29.4997ZM33.5 30.6663V48.1663C33.5 48.8107 34.0224 49.333 34.6667 49.333H46.3334C46.9777 49.333 47.5 48.8107 47.5 48.1663V35.8163L42.3501 30.6663H33.5Z" fill="white" />
		<path fill-rule="evenodd" clip-rule="evenodd" d="M40.5 36.5V29.5H42.8333V35.3333H48.6667V37.6667H41.6667C41.0223 37.6667 40.5 37.1443 40.5 36.5Z" fill="white" />
		<path fill-rule="evenodd" clip-rule="evenodd" d="M35.8333 41.1667C35.8333 40.5223 36.3556 40 37 40H44C44.6443 40 45.1666 40.5223 45.1666 41.1667C45.1666 41.811 44.6443 42.3333 44 42.3333H37C36.3556 42.3333 35.8333 41.811 35.8333 41.1667Z" fill="white" />
		<path fill-rule="evenodd" clip-rule="evenodd" d="M35.8333 45.8337C35.8333 45.1893 36.3556 44.667 37 44.667H44C44.6443 44.667 45.1666 45.1893 45.1666 45.8337C45.1666 46.478 44.6443 47.0003 44 47.0003H37C36.3556 47.0003 35.8333 46.478 35.8333 45.8337Z" fill="white" />
	</g>
	<defs>
		<clipPath id="clip0_1386_3464">
			<rect width="28" height="28" fill="white" transform="translate(26.5 26)" />
		</clipPath>
	</defs>
</svg>
