<svg width="81" height="80" viewBox="0 0 81 80" fill="none" xmlns="http://www.w3.org/2000/svg">
	<path d="M0.5 40C0.5 17.9086 18.4086 0 40.5 0C62.5914 0 80.5 17.9086 80.5 40C80.5 62.0914 62.5914 80 40.5 80C18.4086 80 0.5 62.0914 0.5 40Z" fill="#E79436" />
	<g clip-path="url(#clip0_1386_3470)">
		<path fill-rule="evenodd" clip-rule="evenodd" d="M31.1666 29.4997C31.1666 28.8553 31.689 28.333 32.3333 28.333H42.8333C43.1427 28.333 43.4395 28.4559 43.6582 28.6747L49.4916 34.5081C49.7104 34.7268 49.8333 35.0236 49.8333 35.333V48.1663C49.8333 50.0993 48.2663 51.6663 46.3333 51.6663H34.6666C32.7336 51.6663 31.1666 50.0993 31.1666 48.1663V29.4997ZM33.5 30.6663V48.1663C33.5 48.8107 34.0223 49.333 34.6666 49.333H46.3333C46.9776 49.333 47.5 48.8107 47.5 48.1663V35.8163L42.35 30.6663H33.5Z" fill="white" />
		<path fill-rule="evenodd" clip-rule="evenodd" d="M40.5 36.5V29.5H42.8333V35.3333H48.6667V37.6667H41.6667C41.0223 37.6667 40.5 37.1443 40.5 36.5Z" fill="white" />
	</g>
	<defs>
		<clipPath id="clip0_1386_3470">
			<rect width="28" height="28" fill="white" transform="translate(26.5 26)" />
		</clipPath>
	</defs>
</svg>
