<svg width="81" height="80" viewBox="0 0 81 80" fill="none" xmlns="http://www.w3.org/2000/svg">
	<path d="M0.5 40C0.5 17.9086 18.4086 0 40.5 0C62.5914 0 80.5 17.9086 80.5 40C80.5 62.0914 62.5914 80 40.5 80C18.4086 80 0.5 62.0914 0.5 40Z" fill="#E79436" />
	<path d="M43.0083 52.5419H38.015C36.825 52.5419 35.7283 52.0402 35.0283 51.1535C34.41 50.3835 34.1883 49.4035 34.3983 48.4702L35.2033 44.8769C35.2967 44.4802 35.6467 44.2002 36.055 44.2002H44.9683C45.3767 44.2002 45.7267 44.4802 45.82 44.8769L46.6367 48.4702C46.8583 49.4735 46.6483 50.4419 46.0417 51.2002C45.365 52.0519 44.2567 52.5419 43.0083 52.5419ZM36.755 45.9502L36.1017 48.8669C36.0083 49.2869 36.1133 49.7069 36.3933 50.0685C36.755 50.5235 37.3617 50.7919 38.015 50.7919H43.02C43.7317 50.7919 44.3383 50.5469 44.6767 50.1152C44.9567 49.7769 45.0383 49.3335 44.9333 48.8669L44.28 45.9502H36.755Z" fill="white" />
	<path d="M36.055 45.9497C35.845 45.9497 35.635 45.8797 35.4717 45.728L32.0417 42.683C29.79 40.828 29.6033 39.0313 31.4583 36.6747L37.5133 28.998C38.295 28.0063 39.3683 27.458 40.5117 27.458C41.6667 27.458 42.7283 28.0063 43.51 28.998L49.565 36.6747C51.3967 38.9963 51.2333 40.688 48.9817 42.683L45.5517 45.728C45.19 46.043 44.63 46.0197 44.315 45.658C44 45.2963 44.0233 44.748 44.385 44.4213L47.815 41.3763C49.355 40.0113 49.425 39.3347 48.1883 37.7597L42.145 30.083C41.2583 28.9513 39.7767 28.9513 38.89 30.083L32.835 37.7597C31.5633 39.3697 31.6217 40.0813 33.1733 41.353L36.6267 44.4213C36.9883 44.7363 37.0233 45.2963 36.6967 45.658C36.5333 45.8447 36.3 45.9497 36.055 45.9497Z" fill="white" />
	<path d="M40.5117 35.0069C40.0333 35.0069 39.6367 34.6102 39.6367 34.1319V29.1152C39.6367 28.6369 40.0333 28.2402 40.5117 28.2402C40.99 28.2402 41.3867 28.6369 41.3867 29.1152V34.1319C41.3867 34.6102 40.99 35.0069 40.5117 35.0069Z" fill="white" />
	<path d="M43.0083 52.5419H38.015C36.825 52.5419 35.7283 52.0402 35.0283 51.1535C34.41 50.3835 34.1883 49.4035 34.3983 48.4702L35.2033 44.8769C35.2967 44.4802 35.6467 44.2002 36.055 44.2002H44.9683C45.3767 44.2002 45.7267 44.4802 45.82 44.8769L46.6367 48.4702C46.8583 49.4735 46.6483 50.4419 46.0417 51.2002C45.365 52.0519 44.2567 52.5419 43.0083 52.5419ZM36.755 45.9502L36.1017 48.8669C36.0083 49.2869 36.1133 49.7069 36.3933 50.0685C36.755 50.5235 37.3617 50.7919 38.015 50.7919H43.02C43.7317 50.7919 44.3383 50.5469 44.6767 50.1152C44.9567 49.7769 45.0383 49.3335 44.9333 48.8669L44.28 45.9502H36.755Z" fill="white" />
	<path d="M36.055 45.9497C35.845 45.9497 35.635 45.8797 35.4717 45.728L32.0417 42.683C29.79 40.828 29.6033 39.0313 31.4583 36.6747L37.5133 28.998C38.295 28.0063 39.3683 27.458 40.5117 27.458C41.6667 27.458 42.7283 28.0063 43.51 28.998L49.565 36.6747C51.3967 38.9963 51.2333 40.688 48.9817 42.683L45.5517 45.728C45.19 46.043 44.63 46.0197 44.315 45.658C44 45.2963 44.0233 44.748 44.385 44.4213L47.815 41.3763C49.355 40.0113 49.425 39.3347 48.1883 37.7597L42.145 30.083C41.2583 28.9513 39.7767 28.9513 38.89 30.083L32.835 37.7597C31.5633 39.3697 31.6217 40.0813 33.1733 41.353L36.6267 44.4213C36.9883 44.7363 37.0233 45.2963 36.6967 45.658C36.5333 45.8447 36.3 45.9497 36.055 45.9497Z" fill="white" />
	<path d="M40.5117 35.0069C40.0333 35.0069 39.6367 34.6102 39.6367 34.1319V29.1152C39.6367 28.6369 40.0333 28.2402 40.5117 28.2402C40.99 28.2402 41.3867 28.6369 41.3867 29.1152V34.1319C41.3867 34.6102 40.99 35.0069 40.5117 35.0069Z" fill="white" />
</svg>
