<svg width="81" height="80" viewBox="0 0 81 80" fill="none" xmlns="http://www.w3.org/2000/svg">
	<path d="M0.5 40C0.5 17.9086 18.4086 0 40.5 0C62.5914 0 80.5 17.9086 80.5 40C80.5 62.0914 62.5914 80 40.5 80C18.4086 80 0.5 62.0914 0.5 40Z" fill="#E79436" />
	<path d="M28.8334 48.1663H52.1667V50.4997H28.8334V48.1663ZM28.8334 31.833L34.6667 35.9163L40.5 28.333L46.3334 35.9163L52.1667 31.833V45.833H28.8334V31.833ZM31.1667 36.3142V43.4997H49.8334V36.3142L45.8434 39.1072L40.5 32.1597L35.1567 39.1072L31.1667 36.313V36.3142Z" fill="white" />
</svg>
