<?xml version="1.0" encoding="utf-8"?>
<!-- Generator: Adobe Illustrator 26.0.0, SVG Export Plug-In . SVG Version: 6.00 Build 0)  -->
<svg version="1.1" id="Layer_1" xmlns="http://www.w3.org/2000/svg" xmlns:xlink="http://www.w3.org/1999/xlink" x="0px" y="0px"
	 viewBox="0 0 25.9 18.8" style="enable-background:new 0 0 25.9 18.8;" xml:space="preserve">
<style type="text/css">
	.st0{fill-rule:evenodd;clip-rule:evenodd;fill:#FFFFFF;stroke:#1F1F1F;stroke-miterlimit:10;}
	.st1{fill-rule:evenodd;clip-rule:evenodd;fill:#1F1F1F;}
	.st2{fill-rule:evenodd;clip-rule:evenodd;fill:#FFFFFF;stroke:#FFFFFF;stroke-miterlimit:10;}
</style>
<line class="st0" x1="21.7" y1="0.7" x2="4.2" y2="18.1"/>
<path class="st1" d="M4,9.4c1.5,3.6,4.8,6,8.9,6c4.1,0,7.4-2.4,8.9-6c-1.5-3.6-4.8-6-8.9-6C8.9,3.4,5.6,5.9,4,9.4z M2,9.1
	C3.8,4.6,7.8,1.4,13,1.4s9.2,3.2,10.9,7.6c0.1,0.2,0.1,0.5,0,0.7c-1.7,4.4-5.8,7.6-10.9,7.6S3.8,14.2,2,9.8C1.9,9.6,1.9,9.3,2,9.1z
	 M13,7.4c-1.1,0-2,0.9-2,2s0.9,2,2,2c1.1,0,2-0.9,2-2S14.1,7.4,13,7.4z M9,9.4c0-2.2,1.8-4,4-4c2.2,0,4,1.8,4,4c0,2.2-1.8,4-4,4
	C10.7,13.4,9,11.6,9,9.4z"/>
<line class="st2" x1="22.3" y1="1.4" x2="4.9" y2="18.8"/>
</svg>
