<svg width="22" height="16" viewBox="0 0 22 16" fill="none" xmlns="http://www.w3.org/2000/svg">
	<path fill-rule="evenodd" clip-rule="evenodd" d="M2.08111 8C3.61925 11.5565 6.92565 14 11 14C15.0743 14 18.3808 11.5565 19.9189 8C18.3808 4.4435 15.0743 2 11 2C6.92565 2 3.61925 4.4435 2.08111 8ZM0.0685125 7.63623C1.80329 3.1941 5.8839 0 11 0C16.1161 0 20.1967 3.1941 21.9315 7.63623C22.0228 7.87014 22.0228 8.12986 21.9315 8.36377C20.1967 12.8059 16.1161 16 11 16C5.8839 16 1.80329 12.8059 0.0685125 8.36377C-0.0228375 8.12986 -0.0228375 7.87014 0.0685125 7.63623ZM11 6C9.89543 6 9 6.89543 9 8C9 9.10457 9.89543 10 11 10C12.1046 10 13 9.10457 13 8C13 6.89543 12.1046 6 11 6ZM7 8C7 5.79086 8.79086 4 11 4C13.2091 4 15 5.79086 15 8C15 10.2091 13.2091 12 11 12C8.79086 12 7 10.2091 7 8Z" fill="#1F1F1F" />
</svg>
