<svg width="83" height="69" viewBox="0 0 83 69" fill="none" xmlns="http://www.w3.org/2000/svg">
	<g opacity="0.3" clip-path="url(#clip0_1386_3542)">
		<path fill-rule="evenodd" clip-rule="evenodd" d="M0.362877 58.0709C12.6902 52.1288 18.8537 45.1469 18.8537 37.1251C13.5995 36.5309 9.25467 34.4265 5.81919 30.8117C2.38371 27.1969 0.666008 23.0127 0.666008 18.2591C0.666008 13.2083 2.33319 8.94986 5.66763 5.48363C9.00207 2.01742 13.1953 0.284332 18.2475 0.284332C23.9059 0.284332 28.8065 2.53735 32.9492 7.04343C37.092 11.5495 39.1634 17.0211 39.1634 23.4584C39.1634 42.7702 28.1498 57.8728 6.12232 68.7666L0.362877 58.0709ZM43.8665 58.0709C56.2948 52.1288 62.5089 45.1469 62.5089 37.1251C57.1536 36.5309 52.7583 34.4265 49.3228 30.8117C45.8873 27.1969 44.1696 23.0127 44.1696 18.2591C44.1696 13.2083 45.8621 8.94986 49.247 5.48363C52.632 2.01742 56.8505 0.284332 61.9027 0.284332C67.5611 0.284332 72.4364 2.53735 76.5286 7.04343C80.6209 11.5495 82.667 17.0211 82.667 23.4584C82.667 42.7702 71.7039 57.8728 49.7775 68.7666L43.8665 58.0709Z" fill="#E79436" />
	</g>
	<defs>
		<clipPath id="clip0_1386_3542">
			<rect width="82.6667" height="68.4823" fill="white" transform="translate(82.667 68.7666) rotate(-180)" />
		</clipPath>
	</defs>
</svg>
