<svg width="10" height="16" viewBox="0 0 10 16" fill="none" xmlns="http://www.w3.org/2000/svg">
	<path d="M2.08341 3.83333C3.00389 3.83333 3.75008 3.08714 3.75008 2.16667C3.75008 1.24619 3.00389 0.5 2.08341 0.5C1.16294 0.5 0.416748 1.24619 0.416748 2.16667C0.416748 3.08714 1.16294 3.83333 2.08341 3.83333Z" fill="#DEDEE4" />
	<path d="M2.08341 9.66667C3.00389 9.66667 3.75008 8.92047 3.75008 8C3.75008 7.07953 3.00389 6.33333 2.08341 6.33333C1.16294 6.33333 0.416748 7.07953 0.416748 8C0.416748 8.92047 1.16294 9.66667 2.08341 9.66667Z" fill="#DEDEE4" />
	<path d="M3.75008 13.8333C3.75008 14.7538 3.00389 15.5 2.08341 15.5C1.16294 15.5 0.416748 14.7538 0.416748 13.8333C0.416748 12.9129 1.16294 12.1667 2.08341 12.1667C3.00389 12.1667 3.75008 12.9129 3.75008 13.8333Z" fill="#DEDEE4" />
	<path d="M7.91675 3.83333C8.83722 3.83333 9.58342 3.08714 9.58342 2.16667C9.58342 1.24619 8.83722 0.5 7.91675 0.5C6.99627 0.5 6.25008 1.24619 6.25008 2.16667C6.25008 3.08714 6.99627 3.83333 7.91675 3.83333Z" fill="#DEDEE4" />
	<path d="M9.58342 8C9.58342 8.92047 8.83722 9.66667 7.91675 9.66667C6.99627 9.66667 6.25008 8.92047 6.25008 8C6.25008 7.07953 6.99627 6.33333 7.91675 6.33333C8.83722 6.33333 9.58342 7.07953 9.58342 8Z" fill="#DEDEE4" />
	<path d="M7.91675 15.5C8.83722 15.5 9.58342 14.7538 9.58342 13.8333C9.58342 12.9129 8.83722 12.1667 7.91675 12.1667C6.99627 12.1667 6.25008 12.9129 6.25008 13.8333C6.25008 14.7538 6.99627 15.5 7.91675 15.5Z" fill="#DEDEE4" />
</svg>
