<svg width="20" height="18" viewBox="0 0 20 18" fill="none" xmlns="http://www.w3.org/2000/svg">
	<path d="M6.725 9C6.725 10.8078 8.19216 12.275 10 12.275C11.8078 12.275 13.275 10.8078 13.275 9C13.275 7.19216 11.8078 5.725 10 5.725C8.19216 5.725 6.725 7.19216 6.725 9ZM8.275 9C8.275 8.04951 9.04951 7.275 10 7.275C10.9505 7.275 11.725 8.04951 11.725 9C11.725 9.95049 10.9505 10.725 10 10.725C9.04951 10.725 8.275 9.95049 8.275 9Z" fill="#E79436" stroke="#E79436" stroke-width="0.3" />
	<path d="M12.1106 17.5693L12.1107 17.5693C11.5574 17.4176 11.0919 17.0688 10.7967 16.5768L10.6967 16.4101L10.6955 16.408L10.6955 16.408C10.4604 16.0016 10.2085 15.8454 9.99616 15.8454C9.78382 15.8454 9.53192 16.0016 9.29683 16.408L9.29681 16.4081L9.20514 16.5664L9.20456 16.5674C8.91025 17.0668 8.44488 17.4258 7.88861 17.5696C7.32542 17.7214 6.74253 17.6411 6.24934 17.3456C6.24894 17.3454 6.24855 17.3451 6.24815 17.3449L4.81734 16.5214L12.1106 17.5693ZM12.1106 17.5693L12.1156 17.5705M12.1106 17.5693L12.1156 17.5705M12.1156 17.5705C12.2992 17.6142 12.4861 17.6413 12.6753 17.6413C13.0521 17.6413 13.4186 17.5424 13.7562 17.3559L13.7562 17.3559L13.7582 17.3548L15.1991 16.5302C15.1992 16.5301 15.1994 16.53 15.1995 16.5299C15.7509 16.2185 16.143 15.7107 16.3035 15.097C16.4726 14.4906 16.3828 13.8498 16.0721 13.3083L16.0721 13.3083L16.0713 13.3069C15.8283 12.8938 15.8063 12.5767 15.9047 12.4088C16.0044 12.2388 16.2898 12.0996 16.767 12.0996C18.0665 12.0996 19.1253 11.0408 19.1253 9.74125V8.27459C19.1253 6.97508 18.0665 5.91625 16.767 5.91625C16.2898 5.91625 16.0044 5.77707 15.9047 5.60706C15.8571 5.52581 15.8373 5.40809 15.863 5.25077C15.8885 5.09405 15.9575 4.90905 16.0723 4.70721C16.3839 4.16396 16.4634 3.53192 16.3038 2.92006L16.3038 2.92005L16.3033 2.9181C16.1346 2.30552 15.7431 1.7978 15.2 1.48615L13.7678 0.661821C12.7451 0.0525576 11.4121 0.403533 10.8043 1.4404L10.8038 1.4411L10.7122 1.59943L10.7121 1.59948C10.4771 2.00591 10.2252 2.16209 10.0128 2.16209C9.80048 2.16209 9.54859 2.00591 9.3135 1.59948L9.31352 1.59947L9.31228 1.59741L9.21278 1.43157C9.2127 1.43144 9.21262 1.43131 9.21255 1.43118C8.6047 0.403694 7.27246 0.0526617 6.25817 0.653296L4.81825 1.4773C4.81813 1.47737 4.81801 1.47744 4.81788 1.47751C4.26621 1.78906 3.87388 2.29729 3.71358 2.91146C3.55377 3.51548 3.63357 4.15607 3.94522 4.69924L3.94521 4.69924L3.94604 4.70064C4.18901 5.1137 4.21104 5.43078 4.11259 5.59873C4.01293 5.76874 3.72755 5.90792 3.25033 5.90792C1.95082 5.90792 0.891992 6.96674 0.891992 8.26625V9.73292C0.891992 11.0324 1.95082 12.0913 3.25033 12.0913C3.72755 12.0913 4.01293 12.2304 4.11259 12.4004C4.16022 12.4817 4.17997 12.5994 4.15436 12.7567C4.12885 12.9134 4.0598 13.0984 3.9451 13.3002C3.63345 13.8434 3.55389 14.4755 3.71352 15.0875L3.7135 15.0875M12.1156 17.5705L3.7135 15.0875M3.7135 15.0875L3.71404 15.0894M3.7135 15.0875L3.71404 15.0894M3.71404 15.0894C3.8827 15.7019 4.2741 16.2096 4.81716 16.5213L3.71404 15.0894ZM12.1306 15.7835L12.1301 15.7828L12.0387 15.6247C12.0386 15.6247 12.0386 15.6247 12.0386 15.6246C11.5454 14.7682 10.8109 14.2579 10.0003 14.2579C9.18911 14.2579 8.45495 14.7772 7.96233 15.6242L7.96218 15.6244L7.87168 15.7808C7.78121 15.926 7.64571 16.0315 7.48895 16.0707L7.48894 16.0707L7.48746 16.0711C7.33291 16.1114 7.16717 16.0907 7.02928 16.0054L7.02933 16.0053L7.02483 16.0027L5.58531 15.179C5.3998 15.0642 5.26776 14.8953 5.21193 14.6859C5.15523 14.4733 5.18394 14.256 5.28852 14.0747C5.78194 13.2261 5.85602 12.326 5.45556 11.6252C5.05425 10.9229 4.23596 10.5413 3.25033 10.5413C2.80068 10.5413 2.44199 10.1759 2.44199 9.73292V8.26625C2.44199 7.81576 2.79983 7.45792 3.25033 7.45792C4.23596 7.45792 5.05425 7.07631 5.45556 6.37401C5.85604 5.67318 5.78194 4.77298 5.28845 3.9244C5.18393 3.74308 5.15524 3.52581 5.21193 3.31324C5.2679 3.10335 5.40835 2.9271 5.59195 2.82118L5.59206 2.82112L7.03373 1.98779L7.03405 1.9876C7.32015 1.82126 7.69472 1.92105 7.86186 2.19924L7.95223 2.36354L7.9522 2.36356L7.95367 2.3661C8.44683 3.22265 9.18141 3.73292 9.99199 3.73292C10.8025 3.73292 11.537 3.22275 12.0302 2.36634C12.0302 2.36626 12.0303 2.36618 12.0303 2.3661L12.1211 2.20923C12.1212 2.20904 12.1214 2.20885 12.1215 2.20866C12.2973 1.91184 12.68 1.81434 12.9644 1.98628L12.9644 1.98632L12.9675 1.98811L14.407 2.81188C14.5925 2.92666 14.7246 3.09555 14.7804 3.3049C14.8371 3.51748 14.8084 3.73475 14.7039 3.91607C14.2104 4.76465 14.1363 5.66484 14.5368 6.36568C14.9381 7.06798 15.7564 7.44959 16.742 7.44959C17.1916 7.44959 17.5503 7.81491 17.5503 8.25792V9.72459C17.5503 10.1751 17.1925 10.5329 16.742 10.5329C15.7564 10.5329 14.9381 10.9145 14.5368 11.6168C14.1363 12.3177 14.2104 13.2179 14.7039 14.0664C14.8084 14.2478 14.8371 14.465 14.7804 14.6776C14.7244 14.8875 14.584 15.0637 14.4004 15.1697L14.4003 15.1697L12.9586 16.0031L12.9586 16.003L12.9565 16.0043C12.8272 16.0819 12.6686 16.1037 12.5034 16.0624C12.342 16.0221 12.2098 15.9221 12.1306 15.7835Z" fill="#E79436" stroke="#E79436" stroke-width="0.3" />
</svg>
