<svg width="25" height="25" viewBox="0 0 25 25" fill="none" xmlns="http://www.w3.org/2000/svg">
	<path d="M12.1738 5.86614C12.5643 6.25666 12.5643 6.88982 12.1738 7.28035L7.88089 11.5732H19.4667C20.019 11.5732 20.4667 12.021 20.4667 12.5732C20.4667 13.1255 20.019 13.5732 19.4667 13.5732H7.88089L12.1738 17.8661C12.5643 18.2567 12.5643 18.8898 12.1738 19.2803C11.7833 19.6709 11.1501 19.6709 10.7596 19.2803L4.75957 13.2803C4.57203 13.0928 4.46667 12.8385 4.46667 12.5732C4.46667 12.308 4.57203 12.0537 4.75957 11.8661L10.7596 5.86614C11.1501 5.47561 11.7833 5.47561 12.1738 5.86614Z" fill="#1F1F1F" />
</svg>
