<svg width="25" height="25" viewBox="0 0 25 25" fill="none" xmlns="http://www.w3.org/2000/svg">
	<path d="M12.7596 5.86614C13.1501 5.47561 13.7833 5.47561 14.1738 5.86614L20.1738 11.8661C20.3613 12.0537 20.4667 12.308 20.4667 12.5732C20.4667 12.8385 20.3613 13.0928 20.1738 13.2804L14.1738 19.2803C13.7833 19.6709 13.1501 19.6709 12.7596 19.2803C12.369 18.8898 12.369 18.2567 12.7596 17.8661L17.0525 13.5732L5.46667 13.5732C4.91439 13.5732 4.46667 13.1255 4.46667 12.5732C4.46667 12.021 4.91439 11.5732 5.46667 11.5732L17.0525 11.5732L12.7596 7.28035C12.369 6.88982 12.369 6.25666 12.7596 5.86614Z" fill="#1F1F1F" />
</svg>
