<svg width="23" height="22" viewBox="0 0 23 22" fill="none" xmlns="http://www.w3.org/2000/svg">
	<g clip-path="url(#clip0_2289_2566)">
		<path fill-rule="evenodd" clip-rule="evenodd" d="M11.25 1.74121C11.5782 1.74121 11.8765 1.93211 12.014 2.23019L14.428 7.46371L20.1513 8.14231C20.4773 8.18096 20.751 8.40565 20.8525 8.71784C20.9539 9.03003 20.8645 9.37271 20.6235 9.59558L16.3921 13.5087L17.5154 19.1616C17.5793 19.4835 17.4502 19.8133 17.1847 20.0063C16.9191 20.1992 16.5656 20.2201 16.2791 20.0598L11.25 17.2447L6.22083 20.0598C5.93439 20.2201 5.58087 20.1992 5.3153 20.0063C5.04974 19.8133 4.92063 19.4835 4.9846 19.1616L6.10783 13.5087L1.87642 9.59558C1.63542 9.37271 1.54604 9.03003 1.64747 8.71784C1.74891 8.40565 2.02264 8.18096 2.34861 8.14231L8.07196 7.46371L10.4859 2.23019C10.6234 1.93211 10.9217 1.74121 11.25 1.74121ZM11.25 4.59143L9.40275 8.59621C9.28019 8.86192 9.02837 9.04488 8.73779 9.07933L4.35819 9.5986L7.59614 12.593C7.81097 12.7916 7.90716 13.0877 7.85013 13.3747L6.99062 17.7004L10.839 15.5462C11.0943 15.4033 11.4056 15.4033 11.6609 15.5462L15.5093 17.7004L14.6498 13.3747C14.5928 13.0877 14.689 12.7916 14.9038 12.593L18.1418 9.5986L13.7622 9.07933C13.4716 9.04488 13.2198 8.86192 13.0972 8.59621L11.25 4.59143Z" fill="white" />
	</g>
	<defs>
		<clipPath id="clip0_2289_2566">
			<rect width="22" height="22" fill="white" transform="translate(0.25)" />
		</clipPath>
	</defs>
</svg>
