<svg width="20" height="20" viewBox="0 0 20 20" fill="none" xmlns="http://www.w3.org/2000/svg">
	<path fill-rule="evenodd" clip-rule="evenodd" d="M10.25 0.741211C10.5782 0.741211 10.8765 0.932112 11.014 1.23019L13.428 6.46371L19.1513 7.14231C19.4773 7.18096 19.751 7.40565 19.8525 7.71784C19.9539 8.03003 19.8645 8.37271 19.6235 8.59558L15.3921 12.5087L16.5154 18.1616C16.5793 18.4835 16.4502 18.8133 16.1847 19.0063C15.9191 19.1992 15.5656 19.2201 15.2791 19.0598L10.25 16.2447L5.22083 19.0598C4.93439 19.2201 4.58087 19.1992 4.3153 19.0063C4.04974 18.8133 3.92063 18.4835 3.9846 18.1616L5.10783 12.5087L0.876418 8.59558C0.635418 8.37271 0.546035 8.03003 0.647472 7.71784C0.748908 7.40565 1.02264 7.18096 1.34861 7.14231L7.07196 6.46371L9.48595 1.23019C9.62344 0.932112 9.92172 0.741211 10.25 0.741211ZM10.25 3.59143L8.40275 7.59621C8.28019 7.86192 8.02837 8.04488 7.73779 8.07933L3.35819 8.5986L6.59614 11.593C6.81097 11.7916 6.90716 12.0877 6.85013 12.3747L5.99062 16.7004L9.83901 14.5462C10.0943 14.4033 10.4056 14.4033 10.6609 14.5462L14.5093 16.7004L13.6498 12.3747C13.5928 12.0877 13.689 11.7916 13.9038 11.593L17.1418 8.5986L12.7622 8.07933C12.4716 8.04488 12.2198 7.86192 12.0972 7.59621L10.25 3.59143Z" fill="white" fill-opacity="0.1" />
</svg>
