<svg width="30" height="30" viewBox="0 0 30 30" fill="none" xmlns="http://www.w3.org/2000/svg">
	<path fill-rule="evenodd" clip-rule="evenodd" d="M15 3.75C15.6904 3.75 16.25 4.30964 16.25 5L16.25 18.2322L20.3661 14.1161C20.8543 13.628 21.6457 13.628 22.1339 14.1161C22.622 14.6043 22.622 15.3957 22.1339 15.8839L15.8839 22.1339C15.3957 22.622 14.6043 22.622 14.1161 22.1339L7.86612 15.8839C7.37796 15.3957 7.37796 14.6043 7.86612 14.1161C8.35427 13.628 9.14573 13.628 9.63388 14.1161L13.75 18.2322L13.75 5C13.75 4.30964 14.3096 3.75 15 3.75Z" fill="#6E7077" />
	<path fill-rule="evenodd" clip-rule="evenodd" d="M6.25 25C6.25 24.3096 6.80964 23.75 7.5 23.75H22.5C23.1904 23.75 23.75 24.3096 23.75 25C23.75 25.6904 23.1904 26.25 22.5 26.25H7.5C6.80964 26.25 6.25 25.6904 6.25 25Z" fill="#6E7077" />
</svg>
