<svg width="20" height="20" viewBox="0 0 20 20" fill="none" xmlns="http://www.w3.org/2000/svg">
	<path fill-rule="evenodd" clip-rule="evenodd" d="M10 15C9.53976 15 9.16667 14.6269 9.16667 14.1667L9.16667 5.34518L6.42259 8.08925C6.09715 8.41469 5.56952 8.41469 5.24408 8.08925C4.91864 7.76382 4.91864 7.23618 5.24408 6.91074L9.41075 2.74408C9.73618 2.41864 10.2638 2.41864 10.5893 2.74408L14.7559 6.91075C15.0814 7.23618 15.0814 7.76382 14.7559 8.08926C14.4305 8.41469 13.9028 8.41469 13.5774 8.08926L10.8333 5.34518L10.8333 14.1667C10.8333 14.6269 10.4602 15 10 15Z" fill="#000" />
	<path fill-rule="evenodd" clip-rule="evenodd" d="M4.16602 16.6673C4.16602 16.2071 4.53911 15.834 4.99935 15.834H14.9994C15.4596 15.834 15.8327 16.2071 15.8327 16.6673C15.8327 17.1276 15.4596 17.5007 14.9994 17.5007H4.99935C4.53911 17.5007 4.16602 17.1276 4.16602 16.6673Z" fill="#000" />
</svg>
