<svg width="567" height="541" viewBox="0 0 567 541" fill="none" xmlns="http://www.w3.org/2000/svg">
	<path d="M525.58 503.406L520.902 459.496" stroke="#263238" stroke-width="2.32134" stroke-linecap="round" stroke-linejoin="round" />
	<path d="M520.879 460.729C520.879 460.729 512.479 454.19 512.479 439.239C512.479 424.288 523.683 412.153 523.683 412.153C523.683 412.153 535.829 427.104 533.025 442.043C530.221 456.982 520.879 460.729 520.879 460.729Z" fill="#E79436" stroke="#263238" stroke-width="2.32134" stroke-linecap="round" stroke-linejoin="round" />
	<path d="M520.902 459.497L523.042 426.501" stroke="#263238" stroke-width="2.32134" stroke-linecap="round" stroke-linejoin="round" />
	<path d="M529.895 500.167C533.972 489.657 538.95 479.519 544.773 469.866" stroke="#263238" stroke-width="2.32134" stroke-linecap="round" stroke-linejoin="round" />
	<path d="M540.373 477.807C540.373 477.807 535.708 468.223 542.307 454.843C548.906 441.463 564.329 435.505 564.329 435.505C564.329 435.505 568.619 454.275 559.494 466.446C550.369 478.617 540.373 477.807 540.373 477.807Z" fill="#E79436" stroke="#263238" stroke-width="2.32134" stroke-linecap="round" stroke-linejoin="round" />
	<path d="M540.374 477.806L557.379 449.85" stroke="#263238" stroke-width="2.32134" stroke-linecap="round" stroke-linejoin="round" />
	<path d="M518.002 504.082C515.468 495.64 512.023 487.498 507.728 479.801L501.189 468.536" stroke="#263238" stroke-width="2.32134" stroke-linecap="round" stroke-linejoin="round" />
	<path d="M506.447 477.251C501.288 478.835 495.811 479.088 490.527 477.985C485.244 476.881 480.326 474.458 476.231 470.942C461.727 458.758 462.537 433.897 462.537 433.897C462.537 433.897 490.65 429.884 501.999 445.814C505.289 450.274 507.419 455.483 508.195 460.97C508.971 466.458 508.371 472.053 506.447 477.251Z" fill="#E79436" stroke="#263238" stroke-width="2.32134" stroke-linecap="round" stroke-linejoin="round" />
	<path d="M506.447 477.251L473.125 442.526" stroke="#263238" stroke-width="2.32134" stroke-linecap="round" stroke-linejoin="round" />
	<path d="M540.954 494.003H505.384V528.884H540.954V494.003Z" fill="#263238" stroke="#263238" stroke-width="2.32134" stroke-linecap="round" stroke-linejoin="round" />
	<path d="M481.524 2H243.591V202.453H481.524V2Z" fill="white" stroke="#263238" stroke-width="2.32134" stroke-linecap="round" stroke-linejoin="round" />
	<path d="M390.617 65.1958C393.014 50.3151 382.893 36.3089 368.013 33.9121C353.132 31.5152 339.126 41.6354 336.729 56.5161C334.332 71.3968 344.452 85.403 359.333 87.7998C374.214 90.1966 388.22 80.0765 390.617 65.1958Z" fill="#E79436" />
	<path d="M375.574 54.5623C375.574 56.917 374.876 59.2187 373.568 61.1765C372.26 63.1343 370.4 64.6602 368.225 65.5612C366.05 66.4623 363.656 66.6981 361.346 66.2387C359.037 65.7794 356.916 64.6455 355.251 62.9805C353.586 61.3156 352.452 59.1943 351.993 56.8849C351.533 54.5756 351.769 52.1818 352.67 50.0065C353.571 47.8311 355.097 45.9718 357.055 44.6636C359.013 43.3555 361.314 42.6572 363.669 42.6572C366.826 42.6572 369.855 43.9115 372.087 46.1442C374.32 48.3768 375.574 51.4049 375.574 54.5623Z" fill="#263238" />
	<path d="M344.078 79.8366C346.62 82.4631 349.665 84.5517 353.03 85.9781C356.396 87.4044 360.014 88.1394 363.67 88.1394C367.325 88.1394 370.943 87.4044 374.309 85.9781C377.675 84.5517 380.719 82.4631 383.262 79.8366V79.051C383.263 77.6722 382.993 76.3067 382.467 75.0325C381.94 73.7583 381.168 72.6003 380.193 71.6249C379.219 70.6494 378.062 69.8756 376.788 69.3476C375.515 68.8196 374.15 68.5479 372.771 68.5479H354.581C351.795 68.5479 349.124 69.6544 347.154 71.6241C345.184 73.5939 344.078 76.2654 344.078 79.051V79.8366Z" fill="#263238" />
	<path d="M445.458 136.631H280.817V156.646H445.458V136.631Z" stroke="#263238" stroke-width="2.32134" stroke-miterlimit="10" />
	<path d="M445.458 166.641H280.817V186.656H445.458V166.641Z" fill="#E79436" stroke="#263238" stroke-width="2.32134" stroke-miterlimit="10" />
	<path d="M336.04 147.208V148.417H333.067V152.744H336.693V153.952H331.689V141.817H336.693V143.026H333.067V147.184L336.04 147.208Z" fill="#BDBDBD" />
	<path d="M339.17 154H337.962V141.817H339.738L342.554 150.616V141.817H343.763V154H342.349L339.231 144.15L339.17 154Z" fill="#BDBDBD" />
	<path d="M346.857 153.999V143.048H344.573V141.84H350.423V143.048H348.199V153.999H346.857Z" fill="#BDBDBD" />
	<path d="M355.729 147.208V148.417H352.756V152.744H356.381V153.952H351.378V141.817H356.381V143.026H352.756V147.184L355.729 147.208Z" fill="#BDBDBD" />
	<path d="M360.37 141.817C362.292 141.817 363.09 142.796 363.09 144.597V145.588C363.173 146.118 363.067 146.66 362.791 147.12C362.515 147.579 362.086 147.927 361.579 148.102C362.691 148.429 363.102 149.311 363.102 150.64V152.538C363.066 153.038 363.149 153.539 363.343 154H361.978C361.784 153.53 361.705 153.021 361.748 152.514V150.665C361.748 149.287 361.107 148.852 359.971 148.852H359.077V154.061H357.723V141.817H360.37ZM360.032 147.558C361.107 147.558 361.748 147.208 361.748 145.891V144.682C361.748 143.594 361.349 143.014 360.334 143.014H359.077V147.522L360.032 147.558Z" fill="#BDBDBD" />
	<path d="M372.589 144.751V145.827H371.296V144.619C371.296 143.519 370.861 142.854 369.87 142.854C368.879 142.854 368.444 143.519 368.444 144.619V151.049C368.444 152.148 368.891 152.813 369.87 152.813C370.849 152.813 371.296 152.148 371.296 151.049V149.465H372.589V150.976C372.589 152.825 371.707 154.046 369.834 154.046C367.96 154.046 367.102 152.837 367.102 150.976V144.679C367.102 142.842 367.972 141.621 369.834 141.621C371.695 141.621 372.589 142.914 372.589 144.751Z" fill="#BDBDBD" />
	<path d="M373.713 144.752C373.713 142.891 374.632 141.694 376.493 141.694C378.355 141.694 379.297 142.903 379.297 144.752V151.049C379.297 152.898 378.379 154.119 376.493 154.119C374.608 154.119 373.713 152.911 373.713 151.049V144.752ZM375.055 151.122C375.055 152.234 375.526 152.886 376.493 152.886C377.46 152.886 377.944 152.234 377.944 151.122V144.692C377.944 143.592 377.484 142.927 376.493 142.927C375.502 142.927 375.055 143.592 375.055 144.692V151.122Z" fill="#BDBDBD" />
	<path d="M383.431 141.817C385.328 141.817 386.199 142.966 386.199 144.851V150.991C386.199 152.852 385.328 154 383.431 154H380.578V141.817H383.431ZM383.431 152.695C384.398 152.695 384.869 152.091 384.869 150.979V144.718C384.869 143.606 384.398 142.99 383.407 142.99H381.944V152.659L383.431 152.695Z" fill="#BDBDBD" />
	<path d="M391.795 147.208V148.417H388.822V152.744H392.447V153.952H387.432V141.817H392.447V143.026H388.822V147.184L391.795 147.208Z" fill="#BDBDBD" />
	<path d="M352.067 171.936C353.952 171.936 354.823 173.144 354.823 174.969V181.109C354.823 182.97 353.952 184.119 352.067 184.119H349.202V171.936H352.067ZM352.067 182.886C353.046 182.886 353.517 182.269 353.517 181.157V174.897C353.517 173.785 353.046 173.18 352.055 173.18H350.617V182.85L352.067 182.886Z" fill="#263238" />
	<path d="M355.995 174.837C355.995 172.975 356.913 171.767 358.774 171.767C360.636 171.767 361.579 172.975 361.579 174.837V181.134C361.635 181.526 361.603 181.927 361.485 182.306C361.368 182.685 361.168 183.033 360.9 183.326C360.632 183.618 360.302 183.848 359.934 183.997C359.567 184.147 359.171 184.213 358.774 184.191C356.913 184.191 355.995 182.983 355.995 181.134V174.837ZM357.324 181.206C357.324 182.318 357.795 182.959 358.774 182.959C359.753 182.959 360.213 182.318 360.213 181.206V174.837C360.213 173.737 359.766 173.072 358.774 173.072C357.783 173.072 357.324 173.737 357.324 174.837V181.206Z" fill="#263238" />
	<path d="M364.056 184.119H362.848V171.936H364.564L367.38 180.747V171.936H368.589V184.119H367.175L364.056 174.268V184.119Z" fill="#263238" />
	<path d="M374.306 177.338V178.547H371.332V182.886H374.958V184.094H369.955V171.936H374.97V173.144H371.345V177.302L374.306 177.338Z" fill="#263238" />
	<path d="M481.524 2H243.591V11.6933H481.524V2Z" fill="#E79436" stroke="#263238" stroke-width="2.32134" stroke-linecap="round" stroke-linejoin="round" />
	<path d="M84.3767 311.739V309.95" stroke="#263238" stroke-width="2.32134" stroke-linecap="round" stroke-linejoin="round" />
	<path d="M84.3767 306.408V153.164C84.3767 150.068 84.9867 147.002 86.1719 144.142C87.3571 141.282 89.0942 138.683 91.284 136.494C93.4739 134.306 96.0735 132.57 98.9343 131.386C101.795 130.203 104.861 129.594 107.957 129.596H220.083" stroke="#263238" stroke-width="2.32134" stroke-linecap="round" stroke-linejoin="round" stroke-dasharray="6.9 6.9" />
	<path d="M221.908 129.596H223.685" stroke="#263238" stroke-width="2.32134" stroke-linecap="round" stroke-linejoin="round" />
	<path d="M235.469 130.574L216.203 119.442V141.693L235.469 130.574Z" fill="#263238" />
	<path d="M419.388 460.994H421.177" stroke="#263238" stroke-width="2.32134" stroke-linecap="round" stroke-linejoin="round" />
	<path d="M424.718 460.995H431.33C437.603 460.995 443.619 458.503 448.055 454.067C452.491 449.631 454.983 443.615 454.983 437.342V213.743" stroke="#263238" stroke-width="2.32134" stroke-linecap="round" stroke-linejoin="round" stroke-dasharray="6.9 6.9" />
	<path d="M454.982 211.976V210.199" stroke="#263238" stroke-width="2.32134" stroke-linecap="round" stroke-linejoin="round" />
	<path d="M412.644 459.955L431.909 471.074V448.823L412.644 459.955Z" fill="#263238" />
	<path d="M311.686 314.869C312.713 312.913 314.257 311.276 316.149 310.136C318.041 308.996 320.21 308.396 322.419 308.402H425.818C425.818 308.402 433.288 308.402 431.052 322.604C428.816 336.805 398.165 423.513 390.683 449.668C383.202 475.823 381.715 531.143 381.715 531.143H257.636C257.636 531.143 267.583 399.075 311.686 314.869Z" fill="white" stroke="#263238" stroke-width="2.32134" stroke-linecap="round" stroke-linejoin="round" />
	<path d="M407.882 333.071C397.427 357.461 375.248 453.935 371.719 531.143H381.715C381.715 531.143 383.25 475.787 390.683 449.668C398.116 423.55 428.803 336.805 431.051 322.604C433.3 308.402 425.818 308.402 425.818 308.402C425.818 308.402 416.258 313.515 407.882 333.071Z" fill="#263238" stroke="#263238" stroke-width="2.32134" stroke-linecap="round" stroke-linejoin="round" />
	<path d="M211.26 310.36C211.26 310.36 192.284 308.052 179.751 294.877C167.217 281.703 206.994 234.723 228.229 223.652C249.465 212.581 258.216 215.615 280.987 232.403C303.757 249.191 325.984 276.131 325.706 294.201C325.428 312.27 315.59 320.912 329.332 329.819C343.075 338.727 381.969 364.024 387.649 381.404C393.33 398.784 383.48 420.407 360.672 432.167C337.865 443.927 300.446 443.383 264.404 431.732C228.362 420.081 220.518 383.217 225.16 368.218C229.801 353.219 242.08 342.909 238.382 331.499C234.684 320.09 211.26 310.36 211.26 310.36Z" fill="#263238" stroke="#263238" stroke-width="2.32134" stroke-linecap="round" stroke-linejoin="round" />
	<path d="M227.528 362.175C227.528 362.175 207.9 359.443 198.835 365.305C189.77 371.167 144.978 447.722 144.978 447.722L120.237 414.424L98.7837 424.057C98.7837 424.057 108.84 462.975 120.539 482.338C132.239 501.7 138.911 503.658 142.923 503.018C154.865 501.12 189.456 461.102 189.456 461.102L202.026 502.921L193.493 533.318H352.429L333.151 501.169C333.151 501.169 358.303 385.139 351.897 372.847C345.492 360.555 308.169 362.175 296.433 362.175H262.833C257.74 363.184 252.565 363.719 247.374 363.77C240.736 363.577 234.112 363.044 227.528 362.175Z" fill="#E79436" />
	<path d="M333.695 366.092L334.022 366.225L330.976 373.984L330.637 373.851L333.695 366.092ZM332.861 374.721L333.188 374.854L336.245 367.095L335.907 366.962L332.861 374.721ZM346.724 399.414L346.374 399.317L345.032 404.091H345.407L346.724 399.414ZM349.021 400.067L348.67 399.97L347.462 404.091H347.824L349.021 400.067ZM334.517 400.333L335.653 404.091H336.028L334.819 400.224L334.517 400.333ZM337.152 399.547L336.801 399.644L338.143 404.091H338.518L337.152 399.547ZM346.882 381.792L351.027 374.54L350.725 374.359L346.579 381.611L346.882 381.792ZM348.96 383.001L352.84 376.22C352.84 376.015 352.84 375.833 352.768 375.64L348.646 382.831L348.96 383.001ZM351.68 393.31L352.369 392.404L352.441 391.739L351.39 393.093L351.68 393.31ZM341.418 385.95L347.196 391.993L347.45 391.751L341.672 385.708L341.418 385.95ZM339.593 387.557L345.359 393.6L345.625 393.359L339.847 387.316L339.593 387.557ZM333.224 387.557L333.321 387.207L328.861 386.107V386.469L333.224 387.557ZM328.8 383.931L333.816 385.2L333.901 384.85L328.861 383.641L328.8 383.931ZM334.396 394.724L334.287 394.386L328.861 396.272V396.646L334.396 394.724ZM333.538 392.114L328.8 393.685V394.06L333.635 392.452L333.538 392.114ZM330.915 459.641L333.961 451.881L333.635 451.748L330.577 459.508L330.915 459.641ZM335.847 452.618L332.801 460.378L333.127 460.511L336.185 452.751L335.847 452.618ZM335.689 488.999L334.759 485.892L334.408 485.989L335.544 489.736L335.689 488.999ZM341.733 436.809L341.394 436.93L344.222 444.774H344.295L344.404 444.23L341.733 436.809ZM343.63 436.12L345.117 440.218C345.117 439.988 345.201 439.758 345.238 439.517L343.969 436L343.63 436.12ZM348.924 415.694L349.118 416.335L349.226 415.61L348.924 415.694ZM340.971 415.223L340.488 423.539H340.838L341.322 415.211L340.971 415.223ZM342.869 423.684H343.219L343.703 415.356H343.352L342.869 423.684ZM332.704 414.86L332.873 414.546L328.764 412.334V412.745L332.704 414.86ZM328.764 410.026L333.828 412.745L333.997 412.431L328.861 409.712L328.764 410.026ZM331.931 422.608L331.701 422.342L328.861 425.025V425.497L331.931 422.608ZM330.371 420.807L330.142 420.529L328.764 421.738V422.209L330.371 420.807ZM328.861 435.105V435.48L336.378 432.543L336.245 432.217L328.861 435.105ZM328.861 432.543V432.93L335.508 430.331L335.375 429.993L328.861 432.543ZM333.296 447.675L333.381 447.325L328.861 446.309V446.672L333.296 447.675ZM333.816 445.355L333.901 445.004L328.861 443.868V444.23L333.816 445.355ZM333.224 473.371L333.321 473.032L328.8 471.884V472.259L333.224 473.371ZM328.861 469.745L333.877 471.026L333.961 470.676L328.861 469.394V469.745ZM334.457 480.538L334.348 480.2L328.861 482.013V482.399L334.457 480.538ZM333.707 478.278L333.599 477.94L328.861 479.511V479.885L333.707 478.278ZM344.452 407.427L345.407 404.079H345.032L344.114 407.331L344.452 407.427ZM347.873 404.079H347.51L346.41 407.971L346.749 408.08L347.873 404.079ZM336.874 408.298L337.224 408.201L336.016 404.079H335.641L336.874 408.298ZM339.497 407.512L338.469 404.079H338.095L339.158 407.621L339.497 407.512ZM341.491 522.756L344.319 530.588L344.658 530.467L341.829 522.635L341.491 522.756ZM346.894 529.657L344.065 521.825L343.727 521.946L346.567 529.778L346.894 529.657ZM350.894 531.591L350.544 531.494L350.036 533.307H350.411L350.894 531.591ZM328.861 498.571L332.801 500.686L332.97 500.372L328.861 498.16V498.571ZM328.861 495.864L333.695 498.511L333.768 498.148L328.861 495.465V495.864ZM331.967 508.421L331.737 508.143L328.861 510.718V511.177L331.967 508.421ZM330.408 506.608L330.178 506.343L328.8 507.551V508.023L330.408 506.608ZM336.185 517.921L328.861 520.846V521.233L336.378 518.284L336.185 517.921ZM328.8 518.635L335.448 516.036L335.315 515.71L328.8 518.248V518.635ZM328.8 532.014V532.389L332.801 533.283H333.26L333.321 533.041L328.8 532.014ZM333.756 531.059L333.84 530.709L328.8 529.573V529.947L333.756 531.059ZM244.836 373.815L245.162 373.948L248.22 366.188L247.882 366.056L244.836 373.815ZM247.048 374.685L247.386 374.818L250.432 367.059L250.106 366.926L247.048 374.685ZM325.15 385.503L328.776 386.433V386.071L325.211 385.164L325.15 385.503ZM325.827 382.856L325.73 383.194L328.8 383.98V383.605L325.827 382.856ZM328.861 396.646V396.272L326.443 397.081L326.552 397.42L328.861 396.646ZM325.622 394.809L325.73 395.148L328.8 394.132V393.758L325.622 394.809ZM319.192 404.091H319.602L321.174 401.36L320.872 401.179L319.192 404.091ZM321.947 404.091H322.358L323.24 402.544L322.938 402.363L321.947 404.091ZM303.975 400.756L303.697 400.985L306.247 404.091H306.706L303.975 400.756ZM305.546 399.474L309.329 404.091H309.788L305.824 399.257L305.546 399.474ZM296.529 403.548L296.203 403.668L296.348 404.091H296.735L296.529 403.548ZM298.439 402.859L298.886 404.067H299.261L298.778 402.714L298.439 402.859ZM285.362 404.067L286.389 400.018L286.038 399.934L284.987 404.067H285.362ZM288.347 400.514L287.441 404.067H287.767L288.649 400.611L288.347 400.514ZM260.947 399.39L260.597 399.293L259.243 404.067H259.618L260.947 399.39ZM263.231 400.043L262.893 399.946L261.684 404.067H262.059L263.231 400.043ZM248.728 400.308L249.864 404.067H250.238L249.03 400.2L248.728 400.308ZM251.35 399.523L251.012 399.62L252.354 404.067H252.716L251.35 399.523ZM261.092 381.768L265.238 374.516L264.923 374.335L260.778 381.587L261.092 381.768ZM262.857 382.783L263.159 382.952L267.305 375.7L266.99 375.519L262.857 382.783ZM310.151 388.101L317.826 391.352L317.959 391.026L310.284 387.775L310.151 388.101ZM309.22 390.289L316.895 393.54L317.028 393.214L309.293 389.975L309.22 390.289ZM315.686 377.767L316.025 377.864L318.297 369.851L317.947 369.742L315.686 377.767ZM317.971 378.42L318.321 378.517L320.581 370.491L320.243 370.395L317.971 378.42ZM305.498 363.505L307.915 371.482L308.253 371.386L305.896 363.384L305.498 363.505ZM307.77 362.816L310.187 370.793L310.526 370.697L308.108 362.72L307.77 362.816ZM281.434 396.985L279.016 389.008L278.678 389.104L281.095 397.093L281.434 396.985ZM283.718 396.296L281.301 388.319L280.95 388.415L283.367 396.405L283.718 396.296ZM293.145 391.679L301.4 390.47V390.12L293.145 391.328V391.679ZM293.484 394.036L301.739 392.827V392.476L293.484 393.685V394.036ZM299.527 383.871L299.877 383.955L301.739 375.833L301.388 375.749L299.527 383.871ZM303.709 376.281L301.848 384.403L302.198 384.487L304.059 376.365L303.709 376.281ZM274.472 379.242L274.774 379.435L279.234 372.389L278.932 372.207L274.472 379.242ZM281.252 373.67L280.95 373.477L276.49 380.523L276.792 380.716L281.252 373.67ZM273.505 365.56L281.143 362.224V362.14H280.491L273.396 365.234L273.505 365.56ZM274.315 367.409L274.46 367.736L282.098 364.412L281.953 364.085L274.315 367.409ZM267.063 362.14H266.688L264.803 368.69L265.153 368.787L267.063 362.14ZM262.893 368.183L264.585 362.14H264.21L262.542 368.038L262.893 368.183ZM295.599 364.702L294.777 362.176H294.402L295.188 364.786L295.599 364.702ZM292.976 365.487L293.327 365.391L292.36 362.188H291.985L292.976 365.487ZM265.612 393.117L265.89 393.335L270.967 386.723L270.677 386.506L265.612 393.117ZM267.498 394.567L267.788 394.785L272.852 388.162L272.574 387.944L267.498 394.567ZM255.629 385.974L261.406 392.017L261.672 391.775L255.895 385.732L255.629 385.974ZM253.84 387.557L259.618 393.6L259.871 393.359L254.106 387.316L253.84 387.557ZM285.483 376.873L285.337 377.199L293.012 380.463L293.157 380.124L285.483 376.873ZM286.268 375.012L293.943 378.263L294.088 377.936L286.413 374.685L286.268 375.012ZM247.483 387.557L247.567 387.207L243.047 386.107V386.469L247.483 387.557ZM243.059 383.931L248.063 385.2L248.16 384.85L243.047 383.641L243.059 383.931ZM248.655 394.724L248.534 394.386L243.047 396.272V396.646L248.655 394.724ZM247.785 392.114L243.059 393.685V394.06L247.894 392.452L247.785 392.114ZM247.882 451.748L244.836 459.508L245.162 459.641L248.22 451.881L247.882 451.748ZM250.106 452.618L247.048 460.378L247.386 460.511L250.432 452.751L250.106 452.618ZM325.404 410.908L328.8 412.745V412.334L325.573 410.594L325.404 410.908ZM326.697 408.491L326.528 408.793L328.8 410.002V409.591L326.697 408.491ZM328.861 425.025L325.489 427.95L325.718 428.216L328.861 425.497V425.025ZM324.159 426.415L328.861 422.354V421.883L323.929 426.137L324.159 426.415ZM328.486 435.311L328.607 435.649L328.861 435.54V435.166L328.486 435.311ZM327.616 433.099L327.737 433.425L328.861 432.99V432.603L327.616 433.099ZM328.824 446.394L325.198 445.572L325.114 445.923L328.812 446.757L328.824 446.394ZM328.824 443.977L325.73 443.276L325.658 443.626L328.824 444.339V443.977ZM328.824 471.957L325.235 470.954L325.15 471.304L328.776 472.235L328.824 471.957ZM325.851 468.742L325.754 469.092L328.861 469.745V469.382L325.851 468.742ZM328.861 482.399V482.013L326.443 482.822L326.552 483.161L328.861 482.399ZM328.861 479.885V479.511L325.682 480.562L325.791 480.901L328.861 479.885ZM279.79 408.322L272.115 405.058L271.982 405.385L279.657 408.648L279.79 408.322ZM271.051 407.584L278.726 410.836L278.859 410.509L271.184 407.258L271.051 407.584ZM321.15 487.101L320.847 486.932L319.192 489.845H319.602L321.15 487.101ZM323.216 488.31L322.914 488.128L321.923 489.869H322.334L323.216 488.31ZM303.673 486.751L306.223 489.869H306.682L303.951 486.521L303.673 486.751ZM305.522 485.24L309.305 489.869H309.764L305.8 485.034L305.522 485.24ZM296.505 489.325L296.179 489.446L296.324 489.869H296.711L296.505 489.325ZM298.415 488.636L298.862 489.845H299.237L298.753 488.491L298.415 488.636ZM286.329 485.82L285.978 485.723L284.927 489.869H285.35L286.329 485.82ZM288.287 486.315L287.38 489.869H287.767L288.649 486.4L288.287 486.315ZM260.887 485.179L260.536 485.083L259.182 489.917H259.557L260.887 485.179ZM263.171 485.832L262.833 485.735L261.624 489.869H261.999L263.171 485.832ZM248.667 486.098L249.803 489.869H250.178L248.969 486.001L248.667 486.098ZM250.952 485.421L252.293 489.869H252.656L251.29 485.312L250.952 485.421ZM264.863 460.16L260.717 467.412L261.032 467.594L265.177 460.342L264.863 460.16ZM267.28 461.514L266.966 461.333L262.833 468.585L263.135 468.766L267.28 461.514ZM300.989 421.798L295.671 415.356L295.405 415.586L300.675 422.04L300.989 421.798ZM299.152 423.309L293.81 416.831L293.532 417.06L298.814 423.514L299.152 423.309ZM286.087 419.78L288.915 427.612L289.253 427.491L286.425 419.659L286.087 419.78ZM288.335 418.97L291.163 426.802L291.489 426.681L288.661 418.849L288.335 418.97ZM317.935 476.815L310.26 473.564L310.127 473.891L317.802 477.142L317.935 476.815ZM317.004 479.015L309.329 475.752L309.196 476.09L316.871 479.342L317.004 479.015ZM317.922 455.543L315.662 463.569L316.001 463.665L318.273 455.64L317.922 455.543ZM320.557 456.293L320.219 456.196L317.947 464.209L318.297 464.306L320.557 456.293ZM308.265 457.151L305.848 449.174L305.51 449.271L307.927 457.26L308.265 457.151ZM310.55 456.462L308.132 448.485L307.782 448.582L310.199 456.571L310.55 456.462ZM286.377 435.589L282.231 442.841L282.533 443.01L286.679 435.758L286.377 435.589ZM284.612 434.586L284.298 434.404L280.164 441.656L280.467 441.825L284.612 434.586ZM270.532 441.173L265.25 434.694L264.972 434.924L270.254 441.378L270.532 441.173ZM272.369 439.662L267.099 433.208L266.821 433.437L272.091 439.891L272.369 439.662ZM255.689 437.039L258.518 444.883L258.856 444.762L256.016 436.918L255.689 437.039ZM257.925 436.229L260.754 444.073L261.092 443.952L258.264 436.108L257.925 436.229ZM315.566 442.575L315.916 442.659L317.971 434.586L317.62 434.489L315.566 442.575ZM320.279 435.166L319.929 435.081L317.874 443.155L318.225 443.239L320.279 435.166ZM306.646 441.946L298.971 438.695L298.838 439.021L306.513 442.285L306.646 441.946ZM307.576 439.759L299.853 436.507L299.72 436.834L307.395 440.085L307.576 439.759ZM281.434 482.738L279.016 474.749L278.678 474.857L281.095 482.834L281.434 482.738ZM283.718 482.049L281.301 474.06L280.95 474.169L283.367 482.146L283.718 482.049ZM301.4 476.26V475.909L293.145 477.118V477.468L301.4 476.26ZM301.739 478.616V478.266L293.484 479.474V479.825L301.739 478.616ZM299.853 469.745L301.715 461.623L301.364 461.538L299.503 469.672L299.853 469.745ZM302.174 470.277L304.035 462.155L303.685 462.07L301.823 470.204L302.174 470.277ZM279.21 458.19L278.908 457.997L274.472 464.995L274.774 465.188L279.21 458.19ZM281.228 459.459L280.926 459.266L276.466 466.312L276.768 466.506L281.228 459.459ZM281.119 448.014L280.986 447.687L273.336 451.023L273.481 451.349L281.119 448.014ZM282.074 450.201L281.929 449.875L274.29 453.211L274.436 453.537L282.074 450.201ZM267.389 446.575L267.051 446.466L264.803 454.431L265.153 454.528L267.389 446.575ZM262.833 453.948L265.093 445.923L264.754 445.826L262.482 453.851L262.833 453.948ZM295.526 450.407L293.109 442.43L292.759 442.526L295.176 450.515L295.526 450.407ZM290.51 443.155L292.928 451.132L293.278 451.035L290.861 443.058L290.51 443.155ZM278.92 422.608L272.26 427.636L272.478 427.914L279.137 422.898L278.92 422.608ZM273.916 429.86L280.563 424.832L280.358 424.554L273.698 429.57L273.916 429.86ZM268.163 422.958L265.854 414.945L265.504 415.054L267.824 423.055L268.163 422.958ZM263.219 415.707L265.528 423.817L265.878 423.72L263.594 415.682L263.219 415.707ZM255.266 415.235L254.783 423.551H255.133L255.617 415.223L255.266 415.235ZM257.152 423.696H257.515L257.998 415.368H257.635L257.152 423.696ZM270.846 472.416L270.556 472.198L265.492 478.822L265.77 479.039L270.846 472.416ZM272.731 473.866L272.453 473.649L267.377 480.272L267.667 480.49L272.731 473.866ZM255.508 471.667L261.285 477.71L261.551 477.456L255.774 471.413L255.508 471.667ZM253.84 473.371L259.618 479.414L259.871 479.172L254.106 473.129L253.84 473.371ZM314.538 426.947L314.26 426.729L309.015 433.208L309.293 433.437L314.538 426.947ZM312.411 425.231L307.166 431.709L307.444 431.939L312.677 425.448L312.411 425.231ZM313.874 412.939H313.523L312.58 421.218H312.943L313.874 412.939ZM311.154 412.624L310.223 420.916H310.574L311.505 412.637L311.154 412.624ZM293.157 465.926L285.483 462.674L285.337 463.001L293.012 466.252L293.157 465.926ZM286.268 460.801L293.943 464.052L294.088 463.726L286.413 460.475L286.268 460.801ZM246.999 414.981L247.169 414.667L243.059 412.455V412.866L246.999 414.981ZM243.059 410.147L248.123 412.866L248.293 412.552L243.047 409.712L243.059 410.147ZM246.226 422.729L245.984 422.463L243.047 425.025V425.497L246.226 422.729ZM244.667 420.928L244.425 420.65L243.059 421.859V422.33L244.667 420.928ZM250.432 432.241L243.059 435.129V435.504L250.565 432.567L250.432 432.241ZM249.695 430.355L249.574 430.017L243.047 432.543V432.93L249.695 430.355ZM247.495 447.699L247.567 447.349L243.059 446.334V446.696L247.495 447.699ZM243.047 444.23L248.003 445.355L248.087 445.004L243.047 443.868V444.23ZM247.483 473.371L247.567 473.032L243.059 471.884V472.259L247.483 473.371ZM243.047 469.745L248.051 471.026L248.148 470.676L243.047 469.394V469.745ZM248.643 480.538L248.522 480.2L243.047 482.013V482.399L248.643 480.538ZM247.894 478.278L247.773 477.94L243.047 479.511V479.885L247.894 478.278ZM316.69 408.406L316.992 408.576L319.566 404.079H319.192L316.69 408.406ZM318.756 409.615L319.059 409.784L322.322 404.104H321.911L318.756 409.615ZM309.22 407.198L306.67 404.079H306.211L308.942 407.415L309.22 407.198ZM310.791 405.917L311.069 405.687L309.752 404.079H309.293L310.791 405.917ZM299.334 411.38L296.699 404.128H296.312L298.995 411.549L299.334 411.38ZM301.231 410.691L301.57 410.57L299.225 404.079H298.85L301.231 410.691ZM283.948 408.02L284.298 408.104L285.325 404.079H284.951L283.948 408.02ZM286.256 408.612L286.607 408.696L287.815 404.079H287.441L286.256 408.612ZM258.639 407.403L259.581 404.055H259.207L258.288 407.306L258.639 407.403ZM262.059 404.055H261.684L260.584 407.947L260.935 408.056L262.059 404.055ZM251.06 408.273L251.399 408.177L250.19 404.055H249.815L251.06 408.273ZM253.683 407.488L252.644 404.055H252.281L253.333 407.597L253.683 407.488ZM325.561 496.383L325.392 496.698L328.788 498.535V498.124L325.561 496.383ZM326.685 494.292L326.516 494.607L328.788 495.815V495.416L326.685 494.292ZM328.861 511.177V510.718L325.489 513.631L325.718 513.897L328.861 511.177ZM328.861 508.035V507.563L323.929 511.83L324.159 512.096L328.861 508.035ZM328.486 520.991L328.607 521.33L328.861 521.233V520.846L328.486 520.991ZM327.616 518.78L327.737 519.118L328.861 518.671V518.284L327.616 518.78ZM325.198 531.241L325.114 531.591L328.812 532.425V532.05L325.198 531.241ZM328.824 529.609L325.73 528.908L325.658 529.258L328.824 529.984V529.609ZM279.79 494.063L272.115 490.812L271.982 491.138L279.657 494.389L279.79 494.063ZM271.051 493.326L278.726 496.589L278.859 496.25L271.184 492.999L271.051 493.326ZM295.405 501.29L300.675 507.745L300.953 507.515L295.671 501.073L295.405 501.29ZM299.116 509.026L293.81 502.584L293.532 502.801L298.814 509.255L299.116 509.026ZM289.217 513.256L286.389 505.412L286.051 505.533L288.879 513.377L289.217 513.256ZM291.453 512.446L288.625 504.602L288.299 504.723L291.127 512.567L291.453 512.446ZM286.619 521.523L286.316 521.342L282.171 528.594L282.473 528.775L286.619 521.523ZM284.552 520.314L284.238 520.145L280.104 527.397L280.406 527.578L284.552 520.314ZM270.471 526.902L265.25 520.508L264.972 520.725L270.254 527.18L270.471 526.902ZM272.308 525.391L267.039 518.949L266.761 519.166L272.03 525.62L272.308 525.391ZM258.796 530.491L255.955 522.659L255.629 522.78L258.457 530.612L258.796 530.491ZM261.032 529.681L258.203 521.849L257.865 521.97L260.693 529.802L261.032 529.681ZM317.838 520.339L317.487 520.254L315.433 528.328L315.783 528.412L317.838 520.339ZM320.146 520.919L319.796 520.834L317.741 528.92L318.092 529.005L320.146 520.919ZM306.646 527.76L298.971 524.508L298.838 524.835L306.513 528.086L306.646 527.76ZM307.576 525.56L299.853 522.248L299.72 522.575L307.395 525.838L307.576 525.56ZM267.039 532.22L266.7 533.428H267.075L267.377 532.365L267.039 532.22ZM265.081 531.664L264.742 531.567L264.223 533.38H264.597L265.081 531.664ZM292.783 528.328L294.306 533.38H294.68L293.133 528.219L292.783 528.328ZM290.849 528.908L290.51 529.005L291.816 533.38H292.19L290.849 528.908ZM279.137 508.808L278.92 508.53L272.26 513.546L272.478 513.836L279.137 508.808ZM280.563 510.718L280.358 510.428L273.698 515.444L273.916 515.734L280.563 510.718ZM267.824 508.941L268.163 508.832L265.854 500.831L265.504 500.928L267.824 508.941ZM265.878 509.497L263.594 501.436L263.256 501.532L265.564 509.533L265.878 509.497ZM255.133 509.497L255.617 501.182H255.266L254.783 509.509L255.133 509.497ZM257.551 509.642L258.034 501.315H257.672L257.188 509.63L257.551 509.642ZM314.574 512.76L314.297 512.531L309.051 519.009L309.329 519.239L314.574 512.76ZM312.447 511.032L307.202 517.51L307.48 517.74L312.713 511.262L312.447 511.032ZM313.91 498.752H313.559L312.617 507.032H312.979L313.91 498.752ZM311.19 498.45L310.26 506.729H310.61L311.541 498.438L311.19 498.45ZM247.036 500.795L247.205 500.481L243.095 498.269V498.68L247.036 500.795ZM248.329 498.378L243.047 495.465V495.864L248.111 498.595L248.329 498.378ZM246.226 508.421L245.984 508.143L243.047 510.706V511.177L246.226 508.421ZM244.667 506.608L244.425 506.343L243.059 507.551V508.023L244.667 506.608ZM250.432 517.921L243.059 520.81V521.197L250.565 518.248L250.432 517.921ZM243.059 518.635L249.695 516.036L249.574 515.71L243.059 518.248V518.635ZM243.059 532.014V532.389L247.06 533.283H247.507L247.567 533.041L243.059 532.014ZM248.015 531.059L248.099 530.709L243.059 529.573V529.947L248.015 531.059ZM317.004 494.305L319.578 489.808H319.192L316.774 494.123L317.004 494.305ZM321.923 489.808L318.768 495.308L319.071 495.489L322.334 489.808H321.923ZM308.954 493.144L309.232 492.915L306.682 489.808H306.223L308.954 493.144ZM310.804 491.633L311.082 491.404L309.764 489.808H309.305L310.804 491.633ZM299.346 497.096L296.711 489.845H296.324L299.007 497.254L299.346 497.096ZM301.243 496.42L301.582 496.287L299.237 489.808H298.862L301.243 496.42ZM284.322 493.833L285.35 489.808H284.975L283.972 493.749L284.322 493.833ZM286.28 494.329L286.631 494.413L287.839 489.808H287.465L286.28 494.329ZM258.663 493.12L259.605 489.784H259.231L258.312 493.023L258.663 493.12ZM261.709 489.784L260.609 493.676L260.959 493.773L262.083 489.784H261.709ZM251.085 494.002L251.423 493.894L250.214 489.784H249.84L251.085 494.002ZM253.357 493.313L253.707 493.217L252.668 489.784H252.305L253.357 493.313ZM239.421 385.539L243.047 386.469V386.107L239.482 385.2L239.421 385.539ZM240.098 382.892L240.013 383.23L243.083 384.016V383.641L240.098 382.892ZM243.047 396.646V396.272L240.63 397.081L240.751 397.42L243.047 396.646ZM239.88 394.809L239.989 395.148L243.059 394.132V393.758L239.88 394.809ZM233.378 404.091H233.789L235.36 401.36L235.046 401.179L233.378 404.091ZM236.122 404.091H236.533L237.427 402.544L237.113 402.363L236.122 404.091ZM218.161 400.756L217.883 400.985L220.433 404.091H220.893L218.161 400.756ZM219.732 399.474L223.503 404.091H223.975L220.01 399.257L219.732 399.474ZM210.716 403.548L210.377 403.668L210.535 404.091H210.909L210.716 403.548ZM212.626 402.859L213.061 404.067H213.447L212.964 402.714L212.626 402.859ZM199.536 404.067L200.563 400.018L200.225 399.934L199.173 404.067H199.536ZM202.533 400.514L201.627 404.067H202.002L202.872 400.611L202.533 400.514ZM173.804 404.067L175.121 399.39L174.783 399.293L173.429 404.067H173.804ZM177.43 400.043L177.079 399.946L175.871 404.067H176.245L177.43 400.043ZM224.301 388.101L231.976 391.352L232.121 391.026L224.446 387.775L224.301 388.101ZM223.37 390.289L231.082 393.6L231.227 393.274L223.552 389.975L223.37 390.289ZM229.837 377.767L230.187 377.864L232.447 369.851L232.109 369.742L229.837 377.767ZM232.133 378.42L232.471 378.517L234.744 370.491L234.405 370.395L232.133 378.42ZM219.744 363.505L222.162 371.482L222.5 371.386L220.083 363.384L219.744 363.505ZM222.029 362.816L224.446 370.793L224.785 370.697L222.367 362.72L222.029 362.816ZM192.949 389.104L195.366 397.093L195.705 396.985L193.287 389.008L192.949 389.104ZM197.977 396.356L195.56 388.379L195.221 388.476L197.638 396.465L197.977 396.356ZM207.404 391.739L215.659 390.531V390.18L207.404 391.389V391.739ZM207.682 393.746V394.096L215.937 392.887V392.537L207.682 393.746ZM215.974 375.894L215.623 375.809L213.774 383.931L214.112 384.016L215.974 375.894ZM217.956 376.341L216.094 384.463L216.433 384.548L218.294 376.426L217.956 376.341ZM188.658 379.242L188.96 379.435L193.42 372.389L193.118 372.207L188.658 379.242ZM190.677 380.523L190.979 380.716L195.439 373.67L195.137 373.477L190.677 380.523ZM209.749 364.653L208.975 362.079H208.613L209.411 364.702L209.749 364.653ZM207.126 365.439L207.465 365.342L206.607 362.466L206.256 362.538L207.126 365.439ZM179.763 393.069L180.041 393.286L185.105 386.675L184.827 386.457L179.763 393.069ZM187.014 388.113L186.724 387.896L181.66 394.519L181.95 394.737L187.014 388.113ZM199.705 376.885L199.572 377.211L207.247 380.475L207.38 380.136L199.705 376.885ZM200.503 375.024L208.178 378.275L208.311 377.949L200.636 374.697L200.503 375.024ZM162.116 451.833L159.071 459.592L159.397 459.725L162.443 451.966L162.116 451.833ZM164.328 452.703L161.282 460.463L161.609 460.595L164.667 452.836L164.328 452.703ZM239.627 410.993L243.035 412.83V412.419L239.796 410.679L239.627 410.993ZM240.932 408.576L240.763 408.878L243.035 410.086V409.675L240.932 408.576ZM243.047 425.025L239.663 427.95L239.905 428.216L243.047 425.497V425.025ZM238.345 426.415L243.047 422.354V421.883L238.116 426.137L238.345 426.415ZM242.66 435.311L242.793 435.649L243.047 435.54V435.166L242.66 435.311ZM243.047 432.603L241.838 433.099L241.971 433.425L243.095 432.99L243.047 432.603ZM243.047 446.37L239.421 445.548L239.349 445.898L243.047 446.732V446.37ZM239.953 443.227L239.868 443.578L243.047 444.291V443.928L239.953 443.227ZM243.047 471.848L239.482 470.941L239.385 471.292L243.011 472.223L243.047 471.848ZM240.062 468.633L239.977 468.983L243.047 469.745V469.382L240.062 468.633ZM243.047 482.399V482.013L240.63 482.822L240.751 483.161L243.047 482.399ZM243.047 479.885V479.511L239.868 480.562L239.977 480.901L243.047 479.885ZM186.241 405.385L193.916 408.648L194.061 408.322L186.386 405.058L186.241 405.385ZM185.31 407.584L192.985 410.836L193.13 410.509L185.455 407.258L185.31 407.584ZM235.421 487.101L235.106 486.932L233.378 489.845H233.789L235.421 487.101ZM237.487 488.31L237.173 488.128L236.182 489.869H236.593L237.487 488.31ZM217.944 486.751L220.494 489.869H220.953L218.222 486.521L217.944 486.751ZM219.793 485.24L223.564 489.869H224.035L220.071 485.034L219.793 485.24ZM210.776 489.325L210.438 489.446L210.595 489.869H210.97L210.776 489.325ZM212.686 488.636L213.121 489.845H213.508L213.024 488.491L212.686 488.636ZM199.234 489.845H199.596L200.624 485.796L200.285 485.699L199.234 489.845ZM202.594 486.291L201.687 489.845H202.062L202.932 486.376L202.594 486.291ZM163.277 485.977L162.938 486.074L163.603 488.273L163.893 488.007L163.277 485.977ZM165.561 485.288L165.211 485.397L165.537 486.436L165.815 486.158L165.561 485.288ZM179.448 460.305L179.134 460.136L174.988 467.388L175.303 467.569L179.448 460.305ZM177.369 468.766L181.515 461.514L181.201 461.333L177.055 468.585L177.369 468.766ZM215.248 421.774L209.93 415.356L209.652 415.586L214.934 422.04L215.248 421.774ZM213.399 423.285L208.117 416.831L207.851 417.06L213.121 423.514L213.399 423.285ZM200.346 419.756L203.174 427.587L203.512 427.467L200.684 419.635L200.346 419.756ZM202.582 418.946L205.41 426.778L205.748 426.657L202.92 418.825L202.582 418.946ZM232.169 476.791L224.494 473.54L224.349 473.866L232.024 477.118L232.169 476.791ZM231.239 478.991L223.564 475.728L223.419 476.066L231.094 479.317L231.239 478.991ZM232.157 455.519L229.885 463.545L230.235 463.641L232.496 455.616L232.157 455.519ZM234.792 456.269L234.454 456.172L232.169 464.185L232.508 464.282L234.792 456.269ZM222.5 457.127L220.083 449.15L219.744 449.246L222.162 457.235L222.5 457.127ZM224.785 456.438L222.367 448.461L222.029 448.557L224.446 456.547L224.785 456.438ZM200.612 435.565L196.466 442.816L196.78 442.986L200.926 435.734L200.612 435.565ZM198.545 434.356L194.399 441.608L194.713 441.777L198.859 434.525L198.545 434.356ZM179.207 434.9L184.488 441.354L184.754 441.124L179.509 434.694L179.207 434.9ZM181.044 433.389L186.326 439.843L186.604 439.613L181.406 433.183L181.044 433.389ZM169.912 437.015L172.74 444.859L173.079 444.738L170.251 436.894L169.912 437.015ZM172.16 436.205L174.988 444.049L175.315 443.928L172.487 436.084L172.16 436.205ZM229.752 442.575L230.103 442.659L232.145 434.586L231.807 434.489L229.752 442.575ZM234.466 435.166L234.115 435.081L232.061 443.155L232.411 443.239L234.466 435.166ZM220.905 441.946L213.23 438.695L213.085 439.021L220.76 442.285L220.905 441.946ZM221.835 439.759L214.161 436.507L214.015 436.834L221.69 440.085L221.835 439.759ZM195.245 474.169L197.663 482.146L198.001 482.049L195.584 474.06L195.245 474.169ZM215.671 476.26V475.909L207.416 477.118V477.468L215.671 476.26ZM215.998 478.616V478.266L207.743 479.474V479.825L215.998 478.616ZM214.112 469.745L215.974 461.623L215.623 461.538L213.774 469.672L214.112 469.745ZM216.433 470.277L218.294 462.155L217.956 462.07L216.094 470.204L216.433 470.277ZM193.154 457.997L190.012 462.964L190.145 463.424L193.493 458.142L193.154 457.997ZM195.173 459.266L190.918 465.986L191.051 466.433L195.475 459.459L195.173 459.266ZM187.583 451.023L187.728 451.349L195.366 448.014L195.221 447.687L187.583 451.023ZM196.321 450.201L196.176 449.875L188.537 453.211L188.67 453.537L196.321 450.201ZM181.636 446.575L181.285 446.466L178.989 454.431L179.327 454.528L181.636 446.575ZM177.067 453.948L179.34 445.923L179.001 445.826L176.729 453.851L177.067 453.948ZM209.785 450.407L207.368 442.43L207.03 442.526L209.447 450.515L209.785 450.407ZM204.757 443.155L207.175 451.132L207.513 451.035L205.096 443.058L204.757 443.155ZM193.166 422.608L186.519 427.636L186.736 427.914L193.384 422.898L193.166 422.608ZM187.945 429.533L188.163 429.823L194.822 424.796L194.605 424.518L187.945 429.533ZM179.763 415.03L182.071 423.031L182.422 422.934L180.101 414.921L179.763 415.03ZM177.478 415.682L179.787 423.696L180.125 423.599L177.78 415.682H177.478ZM169.018 423.526H169.38L169.864 415.199H169.501L169.018 423.526ZM172.233 415.368H171.882L171.399 423.696H171.749L172.233 415.368ZM175.158 476.634L170.057 471.328L169.803 471.57L174.916 476.888L175.158 476.634ZM168.341 473.008L168.111 473.371L173.284 478.749L173.526 478.495L168.341 473.008ZM228.773 426.838L228.495 426.621L223.262 433.099L223.54 433.329L228.773 426.838ZM226.646 425.122L221.4 431.6L221.678 431.83L226.924 425.339L226.646 425.122ZM228.132 412.939H227.77L226.839 421.218H227.19L228.132 412.939ZM225.401 412.624L224.47 420.916H224.833L225.763 412.637L225.401 412.624ZM207.404 465.926L199.729 462.674L199.596 463.001L207.271 466.252L207.404 465.926ZM208.335 463.726L200.66 460.475L200.527 460.801L208.202 464.052L208.335 463.726ZM160.473 422.741L160.243 422.475L159.965 422.717L159.361 423.708L160.473 422.741ZM164.691 432.253L157.318 435.141V435.516L164.824 432.579L164.691 432.253ZM163.954 430.367L163.821 430.029L157.318 432.579V432.966L163.954 430.367ZM161.742 447.711L161.826 447.361L157.318 446.346V446.708L161.742 447.711ZM162.274 445.391L162.346 445.04L157.318 443.904V444.267L162.274 445.391ZM161.73 473.371L161.826 473.032L157.318 471.884V472.259L161.73 473.371ZM157.318 469.745L162.322 471.026L162.406 470.676L157.318 469.382V469.745ZM162.902 480.538L162.793 480.2L157.318 482.001V482.387L162.902 480.538ZM162.153 478.278L162.044 477.94L157.318 479.499V479.873L162.153 478.278ZM230.961 408.418L231.275 408.588L233.849 404.091H233.378L230.961 408.418ZM233.027 409.627L233.342 409.796L236.593 404.116H236.182L233.027 409.627ZM223.503 407.21L220.953 404.091H220.494L223.225 407.427L223.503 407.21ZM225.062 405.929L225.34 405.699L224.035 404.091H223.564L225.062 405.929ZM213.605 411.392L210.97 404.14H210.595L213.266 411.561L213.605 411.392ZM215.514 410.703L215.853 410.582L213.508 404.091H213.121L215.514 410.703ZM198.231 408.032L198.581 408.116L199.596 404.091H199.234L198.231 408.032ZM200.539 408.624L200.878 408.708L202.086 404.091H201.712L200.539 408.624ZM172.571 407.343L172.922 407.439L173.864 404.091H173.49L172.571 407.343ZM176.342 404.091H175.967L174.868 407.983L175.206 408.092L176.342 404.091ZM239.663 496.734L243.071 498.571V498.16L239.832 496.42L239.663 496.734ZM240.968 494.317L240.799 494.631L243.071 495.839V495.441L240.968 494.317ZM243.047 511.177V510.706L239.663 513.631L239.905 513.897L243.047 511.177ZM243.047 508.035V507.563L238.116 511.83L238.345 512.096L243.047 508.035ZM242.66 520.991L242.793 521.33L243.047 521.233V520.846L242.66 520.991ZM241.79 518.78L241.923 519.118L243.047 518.671V518.284L241.79 518.78ZM239.373 531.241L239.3 531.591L242.999 532.425V532.05L239.373 531.241ZM242.999 529.609L239.905 528.908L239.82 529.258L242.999 529.984V529.609ZM209.652 501.29L214.934 507.745L215.212 507.515L209.93 501.073L209.652 501.29ZM213.363 509.026L208.081 502.584L207.815 502.801L213.085 509.255L213.363 509.026ZM203.476 513.256L201.059 506.512L200.89 507.104L203.15 513.377L203.476 513.256ZM205.712 512.446L202.884 504.602L202.545 504.723L205.374 512.567L205.712 512.446ZM200.878 521.523L200.563 521.342L196.418 528.594L196.732 528.775L200.878 521.523ZM198.46 520.169L195.91 524.738L195.511 526.152L198.859 520.302L198.46 520.169ZM232.073 520.363L231.734 520.278L229.68 528.352L230.03 528.437L232.073 520.363ZM234.393 520.943L234.043 520.858L231.988 528.944L232.339 529.029L234.393 520.943ZM220.905 527.76L213.23 524.508L213.085 524.835L220.76 528.086L220.905 527.76ZM221.835 525.56L214.161 522.309L214.015 522.635L221.69 525.898L221.835 525.56ZM207.042 528.328L208.565 533.38H208.939L207.38 528.219L207.042 528.328ZM205.108 528.908L204.757 529.005L206.075 533.38H206.449L205.108 528.908ZM228.785 512.712L228.507 512.482L223.274 518.961L223.552 519.19L228.785 512.712ZM226.658 510.984L221.412 517.462L221.69 517.692L226.936 511.213L226.658 510.984ZM228.132 498.704H227.77L226.839 506.983H227.19L228.132 498.704ZM225.401 498.402L224.47 506.681H224.833L225.763 498.39L225.401 498.402ZM231.263 494.401L233.837 489.905H233.378L230.961 494.22L231.263 494.401ZM236.17 489.905L233.015 495.404L233.33 495.586L236.581 489.905H236.17ZM223.213 493.241L223.491 493.011L220.941 489.905H220.482L223.213 493.241ZM225.05 491.73L225.328 491.5L224.023 489.905H223.552L225.05 491.73ZM213.592 497.193L210.958 489.941H210.583L213.254 497.35L213.592 497.193ZM215.502 496.516L215.841 496.383L213.496 489.905H213.109L215.502 496.516ZM198.702 491.911L198.907 492.576L199.584 489.905H199.222L198.702 491.911ZM200.527 494.425L200.865 494.51L202.074 489.905H201.699L200.527 494.425ZM156.931 435.311L157.064 435.649L157.318 435.54V435.166L156.931 435.311ZM157.318 432.603L156.109 433.099L156.242 433.425L157.366 432.99L157.318 432.603ZM153.608 445.898L157.318 446.732V446.37L153.692 445.548L153.608 445.898ZM154.139 443.578L157.318 444.291V443.928L154.212 443.155L154.139 443.578ZM157.318 471.908L153.692 471.002L153.608 471.352L157.233 472.283L157.318 471.908ZM154.333 468.693L154.248 469.044L157.318 469.817V469.455L154.333 468.693ZM157.318 482.46V482.073L154.901 482.883L155.01 483.221L157.318 482.46ZM157.318 479.946V479.571L154.127 480.623L154.236 480.961L157.318 479.946ZM149.655 487.198L149.353 487.028L147.685 489.941H148.096L149.655 487.198ZM151.722 488.406L151.42 488.225L150.429 489.966H150.84L151.722 488.406ZM132.19 486.847L134.729 489.966H135.2L132.468 486.618L132.19 486.847ZM134.028 485.336L137.811 489.966H138.27L134.306 485.131L134.028 485.336ZM127.259 488.612L126.921 488.733L127.368 489.941H127.755L127.259 488.612ZM122.062 417.181L123.271 418.728L122.062 417.121V417.181ZM114.556 419.876L117.397 427.708L117.723 427.587L114.931 419.635L114.556 419.876ZM116.804 419.067L119.633 426.899L119.971 426.778L117.143 418.946L116.804 419.067ZM146.356 476.791L138.681 473.54L138.548 473.866L146.223 477.118L146.356 476.791ZM145.425 478.991L137.762 475.728L137.617 476.066L145.292 479.317L145.425 478.991ZM146.356 455.519L144.083 463.545L144.422 463.641L146.694 455.616L146.356 455.519ZM148.991 456.269L148.64 456.172L146.38 464.185L146.718 464.282L148.991 456.269ZM136.699 457.127L134.281 449.15L133.943 449.246L136.36 457.235L136.699 457.127ZM138.971 456.438L136.554 448.461L136.215 448.557L138.632 456.547L138.971 456.438ZM115.136 435.746L114.834 435.565L110.689 442.816L111.003 442.986L115.136 435.746ZM113.07 434.537L112.768 434.356L108.622 441.608L108.936 441.777L113.07 434.537ZM135.152 441.946L127.477 438.695L127.344 439.021L135.019 442.285L135.152 441.946ZM136.082 439.759L128.407 436.507L128.274 436.834L135.949 440.085L136.082 439.759ZM121.651 477.42L129.906 476.211V475.861L121.651 477.069V477.42ZM121.989 479.777L130.245 478.568V478.218L121.989 479.426V479.777ZM128.033 469.624L128.383 469.697L130.245 461.574L129.894 461.49L128.033 469.624ZM132.215 462.022L130.353 470.156L130.704 470.228L132.565 462.106L132.215 462.022ZM109.492 447.639L106.313 449.029L106.434 449.367L109.637 447.965L109.492 447.639ZM110.435 449.826L107.087 451.289L107.208 451.627L110.58 450.153L110.435 449.826ZM121.313 442.575L123.73 450.564L124.08 450.455L121.663 442.478L121.313 442.575ZM119.028 443.264L121.446 451.241L121.796 451.144L119.379 443.167L119.028 443.264ZM100.778 427.805L100.995 428.083L107.655 423.067L107.437 422.777L100.778 427.805ZM109.093 424.965L108.876 424.687L102.216 429.703L102.434 429.993L109.093 424.965ZM121.675 465.95L114 462.699L113.855 463.025L121.53 466.276L121.675 465.95ZM114.786 460.825L122.461 464.076L122.606 463.75L114.931 460.438L114.786 460.825ZM154.091 496.48L153.922 496.794L154.224 496.553L154.091 496.48ZM155.215 494.389L155.046 494.703L155.928 495.175L156.218 494.921L155.215 494.389ZM141.521 503.116H141.884L142.379 498.644H142.029L141.521 503.116ZM139.104 502.705L139.454 502.813L139.95 498.378H139.599L139.104 502.705ZM148.036 489.845H147.625L145.208 494.16L145.51 494.341L148.036 489.845ZM150.779 489.845H150.368L147.214 495.344L147.528 495.525L150.779 489.845ZM137.412 493.18L137.678 492.951L135.14 489.845H134.668L137.412 493.18ZM139.249 491.67L139.527 491.44L138.209 489.845H137.75L139.249 491.67ZM127.308 489.845L129.036 494.679L129.701 495.453L127.694 489.893L127.308 489.845Z" fill="white" />
	<path d="M227.528 362.175C227.528 362.175 207.9 359.443 198.835 365.305C189.77 371.167 144.978 447.722 144.978 447.722L120.237 414.424L98.7837 424.057C98.7837 424.057 108.84 462.975 120.539 482.338C132.239 501.7 138.911 503.658 142.923 503.018C154.865 501.12 189.456 461.102 189.456 461.102L202.026 502.921L193.493 533.318H352.429L333.151 501.169C333.151 501.169 358.303 385.139 351.897 372.847C345.492 360.555 308.169 362.175 296.433 362.175H262.833C257.74 363.184 252.565 363.719 247.374 363.77C240.736 363.577 234.112 363.044 227.528 362.175V362.175Z" stroke="#263238" stroke-width="2.32134" />
	<path d="M189.468 461.103C184.867 451.909 183.08 441.562 184.331 431.358C186.664 415.077 196.744 397.25 196.744 397.25C196.744 397.25 176.632 426.257 176.632 435.927C176.632 445.596 182.615 459.737 182.615 459.737L177.394 474.639L189.468 461.103Z" fill="#263238" stroke="#263238" stroke-width="2.32134" stroke-linecap="round" stroke-linejoin="round" />
	<path d="M244.171 346.136L244.703 363.202L230.308 363.734C230.308 363.734 227.335 426.354 240.146 437.558C252.958 448.762 291.634 362.175 291.634 362.175L278.339 359.504L274.073 324.84L244.171 346.136Z" fill="white" stroke="#263238" stroke-width="2.32134" stroke-linecap="round" stroke-linejoin="round" />
	<path d="M275.608 331.608L244.824 360.616V350.354L275.608 331.608Z" fill="#263238" stroke="#263238" stroke-width="2.32134" stroke-linecap="round" stroke-linejoin="round" />
	<path d="M240.146 437.558C240.146 437.558 241.694 427.478 249.441 414.304L240.146 437.558Z" fill="white" />
	<path d="M240.146 437.558C240.146 437.558 241.694 427.478 249.441 414.304" stroke="#263238" stroke-width="2.32134" stroke-linecap="round" stroke-linejoin="round" />
	<path d="M237.971 249.904L202.92 286.345C205.674 294.101 207.009 302.289 206.86 310.518C206.449 323.426 218.185 342.414 227.782 351.237C237.379 360.06 256.959 346.499 264.271 341.713C269.154 338.403 273.708 334.631 277.868 330.448C280.535 330.333 283.129 329.542 285.408 328.151C287.687 326.761 289.575 324.815 290.897 322.495C290.897 322.495 239.965 268.07 237.971 249.904Z" fill="white" stroke="#263238" stroke-width="2.32134" stroke-linecap="round" stroke-linejoin="round" />
	<path d="M228.471 287.322C229.683 289.791 230.468 292.447 230.792 295.178C230.901 298.551 224.99 314.347 225.836 315.399C226.682 316.451 229.329 319.931 231.396 319.484" stroke="#263238" stroke-width="2.32134" stroke-linecap="round" stroke-linejoin="round" />
	<path d="M243.047 304.595C247.986 302.745 253.416 302.681 258.397 304.414" stroke="#263238" stroke-width="1.16067" stroke-linecap="round" stroke-linejoin="round" />
	<path d="M215.768 305.852C218.408 305.111 221.136 304.728 223.878 304.716" stroke="#263238" stroke-width="1.16067" stroke-linecap="round" stroke-linejoin="round" />
	<path d="M224.047 278.391C222.693 278.291 221.334 278.505 220.076 279.016C218.818 279.528 217.695 280.323 216.796 281.34C213.762 284.833 212.287 287.879 211.526 285.413C210.764 282.948 214.149 278.415 215.345 277.497C216.542 276.578 222.15 272.976 224.047 278.391Z" fill="#263238" />
	<path d="M239.047 276.36C242.602 276.347 246.11 277.176 249.284 278.778C253.913 281.316 251.701 276.167 248.45 274.693C245.199 273.218 239.567 273.363 239.047 276.36Z" fill="#263238" />
	<path d="M292.71 336.974C292.928 340.6 291.054 343.622 288.552 343.767C286.05 343.912 283.839 341.108 283.621 337.506C283.404 333.904 284.914 324.61 287.416 324.465C289.918 324.32 292.505 333.36 292.71 336.974Z" fill="#E79436" stroke="#263238" stroke-width="2.32134" stroke-linecap="round" stroke-linejoin="round" />
	<path d="M222.609 299.325C222.778 301.742 221.859 303.7 220.566 303.785C219.273 303.869 218.149 302.02 217.943 299.651C217.738 297.282 218.693 295.276 219.986 295.191C221.279 295.107 222.5 297.004 222.609 299.325Z" fill="#263238" />
	<path d="M248.692 298.394C248.861 300.811 247.942 302.757 246.661 302.854C245.38 302.951 244.244 301.089 244.026 298.708C243.809 296.327 244.788 294.345 246.069 294.261C247.35 294.176 248.535 296.025 248.692 298.394Z" fill="#263238" />
	<path d="M231.227 326.361C231.227 326.361 237.379 328.332 245.731 321.188" stroke="#263238" stroke-width="2.32134" stroke-linecap="round" stroke-linejoin="round" />
	<path d="M120.237 414.449L108.984 399.377C108.465 395.364 107.462 387.073 107.292 381.477C107.063 373.862 107.437 369.209 103.11 362.453C98.7835 355.697 86.7092 345.024 85.573 342.547C84.4369 340.069 81.1494 347.055 83.2162 351.587C85.283 356.12 87.1684 357.51 87.1684 357.51C87.1684 357.51 64.9415 346.463 64.2042 348.263C63.467 350.064 74.5502 381.912 79.6265 390.312C81.7416 393.817 87.6036 398.507 90.4318 402.568C91.815 404.572 93.001 406.705 93.9731 408.937C96.6079 420.141 99.6779 432.469 101.225 432.917C104.742 433.944 119.669 434.186 120.237 414.449Z" fill="white" stroke="#263238" stroke-width="2.32134" stroke-miterlimit="10" />
	<path d="M88.6432 379.821C88.44 379.875 88.228 379.889 88.0194 379.862C87.8108 379.834 87.6098 379.765 87.4278 379.66C87.2458 379.554 87.0865 379.414 86.959 379.246C86.8316 379.079 86.7385 378.888 86.6852 378.684L69.0027 313.309C68.9082 312.914 68.9681 312.497 69.1703 312.144C69.3724 311.792 69.7016 311.53 70.0905 311.411C70.4991 311.304 70.9336 311.361 71.3001 311.572C71.6665 311.782 71.9354 312.128 72.0485 312.535L89.7793 377.887C89.8792 378.293 89.8164 378.723 89.6042 379.084C89.392 379.446 89.0472 379.71 88.6432 379.821Z" fill="#263238" stroke="#263238" stroke-width="2.32134" stroke-miterlimit="10" />
	<path d="M75.892 338.232C75.892 338.232 58.826 347.249 59.8775 349.013C60.929 350.778 64.0473 357.075 65.4735 356.93C66.8997 356.785 77.2577 348.325 78.0071 347.261C78.7565 346.197 75.892 338.232 75.892 338.232Z" fill="white" stroke="#263238" stroke-width="2.32134" stroke-miterlimit="10" />
	<path d="M78.9377 349.303C78.9377 349.303 64.7604 359.757 65.2197 361.28C65.6789 362.803 72.6286 380.824 73.8373 382.287C75.0459 383.749 86.1413 378.661 86.1413 378.661L78.9377 349.303Z" fill="white" stroke="#263238" stroke-width="2.32134" stroke-miterlimit="10" />
	<path d="M81.0892 359.019C81.0892 359.019 67.5161 369.679 68.4105 370.017" stroke="#263238" stroke-width="2.32134" stroke-miterlimit="10" />
	<path d="M83.6515 370.576L72.2419 377.26" stroke="#263238" stroke-width="2.32134" stroke-miterlimit="10" />
	<path d="M87.1326 357.51L93.3933 363.625C93.3933 363.625 85.0779 381.38 93.0428 391.183" stroke="#263238" stroke-width="2.32134" stroke-miterlimit="10" />
	<path d="M334.167 365.957C334.167 365.957 349.36 363.975 355.923 376.533C362.485 389.09 403.495 500.08 404.159 510.692C404.824 521.304 377.062 523.902 367.816 519.285C358.569 514.668 332.765 459.82 330.154 452.544" fill="#E79436" />
	<path d="M338.997 442.812L336.745 450.818L337.093 450.916L339.345 442.91L338.997 442.812Z" fill="white" />
	<path d="M344.247 420.237L341.938 412.224L341.588 412.332L343.908 420.334L344.247 420.237Z" fill="white" />
	<path d="M343.117 443.608L340.841 451.631L341.189 451.73L343.466 443.707L343.117 443.608Z" fill="white" />
	<path d="M346.616 438.356L341.334 431.902L341.056 432.132L346.338 438.574L346.616 438.356Z" fill="white" />
	<path d="M358.015 447.002L350.371 450.337L350.516 450.669L358.16 447.334L358.015 447.002Z" fill="white" />
	<path d="M357.3 456.618L356.998 456.425L352.538 463.471L352.84 463.665L357.3 456.618Z" fill="white" />
	<path d="M339.303 412.986L341.612 421L341.962 420.891L339.642 412.89L339.303 412.986Z" fill="white" />
	<path d="M350.52 462.19L350.822 462.383L355.282 455.349L354.98 455.155L350.52 462.19Z" fill="white" />
	<path d="M348.453 436.845L343.183 430.391L342.905 430.62L348.175 437.062L348.453 436.845Z" fill="white" />
	<path d="M356.447 421.803L349.78 426.813L349.998 427.103L356.665 422.093L356.447 421.803Z" fill="white" />
	<path d="M354.774 386.312L357.18 394.302L357.518 394.193L355.125 386.216L354.774 386.312Z" fill="white" />
	<path d="M355.221 420.213L355.003 419.923L348.344 424.939L348.561 425.229L355.221 420.213Z" fill="white" />
	<path d="M350.822 376.678L353.324 372.725C353.239 372.641 353.167 372.544 353.082 372.447L350.52 376.484L350.822 376.678Z" fill="white" />
	<path d="M343.51 391.725L343.8 391.942L348.864 385.319L348.586 385.102L343.51 391.725Z" fill="white" />
	<path d="M348.054 402.591L355.729 405.842L355.874 405.516L348.199 402.265L348.054 402.591Z" fill="white" />
	<path d="M357.058 385.622L359.463 393.611L359.802 393.502L357.409 385.525L357.058 385.622Z" fill="white" />
	<path d="M356.55 438.996L360.696 431.756L360.382 431.587L356.248 438.815L356.55 438.996Z" fill="white" />
	<path d="M347.279 404.489L347.142 404.812L354.819 408.069L354.956 407.746L347.279 404.489Z" fill="white" />
	<path d="M357.041 444.867L349.397 448.2L349.542 448.533L357.186 445.199L357.041 444.867Z" fill="white" />
	<path d="M375.998 519.455L375.865 519.781L379.721 521.425H380.664L375.998 519.455Z" fill="white" />
	<path d="M377.666 493.53L375.321 487.04L374.837 485.698L374.499 485.819L374.946 487.04L377.327 493.651L377.666 493.53Z" fill="white" />
	<path d="M369.641 500.009L374.922 506.463L375.188 506.233L369.919 499.779L369.641 500.009Z" fill="white" />
	<path d="M375.418 494.339L372.795 487.039L372.59 486.507L372.263 486.616L372.408 487.039L375.092 494.46L375.418 494.339Z" fill="white" />
	<path d="M377.762 475.473L369.507 476.633L369.556 476.983L377.811 475.823L377.762 475.473Z" fill="white" />
	<path d="M401.742 511.103L403.978 509.169L403.906 508.771L401.488 510.837L401.742 511.103Z" fill="white" />
	<path d="M341.624 390.276L341.902 390.493L346.979 383.87L346.688 383.652L341.624 390.276Z" fill="white" />
	<path d="M332.11 434.107L331.769 434.23L334.6 442.075L334.941 441.952L332.11 434.107Z" fill="white" />
	<path d="M400.171 509.305L403.362 506.549C403.322 506.422 403.29 506.293 403.265 506.162L399.941 509.039L400.171 509.305Z" fill="white" />
	<path d="M377.037 504.721L371.756 498.279L371.478 498.497L376.759 504.951L377.037 504.721Z" fill="white" />
	<path d="M333.743 412.676L333.259 421.002L333.621 421.023L334.105 412.697L333.743 412.676Z" fill="white" />
	<path d="M371.611 447.6L369.218 439.623L368.867 439.72L371.272 447.709L371.611 447.6Z" fill="white" />
	<path d="M364.713 416.008L364.384 416.127L367.214 423.972L367.544 423.853L364.713 416.008Z" fill="white" />
	<path d="M363.5 401.297L362.352 405.829L362.703 405.914L363.875 401.297L364.757 397.828L364.407 397.743L363.5 401.297Z" fill="white" />
	<path d="M361.047 401.298L360.044 405.238L360.394 405.322L361.41 401.298L362.449 397.249L362.099 397.164L361.047 401.298Z" fill="white" />
	<path d="M366.582 440.411L368.987 448.388L369.326 448.291L366.933 440.302L366.582 440.411Z" fill="white" />
	<path d="M362.454 416.853L362.124 416.972L364.956 424.816L365.286 424.697L362.454 416.853Z" fill="white" />
	<path d="M334.365 433.276L334.024 433.399L336.855 441.244L337.196 441.121L334.365 433.276Z" fill="white" />
	<path d="M352.84 377.888L354.871 374.685L354.653 374.347L352.538 377.707L352.84 377.888Z" fill="white" />
	<path d="M362.352 457.97L370.027 461.221L370.16 460.895L362.485 457.644L362.352 457.97Z" fill="white" />
	<path d="M341.261 371.771L340.947 371.59L336.802 378.817L337.116 378.999L341.261 371.771Z" fill="white" />
	<path d="M397.753 488.235L397.596 487.788L394.877 492.55L395.179 492.719L397.753 488.235Z" fill="white" />
	<path d="M389.958 495.852L389.607 495.815L388.664 504.095L389.027 504.131L389.958 495.852Z" fill="white" />
	<path d="M385.392 472.975L385.255 473.298L392.933 476.555L393.069 476.232L385.392 472.975Z" fill="white" />
	<path d="M395.663 487.04L396.714 485.215L396.569 484.756L395.252 487.04L392.774 491.367L393.088 491.536L395.663 487.04Z" fill="white" />
	<path d="M390.622 509.858L390.344 509.628L385.099 516.106L385.377 516.336L390.622 509.858Z" fill="white" />
	<path d="M392.689 473.453L386.307 470.746L386.175 471.072L392.846 473.901L392.689 473.453Z" fill="white" />
	<path d="M388.761 508.361L388.483 508.131L383.25 514.609L383.528 514.839L388.761 508.361Z" fill="white" />
	<path d="M380.132 459.314L379.781 459.229L377.92 467.352L378.27 467.436L380.132 459.314Z" fill="white" />
	<path d="M385.039 490.388L385.317 490.158L382.766 487.04L380.035 483.704L379.757 483.934L382.307 487.04L385.039 490.388Z" fill="white" />
	<path d="M338.869 380.003L339.183 380.184L343.329 372.945L343.014 372.775L338.869 380.003Z" fill="white" />
	<path d="M362.452 502.587L362.122 502.706L364.954 510.55L365.284 510.431L362.452 502.587Z" fill="white" />
	<path d="M394.006 517.533L393.656 517.437L393.015 519.951L393.414 519.842L394.006 517.533Z" fill="white" />
	<path d="M364.722 501.747L364.392 501.866L367.222 509.711L367.552 509.592L364.722 501.747Z" fill="white" />
	<path d="M375.853 434.041L379.044 435.394C379.044 435.237 378.923 435.08 378.875 434.935L375.986 433.727L375.853 434.041Z" fill="white" />
	<path d="M396.315 518.09L395.965 518.006L395.675 519.13L396.085 518.985L396.315 518.09Z" fill="white" />
	<path d="M354.944 493.458L348.61 490.774L348.876 491.27L354.799 493.784L354.944 493.458Z" fill="white" />
	<path d="M333.297 384.85L337.418 389.14L337.684 388.899L333.321 384.366L333.297 384.85Z" fill="white" />
	<path d="M369.641 414.267L372.469 417.711L372.07 416.672L369.955 414.037L369.641 414.267Z" fill="white" />
	<path d="M335.702 390.796L335.955 390.542L333.176 387.642L333.151 388.137L335.702 390.796Z" fill="white" />
	<path d="M381.57 446.454L383.975 454.443L384.313 454.334L381.92 446.357L381.57 446.454Z" fill="white" />
	<path d="M355.874 491.27L348.199 488.007L348.054 488.333L355.729 491.597L355.874 491.27Z" fill="white" />
	<path d="M346.979 469.624L346.688 469.406L341.624 476.018L341.902 476.235L346.979 469.624Z" fill="white" />
	<path d="M359.802 479.256L357.409 471.267L357.058 471.375L359.463 479.352L359.802 479.256Z" fill="white" />
	<path d="M357.518 479.944L355.125 471.955L354.774 472.064L357.18 480.041L357.518 479.944Z" fill="white" />
	<path d="M348.864 471.061L348.586 470.855L343.51 477.467L343.8 477.684L348.864 471.061Z" fill="white" />
	<path d="M336.681 405.189L337.031 405.286L338.155 401.298L339.291 397.273L338.953 397.164L337.781 401.298L336.681 405.189Z" fill="white" />
	<path d="M335.303 401.299L334.385 404.55L334.735 404.646L335.678 401.299L336.995 396.621L336.657 396.524L335.303 401.299Z" fill="white" />
	<path d="M341.261 457.513L340.947 457.332L336.802 464.572L337.116 464.741L341.261 457.513Z" fill="white" />
	<path d="M343.329 458.698L343.014 458.517L338.869 465.756L339.183 465.926L343.329 458.698Z" fill="white" />
	<path d="M362.461 432.771L358.315 439.999L358.618 440.18L362.763 432.941L362.461 432.771Z" fill="white" />
	<path d="M377.46 458.695L375.599 466.817L375.949 466.902L377.81 458.78L377.46 458.695Z" fill="white" />
	<path d="M379.998 437.992L375.055 435.901L374.922 436.228L380.167 438.452C380.107 438.319 380.059 438.149 379.998 437.992Z" fill="white" />
	<path d="M377.485 473.467L377.436 473.116L369.181 474.276L369.23 474.627L377.485 473.467Z" fill="white" />
	<path d="M381.884 482.192L381.606 482.422L385.389 487.039L386.888 488.876L387.166 488.647L385.848 487.039L381.884 482.192Z" fill="white" />
	<path d="M363.875 487.038L364.757 483.582L364.407 483.497L363.5 487.038L362.352 491.571L362.703 491.655L363.875 487.038Z" fill="white" />
	<path d="M361.561 459.873L361.424 460.195L369.102 463.453L369.238 463.13L361.561 459.873Z" fill="white" />
	<path d="M361.41 487.04L362.449 482.991L362.099 482.906L361.047 487.04L360.044 490.98L360.394 491.077L361.41 487.04Z" fill="white" />
	<path d="M386.658 503.863L387.588 495.584L387.238 495.548L386.295 503.827L386.658 503.863Z" fill="white" />
	<path d="M334.167 365.957C334.167 365.957 349.36 363.975 355.923 376.533C362.485 389.09 403.495 500.08 404.159 510.692C404.824 521.304 377.062 523.902 367.816 519.285C358.569 514.668 332.765 459.82 330.154 452.544" stroke="#263238" stroke-width="2.32134" />
	<path d="M242.322 517.266C242.322 517.266 211.272 513.302 205.978 513.954C200.685 514.607 176.911 530.477 176.911 530.477H244.256L242.322 517.266Z" fill="white" stroke="#263238" stroke-width="2.32134" stroke-linecap="round" stroke-linejoin="round" />
	<path d="M370.499 496.118L242.383 517.269L244.256 530.479H402.225C403.454 523.941 404.117 517.31 404.208 510.658C404.208 500.747 398.261 489.519 398.261 489.519" fill="#E79436" />
	<path d="M381.111 517.932L383.516 525.909L383.854 525.812L381.461 517.823L381.111 517.932Z" fill="white" />
	<path d="M389.886 495.354L384.64 501.833L384.918 502.062L390.164 495.584L389.886 495.354Z" fill="white" />
	<path d="M382.79 500.336L383.068 500.565L388.302 494.087L388.024 493.857L382.79 500.336Z" fill="white" />
	<path d="M366.124 511.876L368.529 519.865L368.867 519.756L366.474 511.779L366.124 511.876Z" fill="white" />
	<path d="M386.138 525.124L383.733 517.135L383.395 517.244L385.8 525.221L386.138 525.124Z" fill="white" />
	<path d="M371.151 519.081L368.758 511.092L368.408 511.201L370.813 519.178L371.151 519.081Z" fill="white" />
	<path d="M393.205 503.168L391.152 511.251L391.504 511.34L393.556 503.257L393.205 503.168Z" fill="white" />
	<path d="M391.735 530.479H392.109L393.862 524.291L393.511 524.194L391.735 530.479Z" fill="white" />
	<path d="M362.026 529.113L361.893 529.44L364.335 530.479H365.253L362.026 529.113Z" fill="white" />
	<path d="M395.482 503.697L393.428 511.779L393.779 511.869L395.834 503.786L395.482 503.697Z" fill="white" />
	<path d="M333.896 504.742L333.554 504.865L336.385 512.71L336.726 512.587L333.896 504.742Z" fill="white" />
	<path d="M374.463 507.708L382.126 510.959L382.271 510.632L374.596 507.369L374.463 507.708Z" fill="white" />
	<path d="M377.001 530.176L376.929 530.478H377.291L377.352 530.248L377.001 530.176Z" fill="white" />
	<path d="M375.528 505.209L375.391 505.531L383.068 508.788L383.205 508.466L375.528 505.209Z" fill="white" />
	<path d="M340.597 503.598L345.879 510.052L346.157 509.822L340.875 503.368L340.597 503.598Z" fill="white" />
	<path d="M347.994 508.313L342.712 501.871L342.446 502.089L347.716 508.543L347.994 508.313Z" fill="white" />
	<path d="M399.724 495.027L400.461 494.387L400.316 494.036L399.494 494.761L399.724 495.027Z" fill="white" />
	<path d="M340.364 514.431L338.088 522.454L338.437 522.553L340.713 514.53L340.364 514.431Z" fill="white" />
	<path d="M401.258 512.192L404.171 512.857C404.171 512.736 404.171 512.615 404.171 512.494L401.319 511.842L401.258 512.192Z" fill="white" />
	<path d="M356.539 527.902L354.907 530.477H355.33L356.841 528.084L356.539 527.902Z" fill="white" />
	<path d="M404.087 514.911L400.811 514.174L400.727 514.512L404.063 515.274C404.075 515.153 404.087 515.032 404.087 514.911Z" fill="white" />
	<path d="M401.283 496.83L401.367 496.757L401.234 496.395L401.053 496.564L401.283 496.83Z" fill="white" />
	<path d="M356.578 516.326L348.934 519.659L349.079 519.992L356.723 516.658L356.578 516.326Z" fill="white" />
	<path d="M354.822 526.817L354.52 526.624L352.079 530.48H352.502L354.822 526.817Z" fill="white" />
	<path d="M342.682 515.145L340.406 523.168L340.755 523.267L343.031 515.244L342.682 515.145Z" fill="white" />
	<path d="M357.556 518.48L349.912 521.814L350.057 522.147L357.701 518.812L357.556 518.48Z" fill="white" />
	<path d="M362.304 504.419L362.002 504.237L357.856 511.477L358.158 511.658L362.304 504.419Z" fill="white" />
	<path d="M355.79 510.293L356.092 510.463L360.237 503.235L359.923 503.054L355.79 510.293Z" fill="white" />
	<path d="M270.841 516.334L263.196 519.667L263.341 519.999L270.986 516.666L270.841 516.334Z" fill="white" />
	<path d="M255.061 528.979L254.747 528.81L253.792 530.478H254.203L255.061 528.979Z" fill="white" />
	<path d="M252.692 522.56L254.771 515.212L254.385 515.272L252.354 522.464L252.692 522.56Z" fill="white" />
	<path d="M257.128 530.163L256.814 529.994L256.536 530.478H256.947L257.128 530.163Z" fill="white" />
	<path d="M297.315 508.758L297.46 508.431L297.001 508.25L296.348 508.347L297.315 508.758Z" fill="white" />
	<path d="M305.994 530.479H306.368L308.109 524.291L307.77 524.194L305.994 530.479Z" fill="white" />
	<path d="M309.124 506.244L307.71 511.828L308.048 511.925L309.511 506.184L309.124 506.244Z" fill="white" />
	<path d="M269.081 526.817L268.779 526.624L266.338 530.48H266.761L269.081 526.817Z" fill="white" />
	<path d="M271.1 528.084L270.798 527.902L269.154 530.477H269.577L271.1 528.084Z" fill="white" />
	<path d="M342.555 529.994L342.277 530.478H342.688L342.869 530.163L342.555 529.994Z" fill="white" />
	<path d="M395.807 524.845L394.212 530.477H394.587L396.146 524.941L395.807 524.845Z" fill="white" />
	<path d="M331.651 505.568L331.31 505.691L334.142 513.536L334.483 513.412L331.651 505.568Z" fill="white" />
	<path d="M310.054 524.845L308.471 530.477H308.834L310.405 524.941L310.054 524.845Z" fill="white" />
	<path d="M276.285 529.113L276.14 529.44L278.593 530.479H279.5L276.285 529.113Z" fill="white" />
	<path d="M340.802 528.979L340.488 528.81L339.533 530.478H339.944L340.802 528.979Z" fill="white" />
	<path d="M255.093 514.587L252.841 522.593L253.189 522.691L255.441 514.685L255.093 514.587Z" fill="white" />
	<path d="M323.845 520.652L323.506 520.52L320.461 528.279L320.787 528.412L323.845 520.652Z" fill="white" />
	<path d="M271.793 518.511L264.148 521.845L264.293 522.177L271.938 518.844L271.793 518.511Z" fill="white" />
	<path d="M326.057 521.51L325.718 521.39L322.672 529.149L323.011 529.27L326.057 521.51Z" fill="white" />
	<path d="M314.986 514.524L318.684 515.358L323.108 516.349L323.193 515.999L318.684 514.984L315.058 514.174L314.986 514.524Z" fill="white" />
	<path d="M323.64 514.029L323.724 513.679L318.684 512.543L315.59 511.842L315.505 512.192L318.684 512.905L323.64 514.029Z" fill="white" />
	<path d="M305.752 511.333L306.948 506.607L306.561 506.668L305.401 511.249L305.752 511.333Z" fill="white" />
	<path d="M296.53 510.632L292.614 508.964L291.961 509.073L296.385 510.958L296.53 510.632Z" fill="white" />
	<path d="M285.059 519.178L285.41 519.081L283.005 511.092L282.666 511.201L285.059 519.178Z" fill="white" />
	<path d="M283.126 519.756L280.721 511.779L280.382 511.876L282.788 519.865L283.126 519.756Z" fill="white" />
	<path d="M295.37 517.932L297.775 525.909L298.113 525.812L295.708 517.823L295.37 517.932Z" fill="white" />
	<path d="M291.248 530.176L291.176 530.478H291.55L291.599 530.248L291.248 530.176Z" fill="white" />
	<path d="M300.397 525.124L297.992 517.135L297.654 517.244L300.047 525.221L300.397 525.124Z" fill="white" />
	<path d="M370.499 496.118L242.383 517.269L244.256 530.479H402.225C403.454 523.941 404.117 517.31 404.208 510.658C404.208 500.747 398.261 489.519 398.261 489.519" stroke="#263238" stroke-width="2.32134" />
	<path d="M398.672 528.342H239.421L234.2 440.739C234.058 439.886 234.103 439.012 234.333 438.178C234.563 437.344 234.971 436.57 235.53 435.91C236.089 435.25 236.785 434.719 237.57 434.355C238.355 433.991 239.209 433.802 240.074 433.802H397.995C398.861 433.8 399.717 433.988 400.502 434.351C401.288 434.714 401.985 435.245 402.544 435.906C403.104 436.566 403.512 437.341 403.741 438.176C403.97 439.011 404.014 439.886 403.869 440.739L398.672 528.342Z" fill="#263238" stroke="#263238" stroke-width="2.32134" stroke-linecap="round" stroke-linejoin="round" />
	<path d="M247.241 435.905H396.847C397.691 435.896 398.528 436.071 399.298 436.419C400.067 436.767 400.752 437.279 401.303 437.919C401.854 438.559 402.259 439.312 402.49 440.125C402.72 440.937 402.77 441.791 402.636 442.625" stroke="white" stroke-width="2.32134" stroke-linecap="round" stroke-linejoin="round" />
	<path d="M235.385 441.283C235.498 439.812 236.164 438.44 237.25 437.441C238.336 436.443 239.76 435.894 241.234 435.904" stroke="white" stroke-width="2.32134" stroke-linecap="round" stroke-linejoin="round" />
	<path d="M399.337 519.808H238.732V528.341H399.337V519.808Z" fill="white" stroke="#263238" stroke-width="2.32134" stroke-linecap="round" stroke-linejoin="round" />
	<path d="M329.852 481.422C329.852 485.193 324.752 488.25 318.467 488.25C312.182 488.25 307.093 485.193 307.093 481.422C307.093 477.651 312.194 474.593 318.467 474.593C324.739 474.593 329.852 477.651 329.852 481.422Z" fill="white" stroke="#263238" stroke-width="2.32134" stroke-linecap="round" stroke-linejoin="round" />
	<path d="M81.0166 519.539C77.6413 519.372 74.3261 518.581 71.2387 517.207C70.4523 516.828 69.8424 516.161 69.5365 515.343C69.2306 514.526 69.2523 513.622 69.597 512.82C69.9417 512.019 70.5828 511.381 71.3865 511.041C72.1901 510.7 73.0942 510.684 73.9098 510.994C77.0281 512.324 81.0287 513.146 82.1044 512.686C84.0624 510.475 87.0961 497.119 83.1801 490.749C82.9745 490.3 82.6642 489.906 82.2751 489.601C81.8861 489.296 81.4297 489.089 80.9441 488.997C78.7202 488.695 75.4327 490.979 74.2724 492.067C73.6108 492.642 72.7518 492.938 71.8762 492.893C71.0007 492.847 70.1769 492.464 69.5784 491.823C68.98 491.182 68.6536 490.334 68.6679 489.458C68.6823 488.581 69.0363 487.744 69.6554 487.124C70.2718 486.543 75.8799 481.503 81.8385 482.289C83.3176 482.51 84.7263 483.067 85.9563 483.918C87.1862 484.769 88.2047 485.89 88.9332 487.196C94.6985 496.575 90.7583 514.463 86.3226 517.968C84.7826 519.077 82.9121 519.631 81.0166 519.539Z" fill="#263238" stroke="#263238" stroke-width="2.32134" stroke-linecap="round" stroke-linejoin="round" />
	<path d="M75.0339 479.532H37.7473V529.026H75.0339V479.532Z" fill="#263238" stroke="#263238" stroke-width="2.32134" stroke-linecap="round" stroke-linejoin="round" />
	<path d="M41.1318 476.825C41.1318 476.825 41.1318 472.704 48.6858 468.582C56.2399 464.461 60.3613 458.285 56.2399 446.609C52.1184 434.934 52.8073 426.691 61.0744 419.813" stroke="#263238" stroke-width="2.32134" stroke-linecap="round" stroke-linejoin="round" />
	<path d="M42.8479 432.891C43.2347 427.875 45.4707 423.633 50.0998 419.813" stroke="#263238" stroke-width="2.32134" stroke-linecap="round" stroke-linejoin="round" />
	<path d="M45.2525 446.609C44.4979 444.527 43.8881 442.394 43.4275 440.228" stroke="#263238" stroke-width="2.32134" stroke-linecap="round" stroke-linejoin="round" />
	<path d="M71.8072 450.634C71.5177 449.268 71.1341 447.923 70.659 446.609L70.0305 444.748" stroke="#263238" stroke-width="2.32134" stroke-linecap="round" stroke-linejoin="round" />
	<path d="M55.5505 476.825C55.5505 476.825 55.5505 472.703 63.1046 468.582C68.06 465.874 71.565 462.285 72.1814 456.846" stroke="#263238" stroke-width="2.32134" stroke-linecap="round" stroke-linejoin="round" />
	<path d="M565.791 528.183H3.24048V540.632H565.791V528.183Z" fill="#263238" />
</svg>
